<svg width="512" height="512" xmlns="http://www.w3.org/2000/svg" xmlns:xlink="http://www.w3.org/1999/xlink" xml:space="preserve" overflow="hidden"><g transform="translate(-384 -104)"><g><path d="M873.534 495.087 853.27 495.087 853.27 369.66C853.27 366.899 851.032 364.66 848.27 364.66L788.056 364.66 788.056 239.233C788.056 236.472 785.818 234.233 783.056 234.233L652.629 234.233C649.867 234.233 647.629 236.472 647.629 239.233L647.629 364.66 587.416 364.66C584.654 364.66 582.416 366.899 582.416 369.66L582.416 495.087 577.865 495.087C574.182 487.558 568.058 481.434 560.529 477.751L560.529 201.251C560.529 158.58 526.746 123.662 484.523 121.811 482.922 119.384 480.174 117.777 477.056 117.777L410.41 117.777C399.156 117.777 390 126.933 390 138.187 390 149.441 399.156 158.597 410.41 158.597L477.057 158.597C480.078 158.597 482.748 157.088 484.369 154.788 508.496 156.521 527.599 176.69 527.599 201.25L527.599 477.751C515.093 483.868 506.457 496.72 506.457 511.553 506.457 532.289 523.328 549.159 544.064 549.159 558.898 549.159 571.749 540.524 577.866 528.018L652.085 528.018C663.556 552.885 688.709 570.195 717.843 570.195 728.391 570.195 738.898 567.865 748.406 563.438 749.012 565.129 749.986 566.678 751.266 567.959 753.576 570.269 756.654 571.541 759.935 571.541 761.456 571.541 762.928 571.256 764.305 570.733L790.329 596.757C793.852 600.281 798.552 602.222 803.56 602.222 808.568 602.222 813.268 600.281 816.791 596.758 820.314 593.235 822.256 588.535 822.256 583.527 822.256 578.519 820.316 573.819 816.791 570.295L790.767 544.27C792.43 539.894 791.512 534.752 787.993 531.232 786.713 529.951 785.163 528.978 783.473 528.372 783.527 528.256 783.572 528.136 783.625 528.02L873.531 528.02C882.61 528.02 889.997 520.633 889.997 511.554 889.997 502.475 882.61 495.088 873.531 495.088ZM476.001 148.598 410.41 148.598C404.67 148.598 400 143.928 400 138.188 400 132.448 404.67 127.778 410.41 127.778L476.001 127.778ZM843.271 495.087 790.163 495.087C788.787 458.097 759.536 428.13 722.844 425.612L722.844 374.66 758.99 374.66 758.99 412.088C758.99 413.822 759.888 415.432 761.365 416.343 762.84 417.253 764.682 417.334 766.232 416.557L783.057 408.114 799.88 416.557C800.588 416.912 801.357 417.088 802.123 417.088 803.036 417.088 803.946 416.838 804.748 416.343 806.225 415.432 807.123 413.822 807.123 412.088L807.123 374.66 843.27 374.66 843.27 495.087ZM768.99 374.66 797.124 374.66 797.124 403.985 785.301 398.051C783.889 397.343 782.226 397.343 780.816 398.051L768.991 403.985 768.991 374.66ZM703.776 244.233 731.911 244.233 731.911 273.558 720.086 267.624C718.676 266.916 717.012 266.916 715.602 267.624L703.777 273.558 703.777 244.233ZM657.63 244.233 693.776 244.233 693.776 281.661C693.776 283.395 694.674 285.005 696.151 285.916 697.626 286.826 699.468 286.907 701.018 286.13L717.843 277.687 734.668 286.13C735.375 286.485 736.144 286.661 736.91 286.661 737.823 286.661 738.733 286.411 739.535 285.916 741.012 285.005 741.91 283.395 741.91 281.661L741.91 244.233 778.056 244.233 778.056 364.66 657.629 364.66 657.629 244.233ZM638.563 374.66 666.697 374.66 666.697 403.985 654.874 398.051C653.462 397.343 651.799 397.343 650.389 398.051L638.564 403.985 638.564 374.66ZM592.417 374.66 628.563 374.66 628.563 412.088C628.563 413.822 629.461 415.432 630.938 416.343 632.412 417.253 634.255 417.334 635.805 416.557L652.63 408.114 669.453 416.557C670.161 416.912 670.93 417.088 671.696 417.088 672.609 417.088 673.519 416.838 674.321 416.343 675.798 415.432 676.696 413.822 676.696 412.088L676.696 374.66 712.843 374.66 712.843 425.612C676.151 428.13 646.9 458.097 645.523 495.087L592.416 495.087 592.416 374.66ZM486.001 144.887 486.001 131.921C522.012 134.495 550.53 164.595 550.53 201.251L550.53 474.514C548.428 474.148 546.27 473.946 544.064 473.946 541.858 473.946 539.7 474.148 537.598 474.514L537.598 201.251C537.598 171.73 514.874 147.428 486 144.887ZM544.064 539.159C528.841 539.159 516.457 526.775 516.457 511.553 516.457 496.331 528.842 483.946 544.064 483.946 559.286 483.946 571.67 496.33 571.67 511.553 571.67 526.776 559.286 539.159 544.064 539.159ZM581.103 518.018C581.469 515.916 581.671 513.758 581.671 511.552 581.671 509.346 581.469 507.188 581.103 505.086L645.821 505.086C646.267 509.529 647.132 513.847 648.347 518.018ZM759.936 561.541C759.582 561.541 758.907 561.456 758.338 560.888 757.87 560.421 757.731 559.882 757.695 559.513 757.45 556.927 755.945 554.64 753.672 553.397 752.508 552.76 751.222 552.441 749.935 552.441 748.708 552.441 747.48 552.731 746.353 553.311 737.482 557.879 727.889 560.195 717.843 560.195 683.442 560.195 655.454 532.208 655.454 497.807 655.454 463.406 683.441 435.419 717.843 435.419 752.245 435.419 780.231 463.406 780.231 497.807 780.231 507.855 777.916 517.447 773.347 526.316 772.158 528.627 772.191 531.363 773.434 533.637 774.677 535.91 776.963 537.414 779.55 537.659 779.919 537.694 780.456 537.834 780.923 538.301 781.789 539.167 781.789 540.63 780.923 541.496L761.53 560.889C760.963 561.456 760.287 561.541 759.934 561.541ZM812.258 583.526C812.258 585.864 811.358 588.051 809.723 589.687 808.087 591.322 805.9 592.222 803.562 592.222 801.224 592.222 799.037 591.322 797.401 589.686L772.139 564.424 784.461 552.102 809.724 577.365C811.359 579 812.259 581.188 812.259 583.527ZM873.533 518.018 787.337 518.018C788.56 513.799 789.403 509.467 789.847 505.086L873.533 505.086C877.098 505.086 879.999 507.987 879.999 511.552 879.999 515.117 877.099 518.018 873.533 518.018ZM544.063 493.113C533.896 493.113 525.625 501.384 525.625 511.552 525.625 521.72 533.896 529.99 544.063 529.99 554.23 529.99 562.501 521.719 562.501 511.552 562.501 501.385 554.23 493.113 544.063 493.113ZM544.063 519.99C539.41 519.99 535.625 516.204 535.625 511.552 535.625 506.9 539.41 503.113 544.063 503.113 548.716 503.113 552.501 506.899 552.501 511.552 552.501 516.205 548.716 519.99 544.063 519.99ZM717.842 446.265C689.422 446.265 666.301 469.386 666.301 497.806 666.301 526.226 689.422 549.347 717.842 549.347 746.262 549.347 769.383 526.226 769.383 497.806 769.383 469.386 746.262 446.265 717.842 446.265ZM717.842 539.347C694.936 539.347 676.301 520.712 676.301 497.806 676.301 474.9 694.936 456.265 717.842 456.265 740.748 456.265 759.383 474.9 759.383 497.806 759.383 520.712 740.748 539.347 717.842 539.347Z" fill="#FFFFFF" fill-rule="nonzero" fill-opacity="1"/></g></g></svg>