<svg data-name="Слой 1" viewBox="0 0 128 128" xmlns="http://www.w3.org/2000/svg"><path d="M54 56H2a2 2 0 0 1-2-2V2a2 2 0 0 1 2-2h52a2 2 0 0 1 2 2v52a2 2 0 0 1-2 2ZM4 52h48V4H4Z" fill="#ffffff" class="fill-000000"></path><path d="M25.5 41a2 2 0 0 1-1.41-.58L8.59 24.9a2 2 0 0 1 2.82-2.82L25.5 36.17l19.09-19.09a2 2 0 1 1 2.82 2.83l-20.49 20.5a2 2 0 0 1-1.42.59ZM126 24H68a2 2 0 0 1 0-4h58a2 2 0 0 1 0 4ZM54 128H2a2 2 0 0 1-2-2V74a2 2 0 0 1 2-2h52a2 2 0 0 1 2 2v52a2 2 0 0 1-2 2Zm-50-4h48V76H4ZM107 36H68a2 2 0 0 1 0-4h39a2 2 0 0 1 0 4ZM126 96H68a2 2 0 0 1 0-4h58a2 2 0 0 1 0 4ZM116 108H68a2 2 0 0 1 0-4h48a2 2 0 0 1 0 4Z" fill="#ffffff" class="fill-000000"></path></svg>