<svg width="25" height="19" viewBox="0 0 25 19" fill="none" xmlns="http://www.w3.org/2000/svg">
<path d="M22.8335 2.15056C22.2041 1.52526 21.3733 1.12506 20.4837 1.02501C20.3369 1.00834 20.1942 1 20.0431 1H7.87466C5.75986 1 4.03109 2.66748 3.93878 4.75184H1.58061C1.54704 4.75184 1.51348 4.76435 1.4883 4.78102C1.4841 4.78102 1.47991 4.78519 1.47571 4.78936C1.45054 4.8102 1.43375 4.83521 1.42536 4.86439C1.42536 4.86439 1.42536 4.86439 1.42536 4.86856V4.8769C1.42536 4.88941 1.41697 4.89774 1.41697 4.91025V10.7464C1.41697 10.8382 1.4925 10.9132 1.58481 10.9132H3.72898L1.40858 13.4978C0.997364 13.9188 0.888267 14.5191 1.11905 15.0652C1.34144 15.5905 1.83237 15.9156 2.39464 15.9156H5.87315C7.01447 15.9156 8.08865 15.4029 8.81876 14.5025L11.7434 10.9132H14.8527V17.8333C14.8527 17.925 14.9282 18 15.0205 18H17.5381C17.6304 18 17.706 17.925 17.706 17.8333V10.9132H23.8322C23.9245 10.9132 24 10.8382 24 10.7464V4.91025C24 3.85974 23.5888 2.87592 22.8419 2.14223L22.8335 2.15056ZM7.87466 1.3335C8.83974 1.3335 9.74609 1.70868 10.4258 2.38401C10.5098 2.46739 10.5853 2.55076 10.6608 2.64247C10.6818 2.66748 10.6986 2.6925 10.7196 2.71751C10.7699 2.78421 10.8203 2.84674 10.8664 2.91344C10.8874 2.94679 10.9084 2.98014 10.9294 3.01349C10.9671 3.07602 11.0091 3.13855 11.0427 3.20108C11.0636 3.2386 11.0804 3.28028 11.1014 3.3178C11.1308 3.38033 11.1643 3.44286 11.1895 3.5054C11.2063 3.54708 11.2231 3.59294 11.2399 3.63463C11.265 3.69716 11.286 3.75969 11.307 3.82222C11.3238 3.86807 11.3322 3.91393 11.3448 3.95978C11.3616 4.02232 11.3783 4.08485 11.3909 4.14738C11.4035 4.1974 11.4077 4.24326 11.4203 4.29328C11.4329 4.35581 11.4413 4.41834 11.4497 4.48504C11.4539 4.53507 11.4581 4.58509 11.4623 4.63512C11.4623 4.66847 11.4623 4.70598 11.4665 4.73933H4.27027C4.35838 2.8384 5.94029 1.32099 7.87466 1.32099V1.3335ZM4.09823 5.08534H11.0301L6.61585 7.64492L2.20162 5.08534H4.09823ZM1.74845 5.2104L6.53193 7.98259C6.5571 7.99926 6.58648 8.00343 6.61585 8.00343C6.64522 8.00343 6.67459 7.9951 6.69977 7.98259L11.4832 5.2104V10.588H1.74845V5.2104ZM8.54602 14.3024C7.87885 15.1194 6.90118 15.5905 5.86056 15.5905H2.38625C1.96245 15.5905 1.5932 15.3404 1.42116 14.9443C1.28269 14.615 1.26591 14.1273 1.64775 13.7354L4.17376 10.9215H11.2986L8.54602 14.3024ZM17.3577 17.6748H15.1757V10.9215H17.3577V17.6748ZM23.6517 10.588H11.8189V4.91859C11.8189 3.86807 11.4077 2.88426 10.6608 2.15056C10.5727 2.05885 10.4762 1.97548 10.3797 1.89627C10.3503 1.87126 10.3167 1.85042 10.2832 1.8254C10.216 1.77538 10.1489 1.72119 10.0776 1.67533C10.0356 1.64615 9.98946 1.62114 9.9475 1.59613C9.88456 1.55861 9.82581 1.52109 9.76287 1.48357C9.71252 1.45439 9.66217 1.43355 9.61181 1.40853C9.56566 1.38769 9.5195 1.35851 9.47334 1.33767H20.0431C20.1774 1.33767 20.3117 1.346 20.446 1.36268C21.26 1.45022 22.0195 1.81707 22.5943 2.39235C23.2783 3.06768 23.6517 3.96395 23.6517 4.92693V10.5964V10.588Z" fill="white" stroke="white" stroke-width="0.2" stroke-miterlimit="10"/>
</svg>
