<svg width="24" height="23" xmlns="http://www.w3.org/2000/svg" xmlns:xlink="http://www.w3.org/1999/xlink" xml:space="preserve" overflow="hidden"><g transform="translate(-580 -22)"><g><g><g><g><path d="M12.7173 19.6122C12.477 19.5737 12.1681 19.3806 12.0565 19.1961 12.0008 19.1146 11.8763 18.8228 11.7777 18.5525 11.5588 17.969 11.5074 17.8832 11.2757 17.7287L11.0954 17.6129 6.89067 17.5914 2.68162 17.5699 2.46709 17.4541C2.20965 17.3211 2.02087 17.1237 1.88357 16.862L1.78059 16.6689 1.76772 13.8071C1.75485 11.0096 1.75485 10.941 1.67333 10.941 1.49741 10.941 1.0941 10.7479 0.909605 10.5806 0.549195 10.2502 0.35612 9.79113 0.399025 9.37922 0.411896 9.25907 0.712236 7.82172 1.06836 6.18702 1.75485 3.02915 1.78488 2.9176 2.08093 2.67303 2.14958 2.60868 2.31692 2.50999 2.44563 2.44992L2.68162 2.33837 10.6836 2.33837 18.6855 2.33837 18.9258 2.44992C19.2004 2.57864 19.4406 2.80175 19.5651 3.04631 19.6208 3.15358 19.8096 4.04604 20.0971 5.58632 20.3459 6.89067 20.775 9.15609 21.0496 10.6192 21.616 13.5969 21.6331 13.7556 21.4443 14.1675 21.2041 14.6867 20.7535 15.0042 20.1915 15.0557L19.8868 15.0814 19.8654 16.6689 19.8439 18.2564 19.7067 18.5439C19.4321 19.1274 18.8829 19.5308 18.2521 19.608 17.9132 19.6551 12.9833 19.6551 12.7173 19.6122ZM18.5096 19.2218C18.8829 19.106 19.2433 18.7799 19.4192 18.398L19.5436 18.1277 19.5565 16.596 19.5693 15.0599 11.9364 15.0599 4.30346 15.0599 4.11468 14.9613C4.0117 14.9055 3.8701 14.7768 3.79717 14.6781L3.66846 14.4936 3.65558 12.7387 3.64269 10.9839 2.87469 10.9839 2.10239 10.9839 2.10239 13.7771 2.10239 16.5702 2.21394 16.7805C2.2783 16.892 2.40702 17.0422 2.50141 17.1066L2.67303 17.2267 6.8821 17.2482C11.3658 17.2696 11.1512 17.261 11.4988 17.4884 11.7348 17.6472 11.8849 17.8917 12.078 18.4366 12.1681 18.6898 12.284 18.9601 12.3397 19.033 12.5457 19.3162 12.4341 19.3076 15.4718 19.3076 18.1234 19.3076 18.235 19.3033 18.5096 19.2218ZM9.47791 14.6008C9.3921 14.5108 8.92011 13.8629 8.43099 13.1592 7.38839 11.6704 7.3326 11.606 6.98936 11.3743 6.5217 11.0611 6.31146 11.0225 5.0543 10.9968L3.94734 10.971 3.94734 12.61C3.94734 14.3434 3.95591 14.4292 4.1533 14.6008 4.20049 14.6438 4.29486 14.6953 4.35922 14.7167 4.42789 14.7339 5.64211 14.7553 7.05801 14.7553L9.62808 14.7596 9.47791 14.6008ZM20.5304 14.6609C20.9338 14.4807 21.2384 14.0259 21.2384 13.6097 21.2384 13.2794 19.3677 3.37241 19.2647 3.17932 19.1617 2.97767 19.0287 2.85753 18.7928 2.75026 18.5997 2.66445 18.5611 2.66016 10.6836 2.66016 2.80604 2.66016 2.76743 2.66445 2.57435 2.75026 2.33408 2.85753 2.20536 2.97767 2.09809 3.18361 1.99512 3.38955 0.729398 9.20331 0.729398 9.47791 0.729398 9.91553 0.943929 10.2759 1.33437 10.4905L1.56606 10.6192 3.92589 10.6664C6.15269 10.7093 6.30286 10.7179 6.56888 10.8037 6.90355 10.9153 7.31543 11.1727 7.5643 11.4301 7.66299 11.5288 8.165 12.2153 8.67985 12.949 9.19471 13.6827 9.67526 14.3434 9.75251 14.4163 9.91553 14.5794 10.0657 14.6609 10.2845 14.7124 10.3789 14.7339 12.5843 14.751 15.4032 14.7467 20.0713 14.7382 20.3674 14.7339 20.5304 14.6609Z" stroke="#FFFFFF" stroke-width="0.00429071" stroke-linecap="butt" stroke-linejoin="miter" stroke-miterlimit="4" stroke-opacity="1" fill="#FFFFFF" fill-rule="nonzero" fill-opacity="1" transform="matrix(1 0 0 -1 581.032 45)"/></g></g></g></g></g></svg>