<svg width="683" height="683" xmlns="http://www.w3.org/2000/svg" xmlns:xlink="http://www.w3.org/1999/xlink" xml:space="preserve" overflow="hidden"><g transform="translate(-298 -18)"><g><g><g><g><path d="M56.6113 614.732 53.2812 611.536 53.2812 572.107 53.2812 532.812 35.2988 532.812C17.8492 532.812 17.05 532.679 13.9863 529.482L10.6562 526.286 10.6562 298.375 10.6562 70.4644 13.9863 67.2676 17.1832 63.9375 341 63.9375 664.817 63.9375 668.014 67.2676 671.344 70.4644 671.344 298.375 671.344 526.286 668.014 529.482C664.95 532.679 664.151 532.812 646.701 532.812L628.719 532.812 628.719 550.795C628.719 568.245 628.586 569.044 625.389 572.107L622.192 575.438 442.368 575.438 262.41 575.438 252.42 595.418C246.959 606.341 241.364 615.931 239.899 616.73 238.167 617.663 207.664 618.062 148.521 618.062L59.8082 618.062 56.6113 614.732ZM237.768 576.77C243.229 565.847 248.823 556.256 250.289 555.457 252.02 554.525 309.564 554.125 430.113 554.125L607.406 554.125 607.406 543.469 607.406 532.812 341 532.812 74.5938 532.812 74.5938 564.781 74.5938 596.75 151.186 596.75 227.777 596.75 237.768 576.77ZM650.031 298.375 650.031 85.25 341 85.25 31.9687 85.25 31.9687 298.375 31.9687 511.5 341 511.5 650.031 511.5 650.031 298.375Z" fill="#FFFFFF" fill-rule="nonzero" fill-opacity="1" transform="matrix(1 0 0 -1 299 701)"/></g></g></g></g></g></svg>