<svg width="683" height="683" xmlns="http://www.w3.org/2000/svg" xmlns:xlink="http://www.w3.org/1999/xlink" xml:space="preserve" overflow="hidden"><g transform="translate(-298 -18)"><g><g><g><g><path d="M394.814 608.871C387.355 607.673 377.764 601.678 374.301 595.951 372.569 593.42 368.706 584.362 365.643 575.97 358.849 557.855 357.251 555.191 350.058 550.395L344.463 546.799 213.924 546.133 83.252 545.467 76.5918 541.87C68.5996 537.741 62.7387 531.614 58.4762 523.488L55.2793 517.494 54.8797 428.648C54.4801 341.799 54.4801 339.668 51.9492 339.668 46.4879 339.668 33.9668 333.674 28.2391 328.479 17.05 318.222 11.0559 303.97 12.3879 291.182 12.7875 287.452 22.1117 242.829 33.1676 192.079 54.4801 94.0414 55.4125 90.5781 64.6035 82.9855 66.7348 80.9875 71.9297 77.9238 75.9258 76.059L83.252 72.5957 331.676 72.5957 580.1 72.5957 587.559 76.059C596.084 80.0551 603.543 86.9816 607.406 94.5742 609.138 97.9043 614.999 125.611 623.923 173.43 631.649 213.924 644.969 284.255 653.495 329.678 671.077 422.121 671.61 427.049 665.749 439.837 658.29 455.954 644.303 465.811 626.854 467.41L617.396 468.209 616.73 517.494 616.064 566.779 611.802 575.704C603.277 593.82 586.227 606.341 566.646 608.738 556.123 610.203 403.073 610.203 394.814 608.871ZM574.638 596.75C586.227 593.154 597.416 583.03 602.877 571.175L606.74 562.783 607.14 515.23 607.539 467.543 370.571 467.543 133.603 467.543 127.742 464.479C124.545 462.748 120.149 458.752 117.885 455.688L113.889 449.96 113.489 395.48 113.089 341 89.2461 341 65.2695 341 65.2695 427.715 65.2695 514.43 68.7328 520.957C70.7309 524.421 74.727 529.083 77.6574 531.081L82.9855 534.811 213.658 535.477C352.855 536.143 346.195 535.876 356.984 542.936 364.311 547.864 368.973 555.457 374.967 572.374 377.764 580.233 381.361 588.625 383.092 590.889 389.486 599.68 386.023 599.414 480.33 599.414 562.65 599.414 566.113 599.281 574.638 596.75ZM294.246 453.29C291.582 450.493 276.929 430.379 261.744 408.534 229.376 362.312 227.644 360.314 216.988 353.121 202.469 343.398 195.942 342.199 156.913 341.4L122.547 340.6 122.547 391.484C122.547 445.298 122.813 447.962 128.941 453.29 130.406 454.622 133.336 456.221 135.334 456.887 137.466 457.42 175.162 458.086 219.119 458.086L298.908 458.219 294.246 453.29ZM637.377 455.155C649.898 449.561 659.355 435.441 659.355 422.52 659.355 412.264 601.279 104.698 598.082 98.7035 594.885 92.443 590.756 88.7133 583.43 85.3832 577.436 82.7191 576.237 82.5859 331.676 82.5859 87.1148 82.5859 85.916 82.7191 79.9219 85.3832 72.4625 88.7133 68.4664 92.443 65.1363 98.8367 61.9394 105.23 22.6445 285.721 22.6445 294.246 22.6445 307.832 29.3047 319.021 41.4262 325.682L48.6191 329.678 121.881 331.143C191.013 332.475 195.675 332.741 203.934 335.405 214.324 338.869 227.111 346.861 234.837 354.853 237.901 357.917 253.486 379.229 269.47 402.007 285.454 424.785 300.373 445.298 302.771 447.562 307.832 452.624 312.495 455.155 319.288 456.754 322.218 457.42 390.685 457.952 478.199 457.819 623.124 457.553 632.315 457.42 637.377 455.155Z" stroke="#FFFFFF" stroke-width="0.133207" stroke-linecap="butt" stroke-linejoin="miter" stroke-miterlimit="4" stroke-opacity="1" fill="#FFFFFF" fill-rule="nonzero" fill-opacity="1" transform="matrix(1 0 0 -1 299 701)"/></g></g></g></g></g></svg>