<svg width="76" height="75" xmlns="http://www.w3.org/2000/svg" xmlns:xlink="http://www.w3.org/1999/xlink" xml:space="preserve" overflow="hidden"><g transform="translate(-520 34)"><g><g><g><g><path d="M53.6645 67.1203C52.7973 66.6867 52.6094 66.1809 52.6094 64.1863L52.6094 62.4375 48.8949 62.4375C45.4262 62.4375 45.1371 62.423 44.6891 62.1484 43.8219 61.6137 43.6484 61.1367 43.6484 59.2289L43.6484 57.5234 39.934 57.5234C36.4941 57.5234 36.1762 57.4945 35.7426 57.2344 34.9043 56.7285 34.7742 56.3672 34.7164 54.4016L34.6586 52.6094 30.973 52.6094C26.9117 52.6094 26.6805 52.566 26.1602 51.6988 25.8855 51.2652 25.8711 50.9328 25.8711 45.5996L25.8711 39.9629 23.3852 39.9629C20.9281 39.9629 20.8559 39.9484 19.5117 39.4859 17.0402 38.6188 14.959 37.0145 13.3547 34.7453 12.9645 34.1961 11.6781 32.0426 10.4785 29.9613L8.31055 26.2035 7.37109 26.2758C6.24375 26.348 5.21758 25.9867 4.52383 25.2496 3.98906 24.6859 1.99453 21.2461 1.73438 20.4656 1.35859 19.3238 1.83555 17.6762 2.775 16.809 3.07852 16.5344 17.6617 8.03594 19.4395 7.11094 20.0176 6.80742 20.3645 6.73516 21.1738 6.73516 22.9227 6.73516 23.6598 7.31328 25.134 9.87148 26.4059 12.0684 26.5938 12.5164 26.5938 13.4848 26.5938 14.3953 26.348 15.118 25.7988 15.8406L25.4375 16.3176 26.1891 17.5895C27.0273 19.0203 28.068 20.1187 29.1375 20.6969 30.4672 21.4195 31.2621 21.5352 34.9043 21.5352 39.7605 21.5496 41.9863 21.7953 44.5156 22.6336 46.3078 23.2406 47.941 24.0789 53.9102 27.5332 57.0465 29.3543 62.2496 32.3461 65.4727 34.2105 68.9125 36.1906 71.4852 37.766 71.702 38.0117 72.1356 38.5176 72.4102 39.327 72.4102 40.0496 72.3957 41.7117 70.2422 43.6629 67.9441 44.082 66.6434 44.3133 64.6344 44.0387 63.1313 43.4316 62.8855 43.3305 62.8711 43.923 62.8711 54.5895 62.8711 65.2125 62.8566 65.8629 62.6109 66.3254 62.0906 67.2938 61.8016 67.3516 57.7402 67.3516 54.7195 67.3516 54.0547 67.3082 53.6645 67.1203ZM61.2523 65.7328C61.3824 65.6027 61.4258 62.8277 61.4258 54.127L61.4258 42.709 57.7402 40.859 54.0547 39.0234 54.0547 52.2914C54.0547 62.423 54.098 65.6027 54.2281 65.7328 54.4738 65.9785 61.0066 65.9785 61.2523 65.7328ZM52.6094 49.6465 52.6094 38.3008 49.7188 36.8555C48.1289 36.0605 46.7992 35.4102 46.7703 35.4102 46.727 35.4102 46.568 35.6992 46.4234 36.0461 46.2645 36.393 45.9031 36.9277 45.6141 37.2457L45.0938 37.8238 45.0938 49.2418C45.0938 57.9137 45.1371 60.6887 45.2672 60.8188 45.3973 60.9488 46.4234 60.9922 49.025 60.9922L52.6094 60.9922 52.6094 49.6465ZM43.6484 47.3484 43.6484 38.6043 43.1859 38.7488C42.9258 38.8211 41.2348 38.8789 39.4281 38.8789L36.1328 38.8789 36.1328 47.2039C36.1328 52.6527 36.1906 55.6156 36.2773 55.8035 36.4219 56.0637 36.6242 56.0781 40.0352 56.0781L43.6484 56.0781 43.6484 47.3484ZM34.6875 45.0215 34.6875 38.8789 32.2016 38.8789C30.048 38.8789 29.5422 38.9223 28.516 39.1969L27.3164 39.5293 27.3164 45.2527C27.3164 48.4035 27.3598 51.0195 27.4176 51.0629 27.4609 51.1207 29.123 51.1641 31.1031 51.1641L34.6875 51.1641 34.6875 45.0215ZM68.7824 42.3477C69.5918 41.9863 70.748 40.859 70.907 40.2664 71.0082 39.8328 70.907 39.3559 70.6324 38.9945 70.4156 38.7199 49.2129 26.4203 46.8426 25.2063 46.0187 24.7727 44.7324 24.2379 43.9953 23.9922 41.6395 23.2406 40.5121 23.1105 35.4102 22.9805 32.4328 22.9082 30.4961 22.807 30.1348 22.6914 28.0824 22.0699 26.1746 20.4656 24.9461 18.3555 24.5559 17.6762 24.2234 17.1125 24.209 17.0836 24.1801 17.0547 9.66914 25.3941 9.59688 25.4809 9.55352 25.5242 13.716 32.7074 14.2219 33.459 15.9273 36.0461 18.3699 37.8383 20.8992 38.373 22.8793 38.7922 25.452 38.5898 28.2125 37.7949L29.4699 37.4336 36.0895 37.4336C42.4344 37.4336 42.7379 37.4191 43.3594 37.1301 44.6602 36.5375 45.2961 35.5691 45.2961 34.1816 45.2961 32.8953 44.718 31.927 43.5762 31.3199 43.0125 31.0164 42.8102 31.002 37.6504 30.9586 34.1238 30.9297 32.2594 30.8574 32.1293 30.7563 31.8402 30.525 31.898 29.8023 32.216 29.6289 32.4039 29.5422 34.3406 29.4844 37.5492 29.4844 41.7262 29.4844 42.709 29.5277 43.3594 29.7156 45.0504 30.2215 46.1055 31.291 46.5969 32.9676L46.8281 33.748 54.9652 37.8238C59.4457 40.0785 63.3914 42.0152 63.7527 42.1453 65.675 42.8391 67.4527 42.9113 68.7824 42.3477ZM8.20938 24.5848C8.49844 24.4258 12.2852 22.2578 16.6066 19.7574 21.6219 16.8668 24.5848 15.0602 24.7727 14.8145 24.9316 14.5832 25.0762 14.1062 25.1195 13.6438 25.1773 12.9211 25.134 12.8055 24.1223 11.0277 23.5441 10.016 22.8648 8.97539 22.6191 8.71523 22.0988 8.19492 21.3039 7.97813 20.6102 8.19492 20.2488 8.31055 13.8461 11.9527 4.81289 17.1992 3.58438 17.9074 3.15078 18.4277 3.07852 19.3527 3.0207 19.9742 3.09297 20.1621 4.22031 22.1133 5.56445 24.4547 5.98359 24.8594 7.03867 24.8594 7.38555 24.8594 7.90586 24.7293 8.20938 24.5848Z" fill="#FFFFFF" fill-rule="nonzero" fill-opacity="1" transform="matrix(1 0 0 -1.01351 521 41)"/></g></g></g></g></g></svg>