<svg width="52" height="75" xmlns="http://www.w3.org/2000/svg" xmlns:xlink="http://www.w3.org/1999/xlink" xml:space="preserve" overflow="hidden"><g transform="translate(-544 37)"><g><g><g><g><path d="M36.985 46.2586C36.3873 45.9598 36.2578 45.6111 36.2578 44.2365L36.2578 43.0312 33.6978 43.0312C31.3072 43.0312 31.108 43.0213 30.7992 42.832 30.2016 42.4635 30.082 42.1348 30.082 40.8199L30.082 39.6445 27.5221 39.6445C25.1514 39.6445 24.9322 39.6246 24.6334 39.4453 24.0557 39.0967 23.966 38.8477 23.9262 37.493L23.8863 36.2578 21.3463 36.2578C18.5473 36.2578 18.3879 36.2279 18.0293 35.6303 17.84 35.3314 17.8301 35.1023 17.8301 31.4268L17.8301 27.542 16.1168 27.542C14.4234 27.542 14.3736 27.532 13.4473 27.2133 11.7439 26.6156 10.3096 25.51 9.20391 23.9461 8.93496 23.5676 8.04844 22.0834 7.22168 20.649L5.72754 18.0592 5.08008 18.109C4.30312 18.1588 3.5959 17.9098 3.11777 17.4018 2.74922 17.0133 1.37461 14.6426 1.19531 14.1047 0.936328 13.3178 1.26504 12.1822 1.9125 11.5846 2.12168 11.3953 12.1723 5.53828 13.3975 4.90078 13.7959 4.6916 14.035 4.6418 14.5928 4.6418 15.798 4.6418 16.3061 5.04023 17.3221 6.80332 18.1986 8.31738 18.3281 8.62617 18.3281 9.29355 18.3281 9.92109 18.1588 10.4191 17.7803 10.9172L17.5312 11.2459 18.0492 12.1225C18.627 13.1086 19.3441 13.8656 20.0812 14.2641 20.9977 14.7621 21.5455 14.8418 24.0557 14.8418 27.4025 14.8518 28.9365 15.0211 30.6797 15.5988 31.9148 16.0172 33.0404 16.5949 37.1543 18.9756 39.3158 20.2307 42.9018 22.2926 45.123 23.5775 47.4937 24.9422 49.2668 26.0279 49.4162 26.1973 49.715 26.5459 49.9043 27.1037 49.9043 27.6018 49.8943 28.7473 48.4102 30.092 46.8264 30.3809 45.9299 30.5402 44.5453 30.351 43.5094 29.9326 43.34 29.8629 43.3301 30.2713 43.3301 37.6225 43.3301 44.9437 43.3201 45.392 43.1508 45.7107 42.7922 46.3781 42.593 46.418 39.7939 46.418 37.7121 46.418 37.2539 46.3881 36.985 46.2586ZM42.2145 45.3023C42.3041 45.2127 42.334 43.3002 42.334 37.3037L42.334 29.4346 39.7939 28.1596 37.2539 26.8945 37.2539 36.0387C37.2539 43.0213 37.2838 45.2127 37.3734 45.3023 37.5428 45.4717 42.0451 45.4717 42.2145 45.3023ZM36.2578 34.2158 36.2578 26.3965 34.2656 25.4004C33.1699 24.8525 32.2535 24.4043 32.2336 24.4043 32.2037 24.4043 32.0941 24.6035 31.9945 24.8426 31.885 25.0816 31.6359 25.4502 31.4367 25.6693L31.0781 26.0678 31.0781 33.9369C31.0781 39.9135 31.108 41.826 31.1977 41.9156 31.2873 42.0053 31.9945 42.0352 33.7875 42.0352L36.2578 42.0352 36.2578 34.2158ZM30.082 32.632 30.082 26.6057 29.7633 26.7053C29.584 26.7551 28.4186 26.7949 27.1734 26.7949L24.9023 26.7949 24.9023 32.5324C24.9023 36.2877 24.9422 38.3297 25.002 38.4592 25.1016 38.6385 25.241 38.6484 27.5918 38.6484L30.082 38.6484 30.082 32.632ZM23.9062 31.0283 23.9062 26.7949 22.193 26.7949C20.7088 26.7949 20.3602 26.8248 19.6529 27.0141L18.8262 27.2432 18.8262 31.1877C18.8262 33.3592 18.8561 35.1621 18.8959 35.192 18.9258 35.2318 20.0713 35.2617 21.4359 35.2617L23.9062 35.2617 23.9062 31.0283ZM47.4041 29.1855C47.9619 28.9365 48.7588 28.1596 48.8684 27.7512 48.9381 27.4523 48.8684 27.1236 48.6791 26.8746 48.5297 26.6854 33.917 18.2086 32.2834 17.3719 31.7156 17.073 30.8291 16.7045 30.3211 16.5352 28.6975 16.0172 27.9205 15.9275 24.4043 15.8379 22.3523 15.7881 21.0176 15.7184 20.7686 15.6387 19.3541 15.2104 18.0393 14.1047 17.1926 12.6504 16.9236 12.1822 16.6945 11.7937 16.6846 11.7738 16.6646 11.7539 6.66387 17.5014 6.61406 17.5611 6.58418 17.591 9.45293 22.5416 9.80156 23.0596 10.977 24.8426 12.6604 26.0777 14.4035 26.4463 15.7682 26.7352 17.5412 26.5957 19.4438 26.0479L20.3104 25.7988 24.8725 25.7988C29.2453 25.7988 29.4545 25.7889 29.8828 25.5896 30.7793 25.1812 31.2176 24.5139 31.2176 23.5576 31.2176 22.6711 30.8191 22.0037 30.0322 21.5854 29.6437 21.3762 29.5043 21.3662 25.9482 21.3363 23.5178 21.3164 22.2328 21.2666 22.1432 21.1969 21.9439 21.0375 21.9838 20.5395 22.2029 20.4199 22.3324 20.3602 23.6672 20.3203 25.8785 20.3203 28.7572 20.3203 29.4346 20.3502 29.8828 20.4797 31.0482 20.8283 31.7754 21.5654 32.1141 22.7209L32.2734 23.2588 37.8814 26.0678C40.9693 27.6217 43.6887 28.9564 43.9377 29.0461 45.2625 29.5242 46.4877 29.574 47.4041 29.1855ZM5.65781 16.9436C5.85703 16.834 8.4668 15.3398 11.4451 13.6166 14.9016 11.6244 16.9436 10.3793 17.073 10.21 17.1826 10.0506 17.2822 9.72188 17.3121 9.40312 17.352 8.90508 17.3221 8.82539 16.6248 7.6002 16.2264 6.90293 15.7582 6.18574 15.5889 6.00645 15.2303 5.64785 14.6824 5.49844 14.2043 5.64785 13.9553 5.72754 9.54258 8.23769 3.31699 11.8535 2.47031 12.3416 2.17148 12.7002 2.12168 13.3377 2.08184 13.766 2.13164 13.8955 2.90859 15.2402 3.83496 16.8539 4.12383 17.1328 4.85098 17.1328 5.09004 17.1328 5.44863 17.0432 5.65781 16.9436Z" fill="#FFFFFF" fill-rule="nonzero" fill-opacity="1" transform="matrix(1 0 0 -1.47059 544 38)"/></g></g></g></g></g></svg>