<svg width="27" height="21" viewBox="0 0 27 21" fill="none" xmlns="http://www.w3.org/2000/svg">
<path d="M13.4389 0C13.3361 0.0190909 13.2525 0.0859091 13.2075 0.178182L12.3236 1.92818L10.2343 2.22727C10.0575 2.24955 9.93214 2.40864 9.95464 2.58364C9.96429 2.65682 9.99964 2.72364 10.0511 2.77455L11.5489 4.25727L11.2468 6.31591C11.2179 6.48773 11.3336 6.65318 11.5104 6.685C11.5779 6.69773 11.6486 6.685 11.7096 6.65636L13.4968 5.77182L15.2839 6.65636C15.4414 6.73591 15.6343 6.67227 15.7146 6.51636C15.7468 6.45591 15.7564 6.38591 15.7436 6.31909L15.4414 4.26045L16.9393 2.77773C17.0679 2.65682 17.0743 2.45636 16.9521 2.32909C16.9007 2.275 16.8332 2.24 16.7593 2.23364L14.67 1.93455L13.7861 0.184545C13.7282 0.0636364 13.5996 -0.00636364 13.4646 0.00636364C13.455 0.00636364 13.4454 0.00636364 13.4357 0.00636364L13.4389 0ZM13.5 1.03409L14.1718 2.36727C14.2168 2.46273 14.3068 2.52955 14.4129 2.54545L16.02 2.77455L14.8757 3.90727C14.8018 3.98045 14.7664 4.08227 14.7857 4.18727L15.0171 5.80682L13.6414 5.11955C13.5514 5.07818 13.4486 5.07818 13.3586 5.11955L11.9829 5.80682L12.2143 4.18727C12.2304 4.08545 12.1982 3.98045 12.1243 3.90727L10.98 2.77455L12.5871 2.54545C12.6932 2.52955 12.7832 2.46273 12.8282 2.36727L13.5 1.03409ZM22.4389 3.18182C22.3361 3.20091 22.2525 3.26773 22.2075 3.36L21.3236 5.11L19.2343 5.40909C19.0575 5.43136 18.9321 5.59045 18.9546 5.76545C18.9643 5.83864 18.9996 5.90545 19.0511 5.95636L20.5489 7.43909L20.2468 9.49773C20.2179 9.66955 20.3336 9.835 20.5104 9.86682C20.5779 9.87955 20.6486 9.86682 20.7096 9.83818L22.4968 8.95364L24.2839 9.83818C24.4414 9.91773 24.6343 9.85409 24.7146 9.69818C24.7468 9.63773 24.7564 9.56773 24.7436 9.50091L24.4414 7.44227L25.9393 5.95955C26.0679 5.83864 26.0743 5.63818 25.9521 5.51091C25.9007 5.45682 25.8332 5.42182 25.7593 5.41545L23.67 5.11636L22.7861 3.36636C22.7282 3.24545 22.5996 3.17545 22.4646 3.18818C22.455 3.18818 22.4454 3.18818 22.4357 3.18818L22.4389 3.18182ZM22.5 4.21591L23.1718 5.54909C23.2168 5.64455 23.3068 5.71136 23.4129 5.72727L25.02 5.95636L23.8757 7.08909C23.8018 7.16227 23.7664 7.26409 23.7857 7.36909L24.0171 8.98864L22.6414 8.30136C22.5514 8.26 22.4486 8.26 22.3586 8.30136L20.9829 8.98864L21.2143 7.36909C21.2304 7.26727 21.1982 7.16227 21.1243 7.08909L19.98 5.95636L21.5871 5.72727C21.6932 5.71136 21.7832 5.64455 21.8282 5.54909L22.5 4.21591ZM4.43893 6.36364C4.33607 6.38273 4.2525 6.44955 4.2075 6.54182L3.32357 8.29182L1.23429 8.59091C1.0575 8.61318 0.932143 8.77227 0.954643 8.94727C0.964286 9.02045 0.999643 9.08727 1.05107 9.13818L2.54893 10.6209L2.24679 12.6795C2.21786 12.8514 2.33357 13.0168 2.51036 13.0486C2.57786 13.0614 2.64857 13.0486 2.70964 13.02L4.49679 12.1355L6.28393 13.02C6.44143 13.0995 6.63429 13.0359 6.71464 12.88C6.74679 12.8195 6.75643 12.7495 6.74357 12.6827L6.44143 10.6241L7.93929 9.14136C8.06786 9.02045 8.07429 8.82 7.95214 8.69273C7.90071 8.63864 7.83321 8.60364 7.75929 8.59727L5.67 8.29818L4.78607 6.54818C4.72821 6.42727 4.59964 6.35727 4.46464 6.37C4.455 6.37 4.44536 6.37 4.43571 6.37L4.43893 6.36364ZM4.5 7.39773L5.17179 8.73091C5.21679 8.82636 5.30679 8.89318 5.41286 8.90909L7.02 9.13818L5.87571 10.2709C5.80179 10.3441 5.76643 10.4459 5.78571 10.5509L6.01714 12.1705L4.64143 11.4832C4.55143 11.4418 4.44857 11.4418 4.35857 11.4832L2.98286 12.1705L3.21429 10.5509C3.23036 10.4491 3.19821 10.3441 3.12429 10.2709L1.98 9.13818L3.58714 8.90909C3.69321 8.89318 3.78321 8.82636 3.82821 8.73091L4.5 7.39773ZM10.2246 8.59091C10.0704 8.61955 9.96107 8.75318 9.96429 8.90909V20.3636H8.03571V15.2727C8.03571 15.0977 7.89107 14.9545 7.71429 14.9545H1.28571C1.10893 14.9545 0.964286 15.0977 0.964286 15.2727V20.3636H0V21H27V20.3636H26.0357V12.0909C26.0357 11.9159 25.8911 11.7727 25.7143 11.7727H19.2857C19.1089 11.7727 18.9643 11.9159 18.9643 12.0909V20.3636H17.0357V8.90909C17.0357 8.73409 16.8911 8.59091 16.7143 8.59091H10.2857C10.2857 8.59091 10.2664 8.59091 10.2568 8.59091C10.2471 8.59091 10.2375 8.59091 10.2279 8.59091H10.2246ZM10.6071 9.22727H16.3929V20.2045H10.6071V9.22727ZM19.6071 12.4091H25.3929V20.2045H19.6071V12.4091ZM1.60714 15.5909H7.39286V20.2045H1.60714V15.5909Z" fill="white"/>
</svg>
