<svg width="54" height="51" xmlns="http://www.w3.org/2000/svg" xmlns:xlink="http://www.w3.org/1999/xlink" xml:space="preserve" overflow="hidden"><defs><clipPath id="clip0"><rect x="310" y="-13" width="54" height="51"/></clipPath><clipPath id="clip1"><rect x="310" y="-13" width="54" height="51"/></clipPath><clipPath id="clip2"><rect x="311" y="-13" width="52" height="51"/></clipPath><clipPath id="clip3"><rect x="311" y="-13" width="52" height="51"/></clipPath><clipPath id="clip4"><rect x="311" y="-13" width="52" height="51"/></clipPath></defs><g clip-path="url(#clip0)" transform="translate(-310 13)"><g clip-path="url(#clip1)"><g clip-path="url(#clip2)"><g clip-path="url(#clip3)"><g clip-path="url(#clip4)"><path d="M28.299 50.7211 27.9902 50.4223 27.9902 39.4951 27.9902 28.568 28.2791 28.2791 28.568 27.9902 39.4951 27.9902 50.4223 27.9902 50.7111 28.2791C50.9602 28.5381 51 28.6477 51 29.1557 51 32.652 49.7449 36.9949 47.8025 40.2023 47.2248 41.1686 46.1889 42.6029 45.9 42.8619 45.6211 43.101 45.2027 43.0711 44.9437 42.8021 44.5652 42.4037 44.6648 42.085 45.4717 40.9893 47.7627 37.9014 49.0875 34.3354 49.4561 30.2115L49.5158 29.4844 39.5051 29.4844 29.4844 29.4844 29.4844 39.5051 29.4844 49.5158 30.2115 49.4561C31.367 49.3564 33.3393 49.0078 34.2557 48.7488 37.0646 47.952 39.8637 46.4777 42.065 44.6449 42.7922 44.0273 43.1906 43.9676 43.5193 44.3859 43.9775 44.9637 43.7684 45.2725 42.0252 46.5773 38.4592 49.227 34.2955 50.7211 29.8031 50.9701L28.5979 51.0299 28.299 50.7211Z" fill="#FFFFFF" fill-rule="nonzero" fill-opacity="1" transform="matrix(1.01961 0 0 -1 311 38)"/><path d="M22.8604 44.5254C14.7521 43.9078 7.55039 38.8676 4.2334 31.4865 3.66562 30.2215 3.07793 28.5381 2.83887 27.4424 2.57988 26.3168 2.65957 26.3965 1.93242 26.3965 1.56387 26.3965 1.16543 26.3367 1.01602 26.257 0.657422 26.0678 0.239062 25.6096 0.10957 25.2709-0.0398437 24.8824-0.0398437 10.5785 0.10957 10.19 0.239062 9.84141 0.647461 9.40312 1.0459 9.18398 1.29492 9.04453 1.75312 9.01465 4.0043 8.98477L6.65391 8.95488 7.14199 8.3373C7.79941 7.49062 9.07441 6.16582 9.95098 5.40879 10.7877 4.70156 11.1064 4.62187 11.5049 5.03027 11.9531 5.47852 11.8236 5.76738 10.7379 6.70371 10.3195 7.07227 9.66211 7.71973 9.27363 8.13809L8.56641 8.91504 11.9332 8.96484C15.6486 9.02461 15.6088 9.01465 16.2164 9.70195 16.3857 9.90117 16.5551 10.2 16.585 10.3793 16.6148 10.5586 16.6348 13.9852 16.6148 17.9895L16.585 25.2709 16.2961 25.6395C15.6885 26.4363 16.077 26.3965 9.7916 26.3965 4.74141 26.3965 4.18359 26.4164 4.18359 26.5559 4.18359 26.8049 4.55215 28.1596 4.86094 29.0859 7.15195 35.7697 12.8396 40.9195 19.7227 42.5232 20.8781 42.8021 22.4918 43.0312 23.209 43.0312L23.8066 43.0312 23.8066 32.5125 23.8066 21.9937 24.0955 21.7348C24.2449 21.5854 28.04 18.7066 32.5025 15.3398 36.975 11.973 40.6307 9.18398 40.6406 9.14414 40.6406 9.01465 38.6484 7.00254 37.8018 6.28535 33.0205 2.29102 26.6953 0.697266 20.4398 1.90254 18.9258 2.19141 16.9037 2.88867 15.31 3.65566 13.8059 4.38281 13.5568 4.4127 13.258 3.86484 12.9193 3.25723 13.4074 2.82891 15.4395 1.93242 22.94-1.36465 31.4467-0.378516 38.0209 4.54219 38.9971 5.2793 40.9793 7.1918 41.7463 8.14805 42.4236 8.98477 42.5232 9.44297 42.1148 9.90117 41.9854 10.0307 38.3695 12.7998 34.0664 16.0371 29.7633 19.2844 26.0379 22.0934 25.7789 22.2926L25.3008 22.6512 25.2809 33.3393 25.251 44.0273 24.992 44.2863C24.6732 44.5951 24.3047 44.635 22.8604 44.5254ZM15.1207 17.7803C15.1406 11.216 15.1307 10.698 14.9713 10.5785 14.7521 10.4191 1.99219 10.3992 1.6834 10.5586 1.49414 10.6582 1.49414 10.8475 1.49414 17.7205 1.49414 21.5953 1.52402 24.8027 1.56387 24.8326 1.59375 24.8725 4.66172 24.8924 8.35723 24.8824L15.0908 24.8525 15.1207 17.7803Z" fill="#FFFFFF" fill-rule="nonzero" fill-opacity="1" transform="matrix(1.01961 0 0 -1 311 38)"/><path d="M3.63574 22.4619C3.49629 22.3324 3.38672 22.1033 3.38672 21.9639 3.38672 21.8244 3.49629 21.5953 3.63574 21.4658L3.8748 21.2168 6.80332 21.2168C9.62227 21.2168 9.7418 21.2268 10.0008 21.426 10.3295 21.685 10.3594 22.2129 10.0605 22.5117 9.87129 22.701 9.73184 22.7109 6.87305 22.7109L3.8748 22.7109 3.63574 22.4619Z" fill="#FFFFFF" fill-rule="nonzero" fill-opacity="1" transform="matrix(1.01961 0 0 -1 311 38)"/><path d="M3.63574 19.1748C3.33691 18.876 3.31699 18.5373 3.5959 18.1887L3.79512 17.9297 8.31738 17.9297 12.8396 17.9297 13.0389 18.1887C13.3178 18.5373 13.2979 18.876 12.999 19.1748L12.76 19.4238 8.31738 19.4238 3.8748 19.4238 3.63574 19.1748Z" fill="#FFFFFF" fill-rule="nonzero" fill-opacity="1" transform="matrix(1.01961 0 0 -1 311 38)"/><path d="M3.63574 16.585C3.33691 16.2861 3.31699 15.9475 3.5959 15.5988L3.79512 15.3398 8.31738 15.3398 12.8396 15.3398 13.0389 15.5988C13.3178 15.9475 13.2979 16.2861 12.999 16.585L12.76 16.834 8.31738 16.834 3.8748 16.834 3.63574 16.585Z" fill="#FFFFFF" fill-rule="nonzero" fill-opacity="1" transform="matrix(1.01961 0 0 -1 311 38)"/><path d="M3.63574 13.9951C3.33691 13.6963 3.31699 13.3576 3.5959 13.009L3.79512 12.75 8.31738 12.75 12.8396 12.75 13.0389 13.009C13.3178 13.3576 13.2979 13.6963 12.999 13.9951L12.76 14.2441 8.31738 14.2441 3.8748 14.2441 3.63574 13.9951Z" fill="#FFFFFF" fill-rule="nonzero" fill-opacity="1" transform="matrix(1.01961 0 0 -1 311 38)"/><path d="M28.6975 25.2609C28.2492 25.0119 28.0799 24.4541 28.299 23.9859 28.3986 23.7469 44.8043 11.3057 45.3023 11.0865 45.6111 10.9371 45.9896 11.0068 46.2586 11.2359 46.6371 11.5746 47.8523 13.5369 48.5197 14.8916 49.725 17.3619 50.4521 20.0115 50.7012 22.9002 50.8406 24.4342 50.7908 24.7828 50.4422 25.1115L50.1832 25.3506 39.5648 25.3705C30.8689 25.3904 28.8967 25.3705 28.6975 25.2609ZM49.2668 23.5875C49.2369 23.4082 49.1871 22.9002 49.1572 22.4619 48.9879 20.2207 48.0316 17.0232 46.9459 15.041 46.2984 13.8457 45.5713 12.75 45.4717 12.7898 45.4119 12.8098 43.8879 13.9453 42.085 15.31 40.2721 16.6746 37.0547 19.1051 34.9131 20.7088 32.7814 22.3225 30.9586 23.6971 30.8789 23.7668 30.7594 23.8863 32.2037 23.9062 40.023 23.9062L49.3166 23.9062 49.2668 23.5875Z" fill="#FFFFFF" fill-rule="nonzero" fill-opacity="1" transform="matrix(1.01961 0 0 -1 311 38)"/></g></g></g></g></g></svg>