<svg width="19" height="21" viewBox="0 0 19 21" fill="none" xmlns="http://www.w3.org/2000/svg">
<path d="M2.6396 13.5568C2.6396 13.5568 2.65335 13.5683 2.66022 13.5752C2.72209 13.6371 2.78625 13.6876 2.85499 13.7335L4.55973 15.1149C5.13714 15.583 5.86578 15.8423 6.61504 15.8423H9.67854C10.1895 15.8423 10.6753 16.0029 11.0854 16.3081L11.2435 16.4252C11.1221 16.634 11.0579 16.8726 11.0602 17.1227C11.0648 17.4876 11.2091 17.8295 11.4681 18.0842L13.4569 20.0346C13.7113 20.2848 14.0504 20.4224 14.4101 20.4224C14.7699 20.4224 15.1273 20.2779 15.3839 20.014L18.6124 16.7097C19.1371 16.1727 19.1279 15.3077 18.5918 14.7799L16.6029 12.8317C16.3486 12.5816 16.0095 12.4439 15.6497 12.4439C15.3954 12.4439 15.1548 12.5128 14.944 12.6413L13.3263 11.0924C12.9689 10.7505 12.5014 10.5623 12.0065 10.5623H11.7361C11.8461 10.0735 11.9057 9.56872 11.9057 9.05701C11.9057 6.59714 10.5676 4.2933 8.40228 3.00371L9.13321 0.289127C9.15154 0.220287 9.13779 0.146858 9.09425 0.0894916C9.05072 0.0321252 8.98427 0 8.91324 0H4.97904C4.90801 0 4.84156 0.0321252 4.79803 0.0894916C4.75449 0.146858 4.74074 0.220287 4.75907 0.289127L5.4923 3.006C5.44647 3.03354 5.40523 3.06337 5.36169 3.0909C5.29524 3.13221 5.23109 3.17351 5.16693 3.21481C5.09819 3.26071 5.03403 3.3066 4.96758 3.35479C4.90572 3.39839 4.84385 3.44428 4.78428 3.49017C4.72012 3.54066 4.65826 3.59114 4.5941 3.64162C4.53682 3.68981 4.47724 3.738 4.41996 3.78618C4.35809 3.83896 4.30081 3.89403 4.24124 3.9491C4.18624 3.99959 4.13125 4.05007 4.07855 4.10285C4.02127 4.16021 3.96628 4.21987 3.91129 4.27724C3.86088 4.33002 3.81047 4.38509 3.76006 4.44016C3.70736 4.49982 3.65466 4.56407 3.60425 4.62603C3.55842 4.68339 3.5103 4.73847 3.46677 4.79583C3.41636 4.86008 3.37053 4.92663 3.32242 4.99088C3.28117 5.05054 3.23764 5.10791 3.19639 5.16757C3.15057 5.23411 3.10703 5.30295 3.06579 5.37409C3.02684 5.43375 2.98788 5.49341 2.95351 5.55536C2.91227 5.6265 2.87332 5.69763 2.83436 5.77106C2.79999 5.83302 2.76562 5.89497 2.73355 5.95693C2.69688 6.03036 2.66252 6.10608 2.62815 6.18181C2.59836 6.24376 2.56857 6.30801 2.54108 6.37226C2.509 6.45028 2.47921 6.5283 2.44942 6.60632C2.42422 6.67057 2.39901 6.73252 2.3761 6.79677C2.3486 6.87709 2.3234 6.95969 2.2982 7.0423C2.27757 7.10655 2.25695 7.16851 2.23862 7.23276C2.21571 7.31766 2.19509 7.40486 2.17676 7.48976C2.16301 7.55172 2.14468 7.61367 2.13093 7.67792C2.1126 7.76741 2.09885 7.8592 2.08281 7.95099C2.07365 8.01065 2.0599 8.07031 2.05302 8.13226C2.03928 8.23323 2.03011 8.33649 2.02095 8.43975C2.01636 8.49023 2.00949 8.54071 2.00491 8.59349C1.99345 8.74723 1.98887 8.90327 1.98887 9.05931C1.98887 9.17863 1.99345 9.29795 2.00032 9.41498C1.4252 9.19928 0.751553 9.30942 0.272667 9.75918C0.0985268 9.92439 0 10.1562 0 10.3925C0 10.6151 0.0824876 10.8262 0.236006 10.9891L2.64418 13.5591L2.6396 13.5568ZM16.2844 13.1576L18.2733 15.108C18.6307 15.4568 18.6353 16.0328 18.287 16.3884L15.0586 19.6927C14.8867 19.8671 14.6576 19.9635 14.4124 19.9635C14.1672 19.9635 13.9496 19.8717 13.78 19.7065L11.7911 17.7561C11.6193 17.5885 11.5231 17.3614 11.5208 17.1181C11.5185 16.8749 11.6101 16.6477 11.7774 16.4756L15.0059 13.1713C15.1777 12.9969 15.4068 12.9006 15.652 12.9006C15.8903 12.9006 16.1149 12.9923 16.2844 13.1576ZM5.27691 0.456637H8.61308L7.96005 2.88209H5.92994L5.27691 0.456637ZM2.44484 9.05472C2.44484 8.61414 2.49067 8.17816 2.58003 7.75365C2.96268 5.92939 4.13354 4.30937 5.82454 3.34102H8.07462C10.1574 4.53883 11.4497 6.72105 11.4497 9.05472C11.4497 9.56642 11.3856 10.0712 11.2687 10.56H10.1964C9.80456 10.56 9.41275 10.6839 9.09425 10.9111L8.51913 11.3172H5.83599C5.45564 11.3172 5.1211 11.5008 4.90572 11.7831L4.05564 11.2301C4.05564 11.2301 4.05335 11.2301 4.05106 11.2301C4.05106 11.2301 4.05106 11.2301 4.04876 11.2278L3.78297 11.0671L2.62356 9.82802C2.57774 9.77753 2.52733 9.73393 2.47692 9.69034C2.4563 9.48152 2.44255 9.26812 2.44255 9.05472H2.44484ZM0.584287 10.0873C1.01047 9.68804 1.64975 9.65821 2.10802 9.98176C2.17446 10.0277 2.23633 10.0804 2.29132 10.1424L3.47364 11.4044C3.47364 11.4044 3.49426 11.4182 3.50343 11.4251C3.5103 11.4297 3.51489 11.4389 3.52405 11.4435L3.81047 11.6156L4.70408 12.1961C4.67888 12.2902 4.66284 12.3866 4.66284 12.4875C4.66284 13.1346 5.18984 13.6624 5.83599 13.6624H9.00031C9.12633 13.6624 9.22944 13.5591 9.22944 13.4329C9.22944 13.3067 9.12633 13.2035 9.00031 13.2035H5.83599C5.44189 13.2035 5.1211 12.8822 5.1211 12.4875C5.1211 12.0928 5.44189 11.7716 5.83599 11.7716H8.59016C8.59016 11.7716 8.6062 11.7693 8.61308 11.767C8.62912 11.767 8.64286 11.7624 8.65661 11.7578C8.67265 11.7532 8.68411 11.7463 8.69786 11.7395C8.70473 11.7349 8.7116 11.7349 8.72077 11.7303L9.35546 11.2805C9.59834 11.1084 9.89393 11.0144 10.1918 11.0144H12.0065C12.3823 11.0144 12.7397 11.1566 13.0101 11.4159L14.5911 12.9304L11.5299 16.0626L11.3581 15.9341C10.8677 15.5715 10.2857 15.3788 9.67854 15.3788H6.61504C5.97118 15.3788 5.34565 15.1562 4.84844 14.7546L2.96039 13.2241L0.565956 10.6679C0.492634 10.5898 0.453682 10.4912 0.453682 10.3833C0.453682 10.2686 0.499508 10.1607 0.581996 10.0827L0.584287 10.0873Z" fill="white"/>
<path d="M6.90605 8.11157H6.945C7.1306 8.11157 7.30474 8.20106 7.41472 8.35022C7.5247 8.49937 7.55449 8.68753 7.49721 8.86651C7.43763 9.05697 7.27266 9.20842 7.08019 9.25431C7.03665 9.26349 6.99083 9.27037 6.94729 9.27037C6.69525 9.27037 6.4707 9.10975 6.39279 8.8711C6.363 8.77932 6.27364 8.71736 6.17282 8.71736C6.09721 8.71736 6.02389 8.75408 5.97806 8.81833C5.94598 8.86192 5.87495 8.96289 5.89328 9.02026C5.98952 9.31627 6.29426 9.58015 6.53714 9.70177L6.6013 9.73389V10.1561C6.6013 10.2685 6.80294 10.3925 6.945 10.3925C7.08706 10.3925 7.2887 10.2708 7.2887 10.1561V9.72931L7.35515 9.69947C7.56824 9.6031 7.85007 9.37363 7.96693 9.10057C8.09524 8.79538 8.05171 8.4007 7.85007 8.04503C7.69197 7.76278 7.33911 7.57462 6.97708 7.57462H6.94271C6.72045 7.57462 6.55777 7.4989 6.45695 7.34516C6.34926 7.17994 6.33093 6.99637 6.40883 6.8128C6.47986 6.64758 6.63109 6.52596 6.81669 6.48696C6.85106 6.48007 6.88313 6.48007 6.91292 6.48007H6.93813C7.19017 6.48007 7.41243 6.6407 7.49262 6.87934C7.52241 6.97342 7.61177 7.03538 7.71259 7.03538C7.78821 7.03538 7.86153 6.99866 7.90735 6.93441C7.94402 6.88393 8.01276 6.78756 7.99672 6.73478C7.88902 6.41353 7.5522 6.15423 7.35285 6.06015L7.2887 6.02802V5.59892C7.2887 5.48419 7.08706 5.36487 6.945 5.36487C6.80294 5.36487 6.6013 5.48649 6.6013 5.59892V6.03032L6.53256 6.06015C6.31489 6.15652 6.03076 6.38829 5.9162 6.67053C5.78788 6.98949 5.84058 7.36122 6.06513 7.71689C6.22323 7.96701 6.53714 8.11616 6.90376 8.11616L6.90605 8.11157Z" fill="white"/>
</svg>
