<svg width="512" height="512" xmlns="http://www.w3.org/2000/svg" xmlns:xlink="http://www.w3.org/1999/xlink" xml:space="preserve" overflow="hidden"><g transform="translate(-384 -104)"><g><path d="M674.426 529.081C673.507 532.047 670.773 533.953 667.818 533.953 667.142 533.953 666.449 533.852 665.768 533.64 657.101 530.951 648.444 528.172 639.809 525.401 629.178 521.987 618.588 518.588 608.075 515.39 604.417 514.277 602.359 510.413 603.471 506.757 604.584 503.095 608.471 501.039 612.102 502.151 622.683 505.369 633.341 508.791 644.039 512.225 652.629 514.982 661.246 517.748 669.868 520.423 673.516 521.556 675.556 525.432 674.426 529.081ZM762.02 540.971C745.263 539.566 726.759 536.198 705.448 530.676 701.754 529.719 697.971 531.937 697.016 535.638 696.057 539.338 698.282 543.113 701.98 544.073 724.052 549.794 743.318 553.289 760.867 554.76 761.061 554.776 761.259 554.785 761.453 554.785 765.012 554.785 768.034 552.055 768.34 548.443 768.655 544.635 765.831 541.288 762.02 540.971ZM575.818 492.106C553.381 486.687 534.007 483.888 516.597 483.545 516.552 483.543 516.507 483.543 516.457 483.543 512.7 483.543 509.619 486.552 509.543 490.327 509.471 494.147 512.507 497.304 516.327 497.379 532.723 497.703 551.12 500.377 572.566 505.557 573.116 505.69 573.661 505.753 574.197 505.753 577.319 505.753 580.152 503.625 580.918 500.456 581.813 496.741 579.529 493.002 575.818 492.106ZM555.137 246.489C555.137 200.671 592.412 163.397 638.227 163.397 684.047 163.397 721.322 200.672 721.322 246.489 721.322 292.306 684.047 329.581 638.227 329.581 592.412 329.581 555.137 292.306 555.137 246.489ZM568.975 246.489C568.975 284.676 600.043 315.744 638.227 315.744 676.416 315.744 707.484 284.676 707.484 246.489 707.484 208.302 676.416 177.234 638.227 177.234 600.043 177.234 568.975 208.302 568.975 246.489ZM892.908 613.149C891.606 614.94 889.525 616 887.309 616L392.691 616C390.475 616 388.394 614.939 387.092 613.149 385.79 611.356 385.425 609.05 386.11 606.944L470.39 347.559C471.318 344.708 473.976 342.777 476.971 342.777L532.765 342.777 531.268 340.559C513.696 314.525 495.736 282.989 495.736 246.491 495.736 167.921 559.66 104 638.227 104 716.794 104 780.718 167.921 780.718 246.491 780.718 282.996 762.759 314.529 745.191 340.559L743.694 342.777 803.029 342.777C806.025 342.777 808.682 344.707 809.61 347.559L893.889 606.944C894.574 609.05 894.209 611.356 892.908 613.149ZM798.002 356.615 789.385 356.615C786.379 364.125 786.206 372.553 789.011 380.174 789.889 382.555 789.394 385.224 787.718 387.129 779.371 396.645 777.204 409.809 782.074 421.485 785.169 428.902 790.853 434.913 798.083 438.411 800.286 439.476 801.763 441.629 801.966 444.071 802.245 447.49 803.065 450.839 804.394 454.03 809.837 467.068 822.621 474.879 836.214 474.218ZM542.736 332.82 638.227 474.324 733.722 332.82C750.943 307.3 766.88 279.178 766.88 246.491 766.88 175.552 709.168 117.838 638.227 117.838 567.286 117.838 509.574 175.552 509.574 246.491 509.574 279.173 525.511 307.297 542.736 332.82ZM402.214 602.162 523.305 602.162C518.552 587.977 504.615 578.531 489.2 579.935 486.632 580.169 484.223 578.996 482.817 576.885 475.781 566.356 463.619 560.862 451.092 562.543 443.128 563.611 435.853 567.545 430.606 573.624 429.002 575.48 426.556 576.363 424.129 575.91 419.666 575.1 415.04 575.291 410.602 576.349ZM877.786 602.162 856.807 537.597C838.712 547.064 819.43 552.717 797.993 554.741 797.772 554.764 797.552 554.773 797.335 554.773 793.808 554.773 790.794 552.088 790.457 548.505 790.097 544.701 792.889 541.325 796.696 540.967 817.124 539.037 835.387 533.53 852.466 524.237L840.595 487.702C838.57 487.965 836.552 488.12 834.552 488.12 816.084 488.122 799.048 477.152 791.624 459.359 790.237 456.028 789.241 452.573 788.651 449.041 779.998 443.935 773.201 436.158 769.3 426.811 762.904 411.462 765.057 394.306 774.804 381.124 772.617 373.092 772.669 364.613 774.834 356.615L734.356 356.615 643.962 490.563C642.678 492.471 640.525 493.613 638.228 493.613 635.931 493.613 633.778 492.471 632.494 490.563L542.104 356.615 481.998 356.615 432.961 507.534C446.954 497.669 462.165 490.879 479.052 487.096 482.791 486.263 486.484 488.61 487.318 492.337 488.151 496.064 485.804 499.765 482.079 500.601 460.408 505.453 441.73 515.761 424.983 532.086L415.363 561.692C417.833 561.537 420.311 561.525 422.772 561.765 429.943 554.724 439.213 550.173 449.254 548.826 465.731 546.619 481.74 553.126 491.957 565.959 492.061 565.957 492.16 565.957 492.263 565.957 513.998 565.957 532.821 580.968 537.67 602.162Z" fill="#FFFFFF" fill-rule="nonzero" fill-opacity="1"/></g></g></svg>