<svg width="513" height="512" xmlns="http://www.w3.org/2000/svg" xmlns:xlink="http://www.w3.org/1999/xlink" xml:space="preserve" overflow="hidden"><g transform="translate(-397 -16)"><g><g><g><g><path d="M885.43 182.74C885.796 180.512 885.987 178.258 886 176 885.967 146.753 868.269 120.424 841.2 109.35 766.638 23.577 643.338-0.5821 541.92 50.71 516.926 19.8069 471.613 15.0163 440.71 40.0098 423.807 53.6808 413.989 74.2602 414 96 414 109.35 421.54 128.42 436.45 152.83 370.706 272.983 414.814 423.682 534.967 489.425 655.12 555.169 805.819 511.061 871.562 390.909 906.567 326.933 911.64 250.793 885.43 182.74ZM870 176C869.971 177.954 869.767 179.902 869.39 181.82 869.37 181.89 869.36 181.98 869.34 182.06 864.45 207.57 832.36 252.19 814 275.31 794.09 250.24 758 199.86 758 176 758 145.072 783.072 120 814 120 844.928 120 870 145.072 870 176ZM430 96C430 65.0721 455.072 40 486 40 516.928 40 542 65.0721 542 96 542 119.86 505.91 170.24 486 195.31 466.09 170.24 430 119.86 430 96ZM456.34 386.34C455.332 387.358 454.617 388.63 454.27 390.02 414.227 322.23 411.268 238.766 446.41 168.31 446.73 168.79 447.05 169.26 447.38 169.75 463.42 193.39 479.2 212.33 479.86 213.13 482.692 216.521 487.737 216.974 491.128 214.142 491.495 213.835 491.834 213.497 492.14 213.13 492.8 212.33 508.58 193.39 524.62 169.75 525.687 168.17 526.73 166.61 527.75 165.07L534 171.31 534 188.69 528.34 194.34C525.22 197.468 525.22 202.532 528.34 205.66L552.34 229.66C553.218 230.539 554.29 231.2 555.47 231.59L575.68 238.32 581.57 256 574.59 276.93 569.06 288 550 288C548.758 288.001 547.533 288.289 546.42 288.84L498.42 312.84C494.466 314.819 492.864 319.63 494.844 323.584 495.228 324.352 495.733 325.053 496.34 325.66L518 347.31 518 356.69 505.26 369.42 494 375.06 481.58 368.84C478.497 367.309 474.781 367.912 472.34 370.34ZM654 504C635.021 504.006 616.114 501.685 597.7 497.09L615.89 488 638 488C639.242 487.999 640.467 487.711 641.58 487.16L657.58 479.16C658.346 478.77 659.048 478.264 659.66 477.66L666.32 470.99 683.84 465.15 696.34 477.66C697.842 479.159 699.878 480.001 702 480L718 480C720.122 480.001 722.158 479.159 723.66 477.66L742 459.31 752.34 469.66C752.949 470.267 753.651 470.773 754.42 471.16L764.42 476.15C730.516 494.508 692.555 504.083 654 504ZM818.05 436.05C806.681 447.424 794.172 457.598 780.72 466.41L762.74 457.42 747.66 442.34C744.532 439.22 739.468 439.22 736.34 442.34L714.69 464 705.31 464 691.66 450.34C689.515 448.198 686.345 447.451 683.47 448.41L659.47 456.41C658.29 456.8 657.218 457.461 656.34 458.34L649.26 465.42 636.11 472 614 472C612.758 472.001 611.533 472.289 610.42 472.84L575.46 490.33C537.706 476.74 504.125 453.586 478 423.13L478 408C477.999 406.758 477.711 405.533 477.16 404.42L471.73 393.58 479.58 385.73 490.42 391.16C492.675 392.28 495.325 392.28 497.58 391.16L513.58 383.16C514.346 382.77 515.048 382.264 515.66 381.66L531.66 365.66C533.159 364.158 534.001 362.122 534 360L534 344C534.001 341.878 533.159 339.842 531.66 338.34L515.66 322.34 515.5 322.19 551.89 304 574 304C577.031 304 579.802 302.289 581.16 299.58L589.16 283.58C589.328 283.241 589.472 282.89 589.59 282.53L597.59 258.53C598.14 256.888 598.14 255.112 597.59 253.47L589.59 229.47C588.792 227.082 586.918 225.208 584.53 224.41L562.32 217.01 545.31 200 547.66 197.66C549.159 196.158 550.001 194.122 550 192L550 168C550.001 165.878 549.159 163.842 547.66 162.34L536.53 151.21C550.78 127.58 558 109.05 558 96 558.009 84.9927 555.48 74.1315 550.61 64.26 610.192 34.657 679.607 32.0246 741.26 57.03L689.76 89.22C686.626 91.1759 685.241 95.0254 686.41 98.53L693.36 119.39 686.84 132.42C685.897 134.32 685.743 136.516 686.41 138.53L694.41 162.53C694.528 162.89 694.672 163.241 694.84 163.58L701.06 176 695.42 187.26 688.34 194.34C686.841 195.842 685.999 197.878 686 200L686 214.7 679.28 234.87 657.98 249.07 642.42 256.84C640.522 257.791 639.08 259.456 638.41 261.47L630.41 285.47C630.139 286.286 630.001 287.14 630 288L630 296C630.001 297.242 630.289 298.467 630.84 299.58L638.84 315.58C639.791 317.478 641.456 318.92 643.47 319.59L667.47 327.59C668.746 328.012 670.107 328.108 671.43 327.87L755.31 312.62 768.34 325.66C770.331 327.642 773.214 328.439 775.94 327.76L803.55 320.86 808.34 325.66C808.952 326.264 809.654 326.77 810.42 327.16L825.26 334.58 832.34 341.66C834.781 344.088 838.497 344.691 841.58 343.16L855.89 336 858.69 336 863.65 340.96 871.27 353.66C859.625 384.613 841.477 412.708 818.05 436.05ZM876.86 331.88C876.52 331.322 876.118 330.806 875.66 330.34L867.66 322.34C866.158 320.841 864.122 319.999 862 320L854 320C852.758 320.001 851.533 320.289 850.42 320.84L839.58 326.27 835.66 322.34C835.048 321.736 834.346 321.23 833.58 320.84L818.74 313.42 811.66 306.34C809.669 304.358 806.786 303.561 804.06 304.24L776.45 311.14 763.66 298.34C761.8 296.488 759.153 295.663 756.57 296.13L670.58 311.76 651.67 305.46 646 294.11 646 289.3 652.54 269.67 665.58 263.16C665.87 263.01 666.16 262.84 666.44 262.66L690.44 246.66C691.92 245.672 693.029 244.219 693.59 242.53L701.59 218.53C701.861 217.714 701.999 216.86 702 216L702 203.31 707.66 197.66C708.264 197.048 708.77 196.346 709.16 195.58L717.16 179.58C718.28 177.325 718.28 174.675 717.16 172.42L709.41 156.93 702.64 136.61 709.16 123.58C710.103 121.68 710.257 119.484 709.59 117.47L703.58 99.45 758.73 64.98C778.955 75.2213 797.572 88.3672 813.99 104 774.248 104.05 742.045 136.258 742 176 742 192.29 753.23 217.1 775.38 249.75 791.42 273.39 807.2 292.33 807.86 293.13 810.692 296.521 815.737 296.974 819.128 294.142 819.495 293.835 819.834 293.497 820.14 293.13 820.8 292.33 836.58 273.39 852.62 249.75 863.33 233.96 871.473 220.03 877.05 207.96 888.72 248.945 888.982 292.337 877.81 333.46Z" fill="#FFFFFF" fill-rule="nonzero" fill-opacity="1"/><path d="M622 392 601.313 392 587.657 378.343C586.157 376.843 584.122 376 582 376L566 376C562.97 376 560.2 377.712 558.845 380.422L542.845 412.422C541.719 414.674 541.719 417.326 542.845 419.578L550.845 435.578C551.794 437.476 553.457 438.919 555.47 439.59L579.47 447.59C583.247 448.849 587.375 447.139 589.155 443.578L594.055 433.783 611.472 439.59C614.347 440.548 617.516 439.8 619.659 437.657L627.659 429.657C629.159 428.156 630.001 426.121 630 424L630 400C630 395.582 626.418 392 622 392ZM614 420.687 611.839 422.847 592.53 416.41C588.753 415.151 584.625 416.861 582.845 420.422L577.945 430.217 563.672 425.458 558.944 416 570.944 392 578.687 392 592.343 405.657C593.843 407.157 595.878 408 598 408L614 408Z" fill="#FFFFFF" fill-rule="nonzero" fill-opacity="1"/><path d="M790 176C790 189.255 800.745 200 814 200 827.255 200 838 189.255 838 176 838 162.745 827.255 152 814 152 800.752 152.015 790.015 162.752 790 176ZM822 176C822 180.418 818.418 184 814 184 809.582 184 806 180.418 806 176 806 171.582 809.582 168 814 168 818.416 168.005 821.995 171.584 822 176Z" fill="#FFFFFF" fill-rule="nonzero" fill-opacity="1"/><path d="M510 96C510 82.7452 499.255 72 486 72 472.745 72 462 82.7452 462 96 462 109.255 472.745 120 486 120 499.248 119.985 509.985 109.248 510 96ZM478 96C478 91.5817 481.582 88 486 88 490.418 88 494 91.5817 494 96 494 100.418 490.418 104 486 104 481.584 103.995 478.005 100.416 478 96Z" fill="#FFFFFF" fill-rule="nonzero" fill-opacity="1"/></g></g></g></g></g></svg>