<svg viewBox="0 0 256 256" xml:space="preserve" xmlns="http://www.w3.org/2000/svg" enable-background="new 0 0 256 256"><path d="M236.6 95c0-11.1-9.1-20.2-20.2-20.2s-20.2 9.1-20.2 20.2c0 3.7 1.1 7.2 2.9 10.2l-27.2 27.2c-2.8-1.4-5.9-2.3-9.2-2.3-4.2 0-8 1.3-11.3 3.4l-27.3-27.2c2.2-3.2 3.5-7.1 3.5-11.3 0-11.1-9.1-20.2-20.2-20.2S87.2 83.9 87.2 95c0 3.3.9 6.4 2.3 9.1L60.6 133c-3-1.8-6.5-2.9-10.2-2.9-11.1 0-20.2 9.1-20.2 20.2s9.1 20.2 20.2 20.2 20.2-9.1 20.2-20.2c0-3.7-1.1-7.2-2.9-10.2l28.4-28.4c3.2 2.2 7.1 3.5 11.3 3.5 3.3 0 6.4-.9 9.1-2.3l28.2 28.2c-1.4 2.8-2.3 5.9-2.3 9.2 0 11.1 9.1 20.2 20.2 20.2s20.2-9.1 20.2-20.2c0-4.2-1.3-8.1-3.4-11.3l26.7-26.7c3 1.8 6.5 2.9 10.2 2.9 11.2 0 20.3-9.1 20.3-20.2zM50.4 160.4c-5.6 0-10.2-4.6-10.2-10.2S44.8 140 50.4 140c2.8 0 5.3 1.1 7.2 3 1.8 1.8 3 4.4 3 7.2 0 5.7-4.6 10.2-10.2 10.2zm57-55.3c-5.6 0-10.2-4.6-10.2-10.2s4.6-10.2 10.2-10.2 10.2 4.6 10.2 10.2c0 5.7-4.6 10.2-10.2 10.2zm55.3 55.3c-5.6 0-10.2-4.6-10.2-10.2s4.6-10.2 10.2-10.2 10.2 4.6 10.2 10.2c-.1 5.7-4.6 10.2-10.2 10.2zm46.5-58.3c-1.8-1.8-3-4.4-3-7.2 0-5.6 4.6-10.2 10.2-10.2s10.2 4.6 10.2 10.2-4.6 10.2-10.2 10.2c-2.8 0-5.4-1.1-7.2-3zM9.5 212.7c3 0 5.4-2.4 5.4-5.4V22.1c0-3-2.4-5.4-5.4-5.4s-5.4 2.4-5.4 5.4v185.2c0 3 2.4 5.4 5.4 5.4zM37.7 228.5H9.5c-3 0-5.4 2.4-5.4 5.4s2.4 5.4 5.4 5.4h28.3c3 0 5.4-2.4 5.4-5.4s-2.5-5.4-5.5-5.4zM89.9 228.5H61.7c-3 0-5.4 2.4-5.4 5.4s2.4 5.4 5.4 5.4H90c3 0 5.4-2.4 5.4-5.4s-2.5-5.4-5.5-5.4zM142.1 228.5h-28.3c-3 0-5.4 2.4-5.4 5.4s2.4 5.4 5.4 5.4h28.3c3 0 5.4-2.4 5.4-5.4s-2.4-5.4-5.4-5.4zM194.3 228.5H166c-3 0-5.4 2.4-5.4 5.4s2.4 5.4 5.4 5.4h28.3c3 0 5.4-2.4 5.4-5.4s-2.4-5.4-5.4-5.4zM246.5 228.5h-28.3c-3 0-5.4 2.4-5.4 5.4s2.4 5.4 5.4 5.4h28.3c3 0 5.4-2.4 5.4-5.4s-2.4-5.4-5.4-5.4z" fill="#ffffff" class="fill-000000"></path></svg>