<svg width="16" height="20" viewBox="0 0 16 20" fill="none" xmlns="http://www.w3.org/2000/svg">
<path d="M0.201121 0.00017084C0.0848099 0.0226594 0 0.127606 0.00242314 0.250044V19.7401C0.00242314 19.8776 0.106618 19.9925 0.242314 19.9925C0.37801 19.9925 0.487051 19.8851 0.487051 19.7451C0.487051 19.7451 0.487051 19.7401 0.487051 19.7376V0.499917H9.69499V6.24699C9.69499 6.38442 9.80403 6.49687 9.9373 6.49687H15.7528C15.8861 6.49937 15.9976 6.39192 16 6.25199C16 6.18203 15.9758 6.11456 15.9273 6.06709L10.1118 0.0701353C10.0657 0.0226594 10.0027 -0.00232789 9.9373 0.00017084H0.244737C0.244737 0.00017084 0.230198 0.00017084 0.222929 0.00017084C0.21566 0.00017084 0.20839 0.00017084 0.201121 0.00017084ZM10.182 0.859734L15.164 5.99712H10.182V0.859734ZM15.7335 5.99962C15.7335 5.99962 15.7141 6.00462 15.7044 6.00712C15.5905 6.0321 15.5129 6.13705 15.5154 6.25699V19.5003H0.244737C0.111464 19.5003 0 19.6077 0 19.7476C0 19.8876 0.104195 20 0.239891 20C0.239891 20 0.244737 20 0.24716 20H15.7553C15.8885 20 15.9976 19.8876 15.9976 19.7501V6.25699C16.0024 6.11956 15.8982 6.00212 15.765 5.99712C15.7553 5.99712 15.7431 5.99712 15.7335 5.99712V5.99962ZM5.07163 7.73873C5.00863 7.74623 4.9529 7.78121 4.91171 7.83369L3.38997 9.63027L2.84477 9.06806C2.75026 8.96811 2.59761 8.96811 2.50068 9.06306C2.40376 9.15801 2.40376 9.31793 2.49584 9.41788L3.22278 10.1675C3.31486 10.2674 3.46994 10.2699 3.56444 10.175C3.56929 10.17 3.57413 10.165 3.57656 10.16L5.27275 8.16102C5.36483 8.06107 5.36241 7.90365 5.26791 7.8087C5.2146 7.75623 5.14191 7.73124 5.06921 7.74123L5.07163 7.73873ZM6.50371 9.24547C6.37044 9.25796 6.27109 9.3804 6.2832 9.51783C6.29532 9.65526 6.41405 9.75771 6.54733 9.74521H13.3321C13.4654 9.74521 13.5769 9.63777 13.5769 9.49784C13.5769 9.36041 13.4727 9.24547 13.337 9.24547C13.337 9.24547 13.3321 9.24547 13.3297 9.24547H6.5449C6.53037 9.24547 6.5134 9.24547 6.49886 9.24547H6.50371ZM5.07163 10.6173C5.00863 10.6248 4.9529 10.6597 4.91171 10.7122L3.38997 12.5088L2.84477 11.9466C2.75026 11.8466 2.59761 11.8441 2.50068 11.9416C2.40376 12.039 2.40133 12.1965 2.49584 12.2964L3.22278 13.046C3.31486 13.146 3.46994 13.1485 3.56444 13.0535C3.56929 13.0485 3.57413 13.0435 3.57656 13.0385L5.27275 11.0396C5.36483 10.9396 5.36241 10.7822 5.26791 10.6872C5.2146 10.6348 5.14191 10.6098 5.06921 10.6198L5.07163 10.6173ZM6.50371 12.124C6.37044 12.1365 6.27109 12.2589 6.2832 12.3964C6.29532 12.5338 6.41405 12.6362 6.54733 12.6238H13.3321C13.4654 12.6238 13.5769 12.5163 13.5769 12.3764C13.5769 12.2389 13.4727 12.124 13.337 12.124C13.337 12.124 13.3321 12.124 13.3297 12.124H6.5449C6.53037 12.124 6.5134 12.124 6.49886 12.124H6.50371ZM5.07163 13.8656C5.00863 13.8731 4.9529 13.9081 4.91171 13.9606L3.38997 15.7572L2.84477 15.1949C2.75026 15.0975 2.59518 15.095 2.50068 15.1949C2.40618 15.2924 2.40376 15.4498 2.49584 15.5473L3.22278 16.2969C3.31486 16.3968 3.46994 16.3993 3.56444 16.3044C3.56929 16.2994 3.57413 16.2944 3.57656 16.2894L5.27275 14.2904C5.36483 14.1905 5.36241 14.033 5.26791 13.9381C5.2146 13.8856 5.14191 13.8606 5.06921 13.8706L5.07163 13.8656ZM6.50371 15.3724C6.37044 15.3848 6.27109 15.5073 6.2832 15.6447C6.29532 15.7821 6.41405 15.8846 6.54733 15.8721H13.3321C13.4654 15.8721 13.5769 15.7647 13.5769 15.6247C13.5769 15.4848 13.4727 15.3724 13.337 15.3724C13.337 15.3724 13.3321 15.3724 13.3297 15.3724H6.5449C6.53037 15.3724 6.5134 15.3724 6.49886 15.3724H6.50371Z" fill="white"/>
</svg>
