<svg viewBox="0 0 64 64" xml:space="preserve" xmlns="http://www.w3.org/2000/svg" enable-background="new 0 0 64 64"><g id="Layer_2"><path d="m4.1 29.6 2.2-.3M8.4 27.4l1.9-3.7 2.6 5.5 6 .9-4.4 4.2 1 6-5.3-2.9-5.5 2.8 1.1-6-3.3-3.3M24.4 31l-1.1-1.1 6-.8 2.8-5.4 2.6 5.5 6 .9-4.4 4.2 1 6-5.4-2.9-5.4 2.8 1.1-6-1-1M48.3 40.2l1.1-6-4.3-4.3 6-.8 2.7-5.4 2.7 5.5 6 .9-.9.8M59.2 33.2l-1.1 1.1 1 6-5.4-2.9-1 .6" fill="none" stroke="#ffffff" stroke-width="2" stroke-linecap="round" stroke-linejoin="round" stroke-miterlimit="10" class="stroke-000000"></path></g></svg>