<svg width="13" height="21" viewBox="0 0 13 21" fill="none" xmlns="http://www.w3.org/2000/svg">
<path d="M1.85214 17.4122V20.7658C1.85214 20.8946 1.95427 21 2.07909 21H10.9075C11.0323 21 11.1345 20.8946 11.1345 20.7658V17.4075C12.2692 17.0492 13 16.5199 13 15.8033C13 10.5152 9.93615 8.82436 8.10919 8.28571C8.00707 8.25527 7.90721 8.22951 7.81189 8.20609C9.05785 7.66042 9.86807 6.40047 9.86807 5.00468V4.92037C10.0156 4.83607 10.154 4.74005 10.2879 4.63466C10.3424 4.59016 10.3742 4.51991 10.3719 4.44731C10.3719 4.37471 10.3356 4.30445 10.2766 4.2623C10.2652 4.2623 10.2085 4.21311 10.1064 4.15457C10.0042 3.47307 9.65247 1.34426 9.1214 0.838407C8.51771 0.269321 6.72025 0.0257611 6.52053 0H6.46607C6.26635 0.0257611 4.46889 0.269321 3.87655 0.826698C3.34775 1.33255 2.99371 3.46136 2.89158 4.14052C2.78945 4.20141 2.73271 4.24356 2.72137 4.25059C2.61924 4.32553 2.59654 4.47307 2.66917 4.57611C2.68051 4.59251 2.69413 4.6089 2.71002 4.62295C2.84392 4.72834 2.98236 4.82436 3.12988 4.90867V4.99297C3.12761 6.3911 3.93556 7.65574 5.18379 8.20375L4.90464 8.27869H4.89102C3.06406 8.81733 0.000216567 10.5082 0.000216567 15.7963C-0.0134005 16.4871 0.615255 17.0258 1.85214 17.4122ZM10.6806 20.5316H2.30604V11.8923H5.22918V14.3326C5.22918 14.4614 5.33131 14.5667 5.45613 14.5667H7.53047C7.65529 14.5667 7.75742 14.4614 7.75742 14.3326V11.8923H10.6806V20.5316ZM5.68762 14.0984V11.8923H7.30806V14.0984H5.68762ZM4.1852 1.17799C4.58918 0.793911 5.95996 0.538642 6.4933 0.47541C7.02664 0.545667 8.39742 0.800937 8.8014 1.17799C9.10778 1.47307 9.42097 2.84309 9.59573 3.89696C8.61076 3.48478 7.55543 3.27869 6.4933 3.29742C5.43117 3.27869 4.37584 3.48009 3.39087 3.89461C3.56563 2.84075 3.87882 1.47307 4.1852 1.17799ZM6.4933 3.76581C7.60082 3.74005 8.69927 3.98126 9.70239 4.46838C8.72196 5.03045 7.61444 5.31616 6.4933 5.29274C5.37216 5.31382 4.26464 5.0281 3.28421 4.46604C4.28733 3.97658 5.38578 3.7377 6.4933 3.76581ZM3.58832 5.15457C4.5052 5.56674 5.49471 5.77283 6.4933 5.76112C7.49189 5.77283 8.4814 5.56674 9.39828 5.15457C9.3075 6.8103 7.93444 8.07728 6.32989 7.98361C4.85017 7.8993 3.67002 6.67916 3.58832 5.15457ZM7.67345 8.6534L6.4933 10.3747L5.31315 8.6534C5.69897 8.55504 6.09613 8.49649 6.4933 8.47775C6.89047 8.49649 7.28763 8.55504 7.67345 8.6534ZM4.8479 8.78923L6.3072 10.9227C6.37982 11.0281 6.52053 11.0539 6.62266 10.9813C6.64536 10.9649 6.66351 10.9461 6.6794 10.9227L8.1387 8.78923C9.85445 9.34192 12.5461 10.9766 12.5461 15.815C12.5461 16.2529 12.0218 16.6417 11.1345 16.9391V11.6581C11.1345 11.5293 11.0323 11.4239 10.9075 11.4239H2.07909C1.95427 11.4239 1.85214 11.5293 1.85214 11.6581V16.9274C0.964761 16.63 0.440503 16.2412 0.440503 15.8033C0.440503 10.9696 3.13215 9.33489 4.8479 8.78923Z" fill="white"/>
</svg>
