<svg data-name="Layer 1" viewBox="0 0 512 512" xmlns="http://www.w3.org/2000/svg"><path d="M274.61 70.59a32 32 0 1 0-32-32 32 32 0 0 0 32 32Zm0-53.8a21.8 21.8 0 1 1-21.8 21.8 21.83 21.83 0 0 1 21.8-21.8ZM376.34 174.4a41.66 41.66 0 1 0-41.66-41.66 41.71 41.71 0 0 0 41.66 41.66Zm0-73.12a31.46 31.46 0 1 1-31.46 31.46 31.49 31.49 0 0 1 31.46-31.46Z" fill="#ffffff" class="fill-000000"></path><path d="M499.13 233.69a5.09 5.09 0 0 0-7.14 1c-5.16 6.88-12.72 11.29-20.24 11.81a22.89 22.89 0 0 1-8.53-1.06 36.37 36.37 0 0 0 5.62-18.21c.41-11.07-4.49-19.21-13.11-21.77a18.73 18.73 0 0 0-21.2 8c-2.48 4.14-6.63 15.42 8.48 30.72a49.51 49.51 0 0 0 4.33 3.93c-9.34 8.05-22 12.38-27.83 14.07-19.33-39.92-60.48-70.12-117.36-84.63a66.54 66.54 0 1 0-130.89-17 65.28 65.28 0 0 0 1.63 14.49c-38.54 8.37-60.73 23-69 29.42C75 179.7 36.85 193.2 35.18 193.81a5.1 5.1 0 0 0-2.42 7.73l30.28 43c-19.11 31.33-21.75 59.48-22 70.59l-25.66 2.56a5.1 5.1 0 0 0-4.59 5.17l1.43 84.1a5.09 5.09 0 0 0 4.62 5l30.67 2.86c4.74 4.92 19.79 19.21 46.64 33.27l-7 31.21a14.85 14.85 0 0 0 10.51 17.59l28.69 8a14.79 14.79 0 0 0 17.88-9l9.64-25.36c29.66 7.35 61.73 10.35 95.56 8.94 27.83-1.16 53.23-5.65 75.58-13.35l9.88 20.87A14.24 14.24 0 0 0 353 494l33.64-13.45a14.18 14.18 0 0 0 8.39-17.13l-9.39-32.68c32.67-30.22 49-73.4 45.95-122a124.1 124.1 0 0 0-8-37.09c7.68-2.3 22.25-7.7 32.79-17.91a33.33 33.33 0 0 0 16 2.91c10.6-.72 20.7-6.5 27.72-15.87a5.1 5.1 0 0 0-.97-7.09ZM237.81 104.31a56.35 56.35 0 0 1 19.06 109.38A334.1 334.1 0 0 0 219 214a5 5 0 0 0-1.23-.67 56.36 56.36 0 0 1 20.05-109Zm138.71 321a5.12 5.12 0 0 0-1.52 5.23l10.27 35.74a4 4 0 0 1-2.37 4.84l-33.65 13.45a4 4 0 0 1-5.12-2l-11.85-25.07a5.12 5.12 0 0 0-6.39-2.6c-22.39 8.3-48.25 13.1-76.89 14.3-34.43 1.44-67.08-1.84-97-9.75a5.09 5.09 0 0 0-6.07 3.12l-11.25 29.62a4.63 4.63 0 0 1-5.61 2.84l-28.69-8a4.66 4.66 0 0 1-3.3-5.52l7.92-35.06a5.08 5.08 0 0 0-2.68-5.67c-32.5-16.37-47.93-33.55-48.57-34.27a5.12 5.12 0 0 0-3.35-1.7l-28-2.61-1.27-74.84 25.64-2.57a5.09 5.09 0 0 0 4.57-5.43c0-.34-2.12-34.3 22.13-72.27a5.07 5.07 0 0 0-.13-5.68l-28-39.78c11.66-2.48 36.54-4.87 54.8 13.37a5.12 5.12 0 0 0 7.1.1c.22-.21 21.94-20.16 68.67-30.13a67.2 67.2 0 0 0 24.49 30.73c-11.21 1.29-18.42 2.64-19.25 2.8a5.1 5.1 0 0 0 1.92 10c.58-.11 58.74-11 109.34 0a5.1 5.1 0 0 0 2.17-10c-6.22-1.35-12.52-2.39-18.8-3.17a66.69 66.69 0 0 0 23-28c73.31 18.44 119 63.86 122.66 122.13 2.9 46.54-13.06 87.66-44.92 115.84Zm82.13-198.43a26.41 26.41 0 0 1-4.49 13.7 40 40 0 0 1-3.89-3.48c-7-7.1-9.61-13.94-7-18.31a8.53 8.53 0 0 1 7.23-3.85 8.22 8.22 0 0 1 2.31.33c4 1.18 6.07 5.3 5.84 11.6Z" fill="#ffffff" class="fill-000000"></path><path d="m310.16 314-71.77-48.5a5.07 5.07 0 0 0-5.69 0L160.48 314a5.1 5.1 0 0 0 2.85 9.33 5 5 0 0 0 2.84-.87l10.56-7.09v80.15a5.1 5.1 0 0 0 5.1 5.1h107a5.1 5.1 0 0 0 5.1-5.1V315.3l10.55 7.13a5.1 5.1 0 1 0 5.71-8.45Zm-92.1 76.41v-28.6a17.26 17.26 0 0 1 34.51 0v28.58Zm65.64 0h-20.93v-28.6a27.46 27.46 0 0 0-54.91 0v28.58h-20.93v-81.9l48.6-32.64 48.17 32.56ZM238 184c-8.53-.23-10.19-4.82-10.32-5.21a5.1 5.1 0 0 0-9.9 2.45c.11.46 2.64 10 15 12.42v6a5.1 5.1 0 0 0 10.2 0v-6.14c7.18-1.93 13.33-8 14.79-15.29.75-3.71 1.63-16.39-18.06-24-8.39-3.24-12.67-7.78-11.73-12.46.83-4.16 5.4-7.78 9.76-7.73 8.42.22 10.15 4.72 10.34 5.32a5.1 5.1 0 0 0 9.87-2.56c-.11-.46-2.64-10-15-12.43v-6a5.1 5.1 0 0 0-10.2 0v6.15c-7.19 1.94-13.34 8-14.8 15.28-.74 3.71-1.63 16.39 18.06 24 8.4 3.24 12.67 7.78 11.73 12.46-.87 4.15-5.53 7.74-9.74 7.74Z" fill="#ffffff" class="fill-000000"></path></svg>