<svg xmlns="http://www.w3.org/2000/svg" version="1.1" xmlns:xlink="http://www.w3.org/1999/xlink" width="512" height="512" x="0" y="0" viewBox="0 0 64 64" style="enable-background:new 0 0 512 512" xml:space="preserve"><g><path d="M55.762 31.263h-1.74v-2.416c-1.207-29.21-42.836-29.211-44.044 0v2.416h-1.74A4.242 4.242 0 0 0 4 35.5v5.2a4.243 4.243 0 0 0 4.238 4.237h1.74v4.894a5.248 5.248 0 0 0 5.242 5.242h8.925a2.994 2.994 0 0 0 2.848 2.102h4.217c3.987-.088 3.984-6.119 0-6.204h-4.217a2.994 2.994 0 0 0-2.848 2.102H15.22a3.246 3.246 0 0 1-3.242-3.242v-2.266c2.779 1.782 6.869-.139 6.806-3.584V32.22a4.27 4.27 0 0 0-4.568-4.238 4.198 4.198 0 0 0-2.227.648 20.012 20.012 0 0 1 40.022 0 4.199 4.199 0 0 0-2.227-.648 4.27 4.27 0 0 0-4.568 4.238V43.98a4.42 4.42 0 0 0 8.688.956h1.858A4.243 4.243 0 0 0 60 40.7V35.5a4.242 4.242 0 0 0-4.238-4.237zM9.978 42.937h-1.74A2.24 2.24 0 0 1 6 40.7V35.5a2.24 2.24 0 0 1 2.238-2.237h1.74zm17.015 10.034h4.217a1.036 1.036 0 0 1 1 1.204 1 1 0 0 1-1 1h-4.217a1.037 1.037 0 0 1-1-1.204 1.001 1.001 0 0 1 1-1zM14.216 29.98a2.286 2.286 0 0 1 2.568 2.238V43.98c-.025 2.986-4.78 2.99-4.806 0-.008-.016.005-11.691 0-11.718a2.242 2.242 0 0 1 2.238-2.282zm37.806 14a2.286 2.286 0 0 1-2.568 2.238 2.24 2.24 0 0 1-2.238-2.238V32.22a2.24 2.24 0 0 1 2.238-2.238 2.286 2.286 0 0 1 2.568 2.282s.007 11.676 0 11.718zM58 40.7a2.24 2.24 0 0 1-2.238 2.239h-1.74c.003-2.35-.002-7.363 0-9.675h1.74A2.24 2.24 0 0 1 58 35.5z" fill="#ffffff" opacity="1" data-original="#000000"></path><path d="M32 20.282a9.564 9.564 0 0 0-6.695 16.403v5.6a1.007 1.007 0 0 0 1.702.713l3.717-3.658A9.572 9.572 0 1 0 32 20.282zm-1.427 17.006a1.005 1.005 0 0 0-.89.27l-2.378 2.34V36.25a.999.999 0 0 0-.334-.746 7.583 7.583 0 0 1-2.544-5.65c.354-10.02 14.791-10.022 15.146 0a7.564 7.564 0 0 1-9 7.433z" fill="#ffffff" opacity="1" data-original="#000000"></path><path d="M28.396 28.981a1.05 1.05 0 0 0 0 2.1 1.05 1.05 0 0 0 0-2.1zM32 28.981a1.05 1.05 0 0 0 0 2.1 1.05 1.05 0 0 0 0-2.1zM35.604 28.981a1.05 1.05 0 0 0 0 2.1 1.05 1.05 0 0 0 0-2.1z" fill="#ffffff" opacity="1" data-original="#000000"></path></g></svg>