<svg width="599" height="512" xmlns="http://www.w3.org/2000/svg" xmlns:xlink="http://www.w3.org/1999/xlink" xml:space="preserve" overflow="hidden"><g transform="translate(-293 0)"><g><g><g><g><path d="M239.416 71.6798C239.416 68.3716 242.104 65.6831 245.412 65.6831L362.796 65.6831C366.105 65.6831 368.793 68.3716 368.793 71.6798 368.793 74.9879 366.105 77.6764 362.796 77.6764L245.412 77.6764C242.104 77.6764 239.416 74.9979 239.416 71.6798ZM245.412 114.696 317.042 114.696C320.35 114.696 323.039 112.007 323.039 108.699 323.039 105.391 320.35 102.702 317.042 102.702L245.412 102.702C242.104 102.702 239.416 105.391 239.416 108.699 239.416 112.007 242.104 114.696 245.412 114.696ZM156.322 183.627 365.805 183.627C369.113 183.627 371.801 180.938 371.801 177.63 371.801 174.322 369.113 171.634 365.805 171.634L156.322 171.634C153.014 171.634 150.326 174.322 150.326 177.63 150.326 180.938 153.014 183.627 156.322 183.627ZM156.322 224.444 365.805 224.444C369.113 224.444 371.801 221.756 371.801 218.447 371.801 215.139 369.113 212.451 365.805 212.451L156.322 212.451C153.014 212.451 150.326 215.139 150.326 218.447 150.326 221.756 153.014 224.444 156.322 224.444ZM365.805 253.268 156.322 253.268C153.014 253.268 150.326 255.956 150.326 259.264 150.326 262.573 153.014 265.261 156.322 265.261L365.805 265.261C369.113 265.261 371.801 262.573 371.801 259.264 371.801 255.956 369.113 253.268 365.805 253.268ZM352.452 294.455 313.854 333.053 293.665 312.864C291.327 310.526 287.529 310.526 285.18 312.864 282.841 315.203 282.841 319.001 285.18 321.35L309.606 345.776C310.726 346.895 312.255 347.535 313.844 347.535 315.433 347.535 316.962 346.905 318.082 345.776L360.917 302.94C363.256 300.601 363.256 296.803 360.917 294.455 358.589 292.116 354.791 292.116 352.452 294.455ZM495.192 174.252 489.036 190.333C489.026 190.363 489.006 190.383 488.996 190.403L489.006 190.403 431.168 335.602 431.158 335.602C430.818 336.461 430.289 337.241 429.579 337.87L407.142 357.769 407.142 387.533C407.142 402.424 395.028 414.547 380.127 414.547L238.346 414.547C236.747 416.086 234.718 417.676 232.05 419.285 233.389 421.673 234.199 424.342 234.378 427.15 234.698 432.108 233.079 436.885 229.811 440.593 226.153 444.76 221.016 446.889 215.859 446.889 214.939 446.889 214.01 446.809 213.09 446.669 212.501 449.948 211.052 453.016 208.803 455.574 205.145 459.742 200.008 461.871 194.851 461.871 193.461 461.871 192.082 461.701 190.723 461.391 190.053 464.369 188.644 467.138 186.585 469.487 183.327 473.194 178.8 475.423 173.842 475.743 173.433 475.773 173.023 475.783 172.613 475.783 171.104 475.783 169.615 475.583 168.176 475.233 167.486 478.142 166.097 480.85 164.078 483.149 160.46 487.257 155.403 489.365 150.256 489.365 146.278 489.365 142.26 488.096 138.792 485.538 136.094 487.367 132.955 488.466 129.597 488.686 129.188 488.716 128.778 488.726 128.368 488.726 123.86 488.726 119.563 487.117 116.155 484.118 112.657 481.05 110.508 476.852 109.998 472.235 109.808 472.245 109.608 472.265 109.419 472.265 105.071 472.265 100.703 470.746 97.1855 467.658 93.6574 464.559 91.4987 460.322 91.0189 455.664 90.869 455.664 90.7091 455.684 90.5592 455.684 86.2116 455.684 81.8441 454.165 78.326 451.077 74.788 447.969 72.7392 443.801 72.1895 439.453 71.9096 439.463 71.6298 439.493 71.34 439.493 66.9924 439.493 62.6249 437.974 59.1068 434.886 51.4211 428.13 50.6616 416.386 57.4178 408.701L62.8347 402.534C60.4461 400.315 55.7687 397.347 49.2424 395.668L47.0136 399.366C45.2646 402.254 42.1963 403.853 39.0381 403.853 37.399 403.853 35.7499 403.424 34.2508 402.514L19.4791 393.589C15.0915 390.941 13.6823 385.214 16.3308 380.826L60.7059 307.348C63.3544 302.96 69.0812 301.551 73.4688 304.199L88.2405 313.124C92.4281 315.653 93.8973 320.98 91.7185 325.277 100.044 330.065 108.499 329.695 116.215 329.005L116.215 112.407C116.215 110.818 116.844 109.289 117.974 108.169L202.037 24.1065C203.156 22.9871 204.685 22.3475 206.274 22.3475L380.137 22.3475C395.028 22.3475 407.152 34.4607 407.152 49.3623L407.152 217.278 426.621 166.427 432.777 150.346C434.986 144.569 439.333 140.001 445.01 137.463 450.687 134.934 456.994 134.754 462.77 136.963L481.82 144.259C487.596 146.468 492.164 150.815 494.702 156.492 497.221 162.169 497.401 168.475 495.192 174.252ZM439.953 165.117 479.971 180.439 483.988 169.955C485.058 167.176 484.968 164.128 483.739 161.379 482.509 158.631 480.3 156.532 477.522 155.463L458.463 148.167C455.684 147.097 452.636 147.187 449.888 148.417 447.139 149.646 445.04 151.855 443.971 154.633ZM475.613 191.612 435.665 176.311 384.074 311.065 422.213 325.667ZM136.673 106.41 200.268 106.41 200.268 42.816ZM79.7253 322.009 69.571 315.883 27.9843 384.734 38.1386 390.861ZM76.2972 425.291 89.6397 410.11C90.789 408.801 91.3587 407.112 91.2388 405.353 91.1289 403.594 90.3393 401.994 89.04 400.845 87.8407 399.796 86.3216 399.226 84.7225 399.226 84.5725 399.226 84.4326 399.226 84.2827 399.236 82.5237 399.346 80.9246 400.135 79.7752 401.435L66.4327 416.616C64.0441 419.335 64.3139 423.492 67.0324 425.881 69.7509 428.27 73.9085 428.01 76.2972 425.291ZM95.5064 441.482 104.711 431.008 108.849 426.301C109.998 424.992 110.568 423.302 110.448 421.543 110.338 419.784 109.549 418.185 108.249 417.036 106.94 415.887 105.251 415.317 103.492 415.437 101.733 415.547 100.134 416.336 98.9845 417.636L98.9645 417.616C98.8545 417.756 98.7546 417.895 98.6347 418.025L85.6419 432.807C83.2533 435.526 83.5231 439.683 86.2416 442.072 88.9701 444.461 93.1177 444.201 95.5064 441.482ZM114.376 458.053 123.581 447.579C124.73 446.27 125.3 444.581 125.18 442.822 125.07 441.062 124.28 439.463 122.981 438.314 121.672 437.165 119.983 436.595 118.224 436.715 116.465 436.825 114.866 437.614 113.716 438.914L104.511 449.388C103.362 450.697 102.792 452.376 102.912 454.135 103.022 455.894 103.812 457.493 105.111 458.643 107.839 461.041 111.987 460.771 114.376 458.053ZM134.774 472.905C137.163 470.186 136.893 466.028 134.175 463.64 132.975 462.59 131.456 462.021 129.857 462.021 129.707 462.021 129.567 462.021 129.417 462.031 127.658 462.141 126.059 462.93 124.91 464.229L123.491 465.839C122.341 467.148 121.772 468.837 121.892 470.596 122.012 472.355 122.791 473.954 124.09 475.103 125.4 476.253 127.079 476.822 128.848 476.712 130.607 476.603 132.206 475.813 133.355 474.514ZM154.483 465.978 144.509 457.213C148.777 462.71 149.556 470.156 146.668 476.383 149.496 478.012 153.004 477.602 155.083 475.233 157.462 472.525 157.202 468.367 154.483 465.978ZM222.405 427.93C222.295 426.171 221.506 424.572 220.206 423.422L153.664 364.945C151.485 363.646 150.595 364.176 150.246 364.375 148.217 365.575 146.678 369.683 146.848 372.211 147.437 380.906 142.57 390.561 134.455 396.807 127.219 402.384 118.773 404.123 111.288 401.595 109.539 401.005 108.159 399.636 107.55 397.897 106.94 396.158 107.17 394.229 108.169 392.67 112.167 386.453 111.248 380.387 110.188 373.36 108.719 363.616 106.9 351.523 120.822 340.639 120.233 340.689 119.663 340.739 119.133 340.789 116.105 341.069 112.617 341.398 108.819 341.398 101.733 341.398 93.5975 340.259 85.532 335.572L55.6388 385.084C61.8653 387.173 67.0524 390.281 70.6903 393.609L70.7603 393.529C74.0185 389.821 78.5459 387.592 83.5031 387.273 88.4604 386.953 93.2377 388.572 96.9456 391.84 100.374 394.848 102.512 398.946 103.072 403.454 107.899 403.234 112.537 404.843 116.165 408.021 119.873 411.279 122.101 415.807 122.421 420.764 122.511 422.223 122.421 423.652 122.191 425.061 125.4 425.671 128.388 427.11 130.897 429.309 134.604 432.567 136.833 437.095 137.153 442.052 137.353 445.15 136.793 448.178 135.554 450.917 137.943 451.687 140.161 452.926 142.09 454.625 142.27 454.785 142.43 454.955 142.6 455.125 141.331 452.956 141.521 450.127 143.27 448.139 145.458 445.65 149.246 445.41 151.735 447.589L162.399 456.954 162.409 456.954 168.336 462.161C169.645 463.31 171.334 463.88 173.093 463.76 174.852 463.65 176.451 462.86 177.6 461.561 178.75 460.252 179.319 458.563 179.199 456.804 179.089 455.045 178.3 453.446 177.001 452.296L150.865 429.329C148.377 427.14 148.137 423.352 150.316 420.864 152.504 418.375 156.292 418.135 158.781 420.314L184.896 443.311 190.533 448.258C191.842 449.408 193.521 449.977 195.29 449.858 197.049 449.748 198.649 448.958 199.798 447.659 200.947 446.35 201.517 444.66 201.397 442.901 201.287 441.142 200.497 439.543 199.198 438.394 199.198 438.394 199.188 438.384 199.188 438.384L168.405 411.329C165.917 409.14 165.677 405.353 167.856 402.864 170.045 400.375 173.832 400.135 176.321 402.314L211.531 433.257C214.25 435.646 218.407 435.376 220.796 432.657 221.955 431.378 222.525 429.689 222.405 427.93ZM233.499 401.295C236.088 397.137 238.756 393.569 245.122 390.461L221.016 333.423C204.735 338.73 189.694 335.172 177.37 332.254 167.326 329.875 158.641 327.816 152.105 330.954 145.199 335.492 140.111 339.959 135.604 343.907 133.155 346.056 130.837 348.085 128.578 349.794 119.773 356.48 120.672 362.487 122.052 371.571 122.871 376.988 123.821 383.315 122.201 390.021 124.4 389.252 126.179 388.052 127.149 387.303 132.016 383.555 135.204 377.678 134.894 373.011 134.475 366.724 137.573 357.939 144.149 354.051 147.018 352.352 152.964 350.233 160.49 355.061 160.74 355.221 160.98 355.401 161.21 355.6L223.485 410.33C229.861 407.112 231.57 404.383 233.499 401.295ZM239.416 315.713 228.492 320.33 259.814 394.419 270.738 389.801ZM249.8 401.525C249.15 401.864 248.59 402.204 248.081 402.554L250.32 402.554C250.14 402.234 249.96 401.924 249.82 401.575ZM260.874 396.907C260.864 396.907 260.864 396.897 260.874 396.907ZM395.148 368.413 389.042 373.83C387.922 374.82 386.503 375.339 385.064 375.339 384.384 375.339 383.705 375.219 383.045 374.99 380.986 374.25 379.487 372.451 379.147 370.282L370.422 315.453C370.252 314.394 370.372 313.334 370.742 312.365L395.158 248.59 395.158 49.3623C395.158 41.0769 388.422 34.3407 380.137 34.3407L212.261 34.3407 212.261 112.407C212.261 115.715 209.572 118.404 206.264 118.404L128.198 118.404 128.198 328.486C130.127 328.656 131.966 329.035 133.665 329.765 137.103 326.907 141.091 323.818 145.838 320.72 146.018 320.6 146.208 320.49 146.408 320.39 156.892 315.063 168.186 317.742 180.139 320.58 191.722 323.329 203.656 326.147 216.339 322.329 214.47 317.652 216.688 312.305 221.346 310.326L237.247 303.61C241.964 301.621 247.431 303.829 249.43 308.547L273.966 366.584C274.716 366.244 275.545 366.055 276.425 366.055L369.723 366.055C373.031 366.055 375.719 368.743 375.719 372.051 375.719 375.359 373.031 378.048 369.723 378.048L278.804 378.048 282.851 387.612C284.85 392.33 282.631 397.797 277.914 399.796L271.388 402.554 380.137 402.554C388.422 402.554 395.158 395.818 395.158 387.533L395.158 368.413ZM414.228 335.452 383.885 323.828 389.262 357.599ZM450.307 197.999C447.209 196.81 443.751 198.359 442.562 201.457L409.84 286.899C408.651 289.987 410.2 293.455 413.298 294.645 414.008 294.914 414.727 295.044 415.437 295.044 417.845 295.044 420.124 293.575 421.034 291.187L453.755 205.745C454.955 202.646 453.406 199.178 450.307 197.999Z" fill="#FFFFFF" fill-rule="nonzero" fill-opacity="1" transform="matrix(1 0 0 1.00056 339.553 0)"/></g></g></g></g></g></svg>