<svg viewBox="0 0 14.13 23.84" xmlns="http://www.w3.org/2000/svg"><g data-name="Camada 2"><g data-name="Camada 1"><path d="M12.63 0H1.5A1.5 1.5 0 0 0 0 1.5v20.84a1.5 1.5 0 0 0 1.5 1.5h11.13a1.5 1.5 0 0 0 1.5-1.5V1.5a1.5 1.5 0 0 0-1.5-1.5Zm.5 22.34a.5.5 0 0 1-.5.5H1.5a.5.5 0 0 1-.5-.5V1.5a.5.5 0 0 1 .5-.5h11.13a.5.5 0 0 1 .5.5Z" fill="#ffffff" class="fill-000000"></path><path d="M7.65 20.27H6.47a.5.5 0 0 0 0 1h1.18a.5.5 0 1 0 0-1ZM8.8 10.82a6.57 6.57 0 0 0-1.34-.43 7.4 7.4 0 0 1-.93-.28 1.23 1.23 0 0 1-.53-.3.63.63 0 0 1-.15-.43.65.65 0 0 1 .3-.58A1.47 1.47 0 0 1 7 8.6a1.44 1.44 0 0 1 .79.2.77.77 0 0 1 .37.51.28.28 0 0 0 .28.17h.9a.19.19 0 0 0 .2-.2 1.51 1.51 0 0 0-.25-.72 2.11 2.11 0 0 0-.67-.65 2.62 2.62 0 0 0-1.06-.37v-.66a.21.21 0 0 0-.23-.23h-.57a.23.23 0 0 0-.16.06.22.22 0 0 0-.07.17v.65a2.49 2.49 0 0 0-1.47.63 1.67 1.67 0 0 0-.54 1.25 1.54 1.54 0 0 0 .52 1.25 4 4 0 0 0 1.64.7q.67.18 1 .31a1.44 1.44 0 0 1 .52.3.58.58 0 0 1 .17.43.7.7 0 0 1-.34.61 1.81 1.81 0 0 1-1 .22 1.69 1.69 0 0 1-.88-.23 1 1 0 0 1-.44-.54.43.43 0 0 0-.12-.14.3.3 0 0 0-.18 0h-.85a.2.2 0 0 0-.15.06.19.19 0 0 0-.06.14 1.61 1.61 0 0 0 .27.82 2 2 0 0 0 .74.65 3.05 3.05 0 0 0 1.17.33V15a.22.22 0 0 0 .07.17.23.23 0 0 0 .16.06h.59a.21.21 0 0 0 .23-.23v-.7a2.83 2.83 0 0 0 1.6-.62 1.68 1.68 0 0 0 .59-1.34 1.64 1.64 0 0 0-.24-.92 1.75 1.75 0 0 0-.73-.6Z" fill="#ffffff" class="fill-000000"></path></g></g></svg>