<svg width="600" height="512" xmlns="http://www.w3.org/2000/svg" xmlns:xlink="http://www.w3.org/1999/xlink" xml:space="preserve" overflow="hidden"><g transform="translate(-292 -104)"><g><g><g><g><path d="M457.25 462.675 54.25 462.675C32.55 462.675 15.5 445.625 15.5 423.925L15.5 87.575C15.5 65.875 32.55 48.825 54.25 48.825L457.25 48.825C478.95 48.825 496 65.875 496 87.575L496 423.15C496 444.85 478.95 462.675 457.25 462.675ZM54.25 64.325C41.075 64.325 31 74.4 31 87.575L31 423.925C31 437.1 41.075 447.175 54.25 447.175L457.25 447.175C470.425 447.175 480.5 436.325 480.5 423.15L480.5 87.575C480.5 74.4 470.425 64.325 457.25 64.325Z" fill="#FFFFFF" fill-rule="nonzero" fill-opacity="1" transform="matrix(1 0 0 1.00098 343.654 104)"/><path d="M428.575 134.85C415.4 134.85 405.325 124.775 405.325 111.6 405.325 98.425 415.4 88.35 428.575 88.35 441.75 88.35 451.825 98.425 451.825 111.6 451.825 124.775 441.75 134.85 428.575 134.85ZM428.575 103.85C423.925 103.85 420.825 106.95 420.825 111.6 420.825 116.25 423.925 119.35 428.575 119.35 433.225 119.35 436.325 116.25 436.325 111.6 436.325 106.95 433.225 103.85 428.575 103.85Z" fill="#FFFFFF" fill-rule="nonzero" fill-opacity="1" transform="matrix(1 0 0 1.00098 343.654 104)"/><path d="M361.925 134.85C348.75 134.85 338.675 124.775 338.675 111.6 338.675 98.425 348.75 88.35 361.925 88.35 375.1 88.35 385.175 98.425 385.175 111.6 385.175 124.775 375.1 134.85 361.925 134.85ZM361.925 103.85C357.275 103.85 354.175 106.95 354.175 111.6 354.175 116.25 357.275 119.35 361.925 119.35 366.575 119.35 369.675 116.25 369.675 111.6 369.675 106.95 366.575 103.85 361.925 103.85Z" fill="#FFFFFF" fill-rule="nonzero" fill-opacity="1" transform="matrix(1 0 0 1.00098 343.654 104)"/><path d="M295.275 134.85C282.1 134.85 272.025 124.775 272.025 111.6 272.025 98.425 282.1 88.35 295.275 88.35 308.45 88.35 318.525 98.425 318.525 111.6 318.525 124.775 308.45 134.85 295.275 134.85ZM295.275 103.85C290.625 103.85 287.525 106.95 287.525 111.6 287.525 116.25 290.625 119.35 295.275 119.35 299.925 119.35 303.025 116.25 303.025 111.6 303.025 106.95 299.925 103.85 295.275 103.85Z" fill="#FFFFFF" fill-rule="nonzero" fill-opacity="1" transform="matrix(1 0 0 1.00098 343.654 104)"/><path d="M230.95 119.35 72.075 119.35C67.425 119.35 64.325 116.25 64.325 111.6 64.325 106.95 67.425 103.85 72.075 103.85L230.95 103.85C235.6 103.85 238.7 106.95 238.7 111.6 238.7 116.25 235.6 119.35 230.95 119.35Z" fill="#FFFFFF" fill-rule="nonzero" fill-opacity="1" transform="matrix(1 0 0 1.00098 343.654 104)"/><path d="M105.4 344.875C104.625 344.875 104.625 344.875 103.85 344.875 99.975 344.1 96.875 340.225 97.65 335.575L108.5 272.8C109.275 268.925 113.15 265.825 117.8 266.6 121.675 267.375 124.775 271.25 124 275.9L113.15 338.675C112.375 342.55 109.275 344.875 105.4 344.875Z" fill="#FFFFFF" fill-rule="nonzero" fill-opacity="1" transform="matrix(1 0 0 1.00098 343.654 104)"/><path d="M199.175 344.875C195.3 344.875 192.2 342.55 191.425 338.675L180.575 275.9C179.8 272.025 182.9 267.375 186.775 266.6 191.425 265.825 195.3 268.925 196.075 272.8L206.925 335.575C207.7 339.45 204.6 344.1 200.725 344.875 199.95 344.875 199.95 344.875 199.175 344.875Z" fill="#FFFFFF" fill-rule="nonzero" fill-opacity="1" transform="matrix(1 0 0 1.00098 343.654 104)"/><path d="M151.125 211.575C129.425 211.575 112.375 194.525 112.375 173.6 112.375 152.675 129.425 135.625 151.125 135.625 172.825 135.625 189.875 152.675 189.875 173.6 189.875 194.525 172.825 211.575 151.125 211.575ZM151.125 151.125C137.95 151.125 127.875 161.2 127.875 173.6 127.875 186 137.95 196.075 151.125 196.075 164.3 196.075 174.375 186 174.375 173.6 174.375 161.2 164.3 151.125 151.125 151.125Z" fill="#FFFFFF" fill-rule="nonzero" fill-opacity="1" transform="matrix(1 0 0 1.00098 343.654 104)"/><path d="M192.2 345.65 110.825 345.65C92.225 345.65 75.95 335.575 68.2 318.525 63.55 309.225 62 296.825 64.325 286.75L75.175 242.575C79.05 227.075 93 215.45 109.275 215.45 110.05 215.45 110.825 215.45 111.6 216.225 137.95 224.75 165.075 224.75 191.425 216.225 192.2 216.225 192.975 215.45 193.75 215.45 210.025 215.45 223.975 226.3 227.85 242.575L238.7 285.975C242.575 300.7 238.7 316.2 229.4 327.825 220.1 339.45 206.925 345.65 192.2 345.65ZM108.5 230.95C99.975 231.725 93 237.15 90.675 245.675L79.825 289.85C78.275 296.825 79.05 305.35 82.15 311.55 87.575 323.175 98.425 329.375 110.825 329.375L192.2 329.375C202.275 329.375 210.8 324.725 217 316.975 223.2 309.225 225.525 298.375 223.2 288.3L212.35 244.9C210.025 236.375 203.05 230.175 194.525 230.175 165.85 240.25 137.175 240.25 108.5 230.95Z" fill="#FFFFFF" fill-rule="nonzero" fill-opacity="1" transform="matrix(1 0 0 1.00098 343.654 104)"/><path d="M241.025 423.15 67.425 423.15C62.775 423.15 59.675 420.05 59.675 415.4L59.675 368.9C59.675 364.25 62.775 361.15 67.425 361.15L241.025 361.15C245.675 361.15 248.775 364.25 248.775 368.9L248.775 415.4C248.775 420.05 245.675 423.15 241.025 423.15ZM75.175 407.65 233.275 407.65 233.275 376.65 75.175 376.65Z" fill="#FFFFFF" fill-rule="nonzero" fill-opacity="1" transform="matrix(1 0 0 1.00098 343.654 104)"/><path d="M435.55 181.35 292.95 181.35C288.3 181.35 285.2 178.25 285.2 173.6 285.2 168.95 288.3 165.85 292.95 165.85L435.55 165.85C440.2 165.85 443.3 168.95 443.3 173.6 443.3 178.25 440.2 181.35 435.55 181.35Z" fill="#FFFFFF" fill-rule="nonzero" fill-opacity="1" transform="matrix(1 0 0 1.00098 343.654 104)"/><path d="M435.55 220.875 292.95 220.875C288.3 220.875 285.2 217.775 285.2 213.125 285.2 208.475 288.3 205.375 292.95 205.375L435.55 205.375C440.2 205.375 443.3 208.475 443.3 213.125 443.3 217.775 440.2 220.875 435.55 220.875Z" fill="#FFFFFF" fill-rule="nonzero" fill-opacity="1" transform="matrix(1 0 0 1.00098 343.654 104)"/><path d="M435.55 260.4 292.95 260.4C288.3 260.4 285.2 257.3 285.2 252.65 285.2 248 288.3 244.9 292.95 244.9L435.55 244.9C440.2 244.9 443.3 248 443.3 252.65 443.3 257.3 440.2 260.4 435.55 260.4Z" fill="#FFFFFF" fill-rule="nonzero" fill-opacity="1" transform="matrix(1 0 0 1.00098 343.654 104)"/><path d="M435.55 300.7 292.95 300.7C288.3 300.7 285.2 297.6 285.2 292.95 285.2 288.3 288.3 285.2 292.95 285.2L435.55 285.2C440.2 285.2 443.3 288.3 443.3 292.95 443.3 297.6 440.2 300.7 435.55 300.7Z" fill="#FFFFFF" fill-rule="nonzero" fill-opacity="1" transform="matrix(1 0 0 1.00098 343.654 104)"/><path d="M435.55 340.225 292.95 340.225C288.3 340.225 285.2 337.125 285.2 332.475 285.2 327.825 288.3 324.725 292.95 324.725L435.55 324.725C440.2 324.725 443.3 327.825 443.3 332.475 443.3 337.125 440.2 340.225 435.55 340.225Z" fill="#FFFFFF" fill-rule="nonzero" fill-opacity="1" transform="matrix(1 0 0 1.00098 343.654 104)"/><path d="M435.55 379.75 292.95 379.75C288.3 379.75 285.2 376.65 285.2 372 285.2 367.35 288.3 364.25 292.95 364.25L435.55 364.25C440.2 364.25 443.3 367.35 443.3 372 443.3 376.65 440.2 379.75 435.55 379.75Z" fill="#FFFFFF" fill-rule="nonzero" fill-opacity="1" transform="matrix(1 0 0 1.00098 343.654 104)"/><path d="M435.55 419.275 292.95 419.275C288.3 419.275 285.2 416.175 285.2 411.525 285.2 406.875 288.3 403.775 292.95 403.775L435.55 403.775C440.2 403.775 443.3 406.875 443.3 411.525 443.3 416.175 440.2 419.275 435.55 419.275Z" fill="#FFFFFF" fill-rule="nonzero" fill-opacity="1" transform="matrix(1 0 0 1.00098 343.654 104)"/><path d="M96.1 399.9 89.9 399.9C85.25 399.9 82.15 396.8 82.15 392.15 82.15 387.5 85.25 384.4 89.9 384.4L96.1 384.4C100.75 384.4 103.85 387.5 103.85 392.15 103.85 396.8 100.75 399.9 96.1 399.9Z" fill="#FFFFFF" fill-rule="nonzero" fill-opacity="1" transform="matrix(1 0 0 1.00098 343.654 104)"/><path d="M123.225 399.9 116.25 399.9C111.6 399.9 108.5 396.8 108.5 392.15 108.5 387.5 111.6 384.4 116.25 384.4L123.225 384.4C127.875 384.4 130.975 387.5 130.975 392.15 130.975 396.8 127.875 399.9 123.225 399.9Z" fill="#FFFFFF" fill-rule="nonzero" fill-opacity="1" transform="matrix(1 0 0 1.00098 343.654 104)"/><path d="M149.575 399.9 143.375 399.9C138.725 399.9 135.625 396.8 135.625 392.15 135.625 387.5 138.725 384.4 143.375 384.4L149.575 384.4C154.225 384.4 157.325 387.5 157.325 392.15 157.325 396.8 154.225 399.9 149.575 399.9Z" fill="#FFFFFF" fill-rule="nonzero" fill-opacity="1" transform="matrix(1 0 0 1.00098 343.654 104)"/></g></g></g></g></g></svg>