<svg width="600" height="512" xmlns="http://www.w3.org/2000/svg" xmlns:xlink="http://www.w3.org/1999/xlink" xml:space="preserve" overflow="hidden"><g transform="translate(-292 0)"><g><g><g><g><path d="M451.211 105.506 406.007 60.2936C396.64 50.9423 381.47 50.9423 372.104 60.2936L209.077 223.304C206.011 226.479 206.099 231.538 209.274 234.605 212.371 237.596 217.281 237.596 220.379 234.605L293.236 161.747 349.757 218.261 147.593 420.417 131.633 424.413 87.0917 379.864 91.0798 363.912 193.581 261.403C196.755 258.336 196.843 253.277 193.777 250.102 190.71 246.927 185.651 246.839 182.476 249.905 182.409 249.97 182.344 250.035 182.279 250.102L78.2202 354.161C77.192 355.185 76.4625 356.47 76.1103 357.877L53.5082 448.31C52.4924 452.66 55.1953 457.009 59.5453 458.025 60.1079 458.157 60.683 458.227 61.2607 458.236L214.736 458.236C219.15 458.236 222.728 454.658 222.728 450.244 222.728 445.83 219.15 442.252 214.736 442.252L126.158 442.252 153.627 435.378C155.03 435.029 156.312 434.305 157.336 433.284L451.211 139.409C460.562 130.042 460.562 114.872 451.211 105.506ZM113.57 428.929 72.25 439.263 82.576 397.943ZM439.918 128.108 361.074 206.952 304.561 150.446 332.534 122.457 358.141 148.065C361.262 151.187 366.323 151.189 369.446 148.069 372.569 144.948 372.571 139.886 369.45 136.764L343.835 111.156 383.397 71.5947C386.516 68.4717 391.577 68.4689 394.699 71.5884 394.702 71.5905 394.704 71.5926 394.706 71.5947L439.918 116.807C443.029 119.931 443.029 124.983 439.918 128.108ZM300.205 442.252 255.752 442.252C251.338 442.252 247.76 445.83 247.76 450.244 247.76 454.658 251.338 458.236 255.752 458.236L300.197 458.236C304.611 458.236 308.19 454.658 308.19 450.244 308.19 445.83 304.611 442.252 300.197 442.252ZM427.442 442.252 346.8 442.252C342.386 442.252 338.808 445.83 338.808 450.244 338.808 454.658 342.386 458.236 346.8 458.236L427.442 458.236C431.856 458.236 435.434 454.658 435.434 450.244 435.434 445.83 431.856 442.252 427.442 442.252Z" fill="#FFFFFF" fill-rule="nonzero" fill-opacity="1" transform="matrix(1 0 0 1.00097 335.281 0)"/></g></g></g></g></g></svg>