<svg xmlns="http://www.w3.org/2000/svg" version="1.1" xmlns:xlink="http://www.w3.org/1999/xlink" width="512" height="512" x="0" y="0" viewBox="0 0 512 512" style="enable-background:new 0 0 512 512" xml:space="preserve" fill-rule="evenodd"><g><path d="M398 512H265c-27-2-39-13-49-21-9-9-16-16-37-13s-55 2-86 1H59c-1 0-3-1-4-2-1-2-2-3-2-5l33-194c0-3 3-5 6-5h77c23 0 32-12 41-25 10-12 21-26 46-25 3 1 6 4 5 7 0 3-3 6-6 5-18-1-26 9-35 21-11 13-22 29-51 29H97L66 467h27c30 1 65 2 84-1 27-3 37 6 48 16 8 8 18 17 41 18h132c10 0 19-11 19-23 0-13-9-23-19-23h-71c-3 0-6-3-6-6s3-6 6-6h71c17 0 31 16 31 35s-14 35-31 35z" fill="#ffffff" opacity="1" data-original="#000000"></path><path d="M377 281h-29c-4 0-6-3-6-6s2-6 6-6h29c19 0 36-15 39-34h-68c-4 0-6-2-6-6 0-3 2-6 6-6h74c4 0 6 3 6 6 0 29-23 52-51 52zm-72 0h-50c-3 0-6-3-6-6s3-6 6-6h50c3 0 6 3 6 6s-3 6-6 6zm0-46h-50c-3 0-6-2-6-6 0-3 3-6 6-6h50c3 0 6 3 6 6 0 4-3 6-6 6z" fill="#ffffff" opacity="1" data-original="#000000"></path><path d="M451 339H327c-3 0-6-3-6-6 0-4 3-6 6-6h124c11 0 19-10 19-23s-8-23-19-23H327c-3 0-6-3-6-6s3-6 6-6h124c18 0 31 16 31 35s-13 35-31 35z" fill="#ffffff" opacity="1" data-original="#000000"></path><path d="M451 396H327c-3 0-6-2-6-6 0-3 3-6 6-6h124c11 0 19-10 19-22 0-13-8-23-19-23H327c-3 0-6-3-6-6 0-4 3-6 6-6h124c18 0 31 15 31 35 0 19-13 34-31 34z" fill="#ffffff" opacity="1" data-original="#000000"></path><path d="M451 454H327c-3 0-6-3-6-6s3-6 6-6h124c11 0 19-10 19-23 0-12-8-23-19-23H327c-3 0-6-2-6-6 0-3 3-6 6-6h124c18 0 31 16 31 35s-13 35-31 35zM114 479h-1c-3-1-5-4-5-7l23-194c0-3 3-6 7-5 3 0 5 3 5 6l-23 194c0 4-3 6-6 6zM348 281h-43c-3 0-6-3-6-6V139c0-4 3-6 6-6h43c3 0 6 2 6 6v136c0 3-3 6-6 6zm-37-12h31V145h-31z" fill="#ffffff" opacity="1" data-original="#000000"></path><path d="M421 145H237c-13 0-23-10-23-23V22c0-12 10-22 23-22h184c12 0 22 10 22 22v100c0 13-10 23-22 23zM237 12c-6 0-11 5-11 10v100c0 6 5 11 11 11h184c5 0 10-5 10-11V22c0-5-5-10-10-10z" fill="#ffffff" opacity="1" data-original="#000000"></path><path d="M312 104c-1 0-3 0-4-1l-19-19c-2-3-2-7 0-9s6-2 9 0l14 15 48-48c2-2 6-2 8 0 3 3 3 6 0 9l-52 52c-1 1-2 1-4 1zM117 251c-48 0-87-40-87-88 0-49 39-88 87-88 49 0 88 39 88 88 0 48-39 88-88 88zm0-164c-41 0-75 34-75 76s34 76 75 76c42 0 76-34 76-76s-34-76-76-76z" fill="#ffffff" opacity="1" data-original="#000000"></path><path d="M117 213c-15 0-28-13-28-28 0-3 3-6 6-6 4 0 6 3 6 6 0 9 8 16 16 16 9 0 17-7 17-16s-8-16-17-16c-15 0-28-13-28-28 0-16 13-29 28-29 16 0 29 13 29 29 0 3-3 6-6 6-4 0-6-3-6-6 0-9-8-17-17-17-8 0-16 8-16 17s8 16 16 16c16 0 29 12 29 28 0 15-13 28-29 28z" fill="#ffffff" opacity="1" data-original="#000000"></path><path d="M117 220c-3 0-6-3-6-6V112c0-4 3-6 6-6 4 0 6 2 6 6v102c0 3-2 6-6 6z" fill="#ffffff" opacity="1" data-original="#000000"></path></g></svg>