<svg xmlns="http://www.w3.org/2000/svg" version="1.1" xmlns:xlink="http://www.w3.org/1999/xlink" width="512" height="512" x="0" y="0" viewBox="0 0 512 512" style="enable-background:new 0 0 512 512" xml:space="preserve"><g><path d="M500.12 343.1a6.99 6.99 0 0 0-5.98-5.85l-16.51-2.24a116.693 116.693 0 0 0-12.49-30.17l10.1-13.27a7.02 7.02 0 0 0 .09-8.37 139.248 139.248 0 0 0-30.46-30.46 7.006 7.006 0 0 0-8.37.09l-13.26 10.1c-9.43-5.56-19.54-9.75-30.17-12.49l-2.24-16.51a6.99 6.99 0 0 0-5.85-5.97 139.74 139.74 0 0 0-15.79-1.56v-26.12c8.1-7.38 12.19-15.96 12.19-25.69V91.35c0-7.49-6.34-13.58-14.13-13.58h-86.01V38.74C281.24 22.34 267.9 9 251.5 9H140.09c-16.4 0-29.74 13.34-29.74 29.74v39.03H24.33c-7.79 0-14.13 6.09-14.13 13.58v83.23c0 11.16 5.22 19.3 12.19 25.27V351.2c0 11.27 9.17 20.44 20.44 20.44h182.45c.25 4.86.73 9.71 1.48 14.54a6.99 6.99 0 0 0 5.98 5.85l16.51 2.24c2.74 10.62 6.93 20.74 12.49 30.17l-10.1 13.26a7.006 7.006 0 0 0-.09 8.37 139.248 139.248 0 0 0 30.46 30.46 6.99 6.99 0 0 0 8.36-.09l13.26-10.09c9.44 5.56 19.55 9.74 30.18 12.49l2.24 16.51a6.99 6.99 0 0 0 5.85 5.97 139.075 139.075 0 0 0 43.09 0 6.99 6.99 0 0 0 5.85-5.98l2.24-16.51c10.62-2.74 20.74-6.93 30.17-12.49l13.26 10.1a7.006 7.006 0 0 0 8.37.09 139.248 139.248 0 0 0 30.46-30.46c1.82-2.5 1.79-5.9-.09-8.37l-10.09-13.26c5.56-9.44 9.74-19.55 12.49-30.18l16.51-2.24c3.07-.42 5.5-2.8 5.98-5.85 2.24-14.3 2.24-28.79 0-43.08zM124.34 38.74c0-8.68 7.06-15.74 15.74-15.74h111.41c8.68 0 15.74 7.06 15.74 15.74v39.03H124.34zM24.2 91.78s.08-.01.13-.01h342.92c.05 0 .09 0 .13.01v82.8c0 15-19.26 24.46-35.42 29.76-21.17 6.94-50.61 11.34-85.49 12.82v-9.95c0-10.76-8.75-19.52-19.52-19.52h-63.21c-10.76 0-19.52 8.75-19.52 19.52v6.45c-33.11-3.2-64.19-6.35-86.47-12.47-30.08-8.26-33.56-19.14-33.56-26.61v-82.8zm134.03 129.55v-14.11c0-3.04 2.47-5.52 5.52-5.52h63.21c3.04 0 5.52 2.47 5.52 5.52v34.11c0 3.04-2.47 5.52-5.52 5.52h-63.21c-3.04 0-5.52-2.47-5.52-5.52v-19.99zM36.39 351.2V208.54c7.04 3.23 13.78 5.08 17.67 6.15 23.73 6.51 55.94 9.73 90.18 13.04v13.59c0 10.76 8.75 19.52 19.52 19.52h63.21c10.76 0 19.52-8.75 19.52-19.52v-10.15c36.41-1.51 67.37-6.16 89.85-13.52 7.13-2.34 13.42-4.95 18.87-7.81v16.72c-4.44.26-8.88.72-13.3 1.41a6.99 6.99 0 0 0-5.85 5.97l-2.24 16.51a116.549 116.549 0 0 0-30.17 12.49l-13.26-10.1a6.99 6.99 0 0 0-8.37-.08 139.248 139.248 0 0 0-30.46 30.46c-1.82 2.5-1.79 5.9.09 8.37l10.09 13.26c-5.56 9.43-9.74 19.55-12.49 30.18l-16.51 2.24c-3.07.42-5.5 2.8-5.98 5.85-.76 4.83-1.24 9.68-1.48 14.54H42.83c-3.55 0-6.44-2.89-6.44-6.44zm450.6 27.68-16 2.17c-2.93.4-5.29 2.58-5.9 5.47a102.958 102.958 0 0 1-14.29 34.54 6.997 6.997 0 0 0 .31 8.04l9.78 12.84c-5.93 7.46-12.67 14.2-20.13 20.13l-12.85-9.78a6.998 6.998 0 0 0-8.04-.31 103.185 103.185 0 0 1-34.54 14.3 7.001 7.001 0 0 0-5.47 5.91l-2.17 16c-9.46 1.08-19 1.09-28.47 0l-2.17-16a6.99 6.99 0 0 0-5.47-5.9A102.958 102.958 0 0 1 307.04 452a6.996 6.996 0 0 0-8.04.31l-12.84 9.78c-7.46-5.93-14.2-12.67-20.13-20.13l9.78-12.85a6.998 6.998 0 0 0 .31-8.04c-6.84-10.57-11.65-22.2-14.3-34.54a6.989 6.989 0 0 0-5.9-5.47l-16-2.17c-.54-4.72-.81-9.45-.81-14.19v-.1c0-4.73.27-9.47.81-14.19l16-2.17c2.93-.4 5.29-2.58 5.9-5.47 2.64-12.35 7.45-23.97 14.29-34.54a6.997 6.997 0 0 0-.31-8.04l-9.78-12.84c5.93-7.46 12.67-14.2 20.13-20.13L299 277a6.998 6.998 0 0 0 8.04.31 102.958 102.958 0 0 1 34.54-14.29 7.001 7.001 0 0 0 5.47-5.9l2.17-16c9.46-1.09 19-1.08 28.47 0l2.17 16a6.99 6.99 0 0 0 5.47 5.9c12.35 2.65 23.97 7.46 34.54 14.3 2.48 1.6 5.7 1.48 8.04-.31l12.85-9.78c7.46 5.93 14.2 12.67 20.13 20.13l-9.78 12.85a6.998 6.998 0 0 0-.31 8.04 103.185 103.185 0 0 1 14.3 34.54 7.001 7.001 0 0 0 5.9 5.47l16 2.17c1.09 9.46 1.08 19 0 28.47zM363.44 301.1c-16.97 0-32.93 6.61-44.93 18.61-24.77 24.77-24.77 65.08 0 89.86 12 12 27.96 18.61 44.93 18.61s32.93-6.61 44.93-18.61c24.77-24.77 24.77-65.08 0-89.86-12-12-27.96-18.61-44.93-18.61zm35.03 98.57c-9.36 9.36-21.8 14.51-35.03 14.51s-25.67-5.15-35.03-14.51-14.51-21.8-14.51-35.03 5.15-25.67 14.51-35.03 21.8-14.51 35.03-14.51 25.67 5.15 35.03 14.51 14.51 21.8 14.51 35.03-5.15 25.67-14.51 35.03z" fill="#ffffff" opacity="1" data-original="#000000"></path></g></svg>