<svg xmlns="http://www.w3.org/2000/svg" version="1.1" xmlns:xlink="http://www.w3.org/1999/xlink" width="512" height="512" x="0" y="0" viewBox="0 0 64 64" style="enable-background:new 0 0 512 512" xml:space="preserve" class=""><g><path d="M26.572 41.836a1 1 0 0 0 .827.438h7.087a1 1 0 0 0 1-1v-9.1a1 1 0 0 0-1-1h-3.48a1 1 0 0 0-.93.632l-3.606 9.1a1 1 0 0 0 .102.93zm5.113-8.662h1.801v7.1h-4.615zM23.162 50.472a4.08 4.08 0 0 0-4.073 4.077 4.078 4.078 0 0 0 4.073 4.073 4.08 4.08 0 0 0 4.077-4.073 4.081 4.081 0 0 0-4.077-4.077zm0 6.15a2.075 2.075 0 1 1 .004-4.15 2.075 2.075 0 0 1-.004 4.15zM39.178 50.472a4.08 4.08 0 0 0-4.073 4.077 4.078 4.078 0 0 0 4.073 4.073 4.079 4.079 0 0 0 4.076-4.073 4.08 4.08 0 0 0-4.076-4.077zm0 6.15a2.075 2.075 0 0 1 0-4.15c1.144 0 2.076.932 2.076 2.077a2.077 2.077 0 0 1-2.076 2.073z" fill="#ffffff" opacity="1" data-original="#000000" class=""></path><path d="M39.178 53.518c-.553 0-1 .479-1 1.03a1 1 0 0 0 2 0v-.06c0-.553-.447-.97-1-.97zM23.162 53.518c-.553 0-1 .479-1 1.03a1 1 0 0 0 2 0v-.06c0-.553-.447-.97-1-.97z" fill="#ffffff" opacity="1" data-original="#000000" class=""></path><path d="M56.437 47.435V37.123c0-2.04-1.663-3.7-3.705-3.7h-.31V29.49a1.85 1.85 0 0 0 1.56-1.823v-2.159c0-1.02-.83-1.849-1.851-1.849h-5.599c-1.021 0-1.852.83-1.852 1.85v2.158a1.85 1.85 0 0 0 1.56 1.823v3.933h-6.863v-5.098a1 1 0 0 0-1-1H31.66L8.916 2.634a1 1 0 0 0-1.338-.12L3.865 5.32a1 1 0 0 0-.25 1.32l.417.68v20.053C2.294 27.82 1 29.388 1 31.264c0 1.878 1.294 3.447 3.032 3.895v1.592a3.772 3.772 0 0 0-2.768 3.63 3.773 3.773 0 0 0 3.768 3.769 3.77 3.77 0 0 0 3.765-3.77 1 1 0 1 0-2 0c0 .976-.792 1.77-1.765 1.77a1.77 1.77 0 0 1-1.768-1.77c0-.972.793-1.764 1.768-1.764a1 1 0 0 0 1-1v-2.457c1.739-.448 3.032-2.017 3.032-3.895 0-1.876-1.293-3.443-3.032-3.891V10.584L22.87 38.061l-1.297 3.147c-.05.12-.075.25-.075.38v5.897c-3.463.489-6.139 3.466-6.139 7.064 0 3.937 3.202 7.14 7.139 7.14H55.86c3.937 0 7.14-3.203 7.14-7.14 0-3.744-2.896-6.818-6.563-7.114zM46.68 25.66h5.302v1.86H46.68zm1.56 3.86h2.182v3.904H48.24zm4.492 5.904c.94 0 1.704.763 1.704 1.7v1.663h-3.681a1 1 0 1 0 0 2h3.681v2.075h-3.681a1 1 0 1 0 0 2h3.681v2.545H39.377V35.423zM37.377 47.406H23.498v-5.619l5.138-12.462h8.74v18.081zm-9.41-20.081a1 1 0 0 0-.925.618l-.177.429h-6.594l3.188-6.999 5.482 5.952zm-13.624-7.006 7.297.222-3.053 6.703zm6.483-1.804-7.079-.216 1.273-6.087zm-8.766-1.92L7.794 9.632l5.465 1.23zm-4-11.939 3.47 3.768-5.193-1.17-.543-.885zm-.996 26.608c0 1.123-.912 2.036-2.032 2.036S3 32.387 3 31.264c0-1.12.912-2.032 2.032-2.032s2.032.912 2.032 2.032zm13.44-.892h5.537l-2.227 5.401zM55.86 59.689H22.498a5.145 5.145 0 0 1-5.139-5.14 5.147 5.147 0 0 1 5.139-5.143H55.86A5.147 5.147 0 0 1 61 54.55a5.145 5.145 0 0 1-5.14 5.14z" fill="#ffffff" opacity="1" data-original="#000000" class=""></path><path d="M55.197 50.472a4.081 4.081 0 0 0-4.077 4.077 4.08 4.08 0 0 0 4.077 4.073 4.078 4.078 0 0 0 4.073-4.073 4.08 4.08 0 0 0-4.073-4.077zm0 6.15a2.077 2.077 0 0 1-2.077-2.073 2.08 2.08 0 0 1 2.077-2.077 2.075 2.075 0 0 1 0 4.15z" fill="#ffffff" opacity="1" data-original="#000000" class=""></path><path d="M55.197 53.518c-.552 0-1 .479-1 1.03a1 1 0 0 0 2 0v-.06c0-.553-.447-.97-1-.97z" fill="#ffffff" opacity="1" data-original="#000000" class=""></path></g></svg>