<svg width="1527" height="2007" xmlns="http://www.w3.org/2000/svg" xmlns:xlink="http://www.w3.org/1999/xlink" xml:space="preserve" overflow="hidden"><g transform="translate(-462 151)"><g><g><g><g><path d="M150.451 1414.41 150.451 1686.82C150.451 1697.28 158.747 1705.85 168.886 1705.85L886.025 1705.85C896.162 1705.85 904.464 1697.28 904.464 1686.82L904.464 1414.02C996.637 1384.92 1056 1341.92 1056 1283.71 1056 854.158 807.121 716.81 658.716 673.055 650.42 670.582 642.309 668.489 634.566 666.587 735.776 622.262 801.591 519.915 801.591 406.534L801.591 399.685C813.575 392.838 824.817 385.038 835.694 376.477 840.121 372.862 842.704 367.156 842.517 361.258 842.517 355.361 839.569 349.654 834.776 346.23 833.85 346.23 829.244 342.234 820.951 337.479 812.649 282.12 784.078 109.195 740.938 68.1044 691.9 21.8772 545.891 2.09259 529.668 0L525.244 0C509.02 2.09259 363.011 21.8772 314.895 67.1533 271.94 108.244 243.181 281.169 234.885 336.338 226.589 341.284 221.98 344.708 221.059 345.279 212.763 351.366 210.919 363.351 216.819 371.721 217.74 373.053 218.846 374.384 220.137 375.526 231.014 384.087 242.259 391.886 254.243 398.735L254.243 405.583C254.058 519.154 319.689 621.882 421.083 666.397L398.408 672.484 397.301 672.484C248.896 716.239 0.0175919 853.589 0.0175919 1283.15-1.08853 1339.26 49.9776 1383.02 150.451 1414.41ZM867.593 1667.8 187.321 1667.8 187.321 966.021 424.77 966.021 424.77 1164.25C424.77 1174.71 433.066 1183.26 443.206 1183.26L611.706 1183.26C621.845 1183.26 630.141 1174.71 630.141 1164.25L630.141 966.021 867.593 966.021 867.593 1667.8ZM462.01 1145.22 462.01 966.021 593.639 966.021 593.639 1145.22 462.01 1145.22ZM339.967 95.689C372.783 64.49 484.132 43.7543 527.456 38.6179 570.779 44.3249 682.129 65.0607 714.944 95.689 739.832 119.659 765.273 230.946 779.469 316.553 699.459 283.071 613.733 266.331 527.456 267.852 441.178 266.331 355.453 282.69 275.443 316.362 289.639 230.756 315.08 119.659 339.967 95.689ZM527.456 305.9C617.42 303.807 706.648 323.401 788.133 362.97 708.492 408.627 618.527 431.836 527.456 429.933 436.385 431.646 346.42 408.436 266.779 362.78 348.263 323.021 437.491 303.616 527.456 305.9ZM291.482 418.71C365.961 452.191 446.34 468.931 527.456 467.98 608.572 468.931 688.951 452.191 763.43 418.71 756.055 553.206 644.521 656.124 514.182 648.515 393.983 641.666 298.119 542.553 291.482 418.71ZM623.32 702.922 527.456 842.745 431.591 702.922C462.932 694.932 495.193 690.176 527.456 688.654 559.718 690.176 591.98 694.932 623.32 702.922ZM393.799 713.956 512.339 887.259C518.238 895.821 529.668 897.917 537.964 892.019 539.808 890.687 541.282 889.16 542.573 887.259L661.113 713.956C800.485 758.851 1019.13 891.638 1019.13 1284.66 1019.13 1320.24 976.54 1351.82 904.464 1375.98L904.464 946.996C904.464 936.534 896.162 927.972 886.025 927.972L168.886 927.972C158.747 927.972 150.451 936.534 150.451 946.996L150.451 1375.03C78.3683 1350.87 35.7824 1319.29 35.7824 1283.71 35.7824 891.069 254.427 758.28 393.799 713.956Z" fill="#FFFFFF" fill-rule="nonzero" fill-opacity="1" transform="matrix(1 0 0 1.03175 467 93.0002)"/></g></g></g><text fill="#FFFFFF" fill-opacity="1" font-family="Calibri,Calibri_MSFontService,sans-serif" font-style="normal" font-variant="normal" font-weight="700" font-stretch="normal" font-size="550" text-anchor="start" direction="ltr" writing-mode="lr-tb" unicode-bidi="normal" text-decoration="none" transform="matrix(1 0 0 1 1384.08 532)">+</text></g></g></svg>