<svg viewBox="0 0 64 64" xml:space="preserve" xmlns="http://www.w3.org/2000/svg"><g fill="#ffffff" class="fill-37474f"><path d="m21.111 45.793-.887.865-.376.366.089.519.911 5.314-4.772-2.509-.466-.245-.465.245-4.772 2.509.912-5.314.089-.519-.376-.366-3.861-3.762 5.335-.777.52-.075.233-.472 2.385-4.833 2.386 4.833.233.472.52.075 2.92.426.169-.986-2.945-.429-3.283-6.651-3.282 6.651-7.341 1.068 5.313 5.176-1.255 7.312 6.565-3.454 6.566 3.454-1.254-7.312zM59.233 42.198l-7.34-1.068-3.283-6.651-3.282 6.651-3.16.46.169.986 3.135-.457.52-.075.233-.472 2.385-4.833 2.386 4.833.233.472.52.075 5.335.777-3.86 3.762-.376.366.089.519.911 5.314-4.772-2.509-.466-.245-.465.245-4.772 2.509.912-5.314.089-.519-.376-.366-1.153-1.124.287 1.677.168.163-1.255 7.312 6.565-3.454 6.566 3.454-1.254-7.312z"></path><path d="m47.888 26.792-10.979-1.596L32 15.25l-4.908 9.946-10.979 1.596 7.946 7.74-1.877 10.935L32 40.305l9.818 5.162-1.876-10.935 7.946-7.74zm-7.37 16.884-8.061-4.236-.457-.242-.457.241-8.061 4.236 1.542-8.977.087-.51-.37-.357-6.522-6.354 9.014-1.312.511-.074.226-.461L32 17.465l4.032 8.166.226.461.511.074 9.013 1.312-6.522 6.354-.369.357.087.51 1.54 8.977zM8.126 10.377l8.58 9.664-.749.664-8.58-9.664zM5.787 21.44l8.853 3.262-.345.938-8.853-3.262zM19.422 8.463 22.62 19.34l-.96.282-3.198-10.875zM55.956 10.378l.748.664-8.58 9.664-.748-.664zM58.644 22.381l-8.853 3.262-.345-.937 8.853-3.262zM44.66 8.465l.961.282-3.198 10.876-.96-.282z"></path></g></svg>