<svg width="600" height="513" xmlns="http://www.w3.org/2000/svg" xmlns:xlink="http://www.w3.org/1999/xlink" xml:space="preserve" overflow="hidden"><g transform="translate(-292 -100)"><g><g><g><g><path d="M471.543 418.883 451.106 418.883 451.106 149.542C451.107 145.13 447.531 141.552 443.118 141.55 443.116 141.55 443.116 141.55 443.114 141.55L389.818 141.55C385.405 141.549 381.827 145.126 381.825 149.538 381.825 149.54 381.825 149.542 381.825 149.542L381.825 418.883 343.964 418.883 343.964 216.048C343.965 211.636 340.389 208.058 335.976 208.056 335.975 208.056 335.973 208.056 335.971 208.056L282.675 208.056C278.263 208.055 274.684 211.632 274.683 216.044 274.683 216.046 274.683 216.048 274.683 216.048L274.683 418.883 236.821 418.883 236.821 266.016C236.823 261.603 233.246 258.025 228.834 258.024 228.832 258.024 228.83 258.024 228.829 258.024L175.533 258.024C171.12 258.022 167.542 261.599 167.541 266.012 167.541 266.013 167.541 266.014 167.541 266.016L167.541 418.884 129.679 418.884 129.679 319.784C129.68 315.371 126.104 311.793 121.691 311.792 121.689 311.792 121.689 311.792 121.687 311.792L68.3908 311.792C63.978 311.791 60.3997 315.367 60.3985 319.78 60.3985 319.781 60.3985 319.782 60.3985 319.784L60.3985 418.883 39.9613 418.883C35.5473 418.955 32.0268 422.591 32.0982 427.005 32.1679 431.318 35.6481 434.798 39.9618 434.868 57.3574 434.849 471.543 434.868 471.543 434.868 475.957 434.802 479.483 431.171 479.417 426.757 479.353 422.436 475.865 418.948 471.543 418.883ZM76.3831 418.883 76.3831 327.776 113.695 327.776 113.695 418.883ZM183.525 418.883 183.525 274.008 220.837 274.008 220.837 418.884ZM290.667 418.883 290.667 224.041 327.979 224.041 327.979 418.883ZM397.81 418.883 397.81 157.535 435.122 157.535 435.122 418.883Z" fill="#FFFFFF" fill-rule="nonzero" fill-opacity="1" transform="matrix(1 0 0 1.00097 336.248 101)"/><path d="M134.393 227.327C229.695 219.472 294.169 154.362 323.776 116.256L321.653 132.489C321.167 136.878 324.33 140.83 328.718 141.317 332.986 141.79 336.864 138.809 337.505 134.565L343.897 85.6674C344.343 81.74 341.847 78.0777 338.029 77.0577 337.148 76.8568 336.253 76.7239 335.351 76.6601L286.188 80.4924C281.786 80.8257 278.488 84.6644 278.822 89.0665 279.155 93.4687 282.995 96.7663 287.396 96.4322 287.407 96.4314 287.418 96.4306 287.429 96.4298L320.285 93.8683C297.967 125.298 233.453 202.617 133.703 211.374 129.31 211.852 126.136 215.8 126.614 220.193 127.049 224.186 130.377 227.239 134.393 227.327Z" fill="#FFFFFF" fill-rule="nonzero" fill-opacity="1" transform="matrix(1 0 0 1.00097 336.248 101)"/></g></g></g></g></g></svg>