<svg xmlns="http://www.w3.org/2000/svg" version="1.1" xmlns:xlink="http://www.w3.org/1999/xlink" width="512" height="512" x="0" y="0" viewBox="0 0 682.667 682.667" style="enable-background:new 0 0 512 512" xml:space="preserve"><g><defs><clipPath id="a" clipPathUnits="userSpaceOnUse"><path d="M0 512h512V0H0Z" fill="#fffdfd" opacity="1" data-original="#000000"></path></clipPath></defs><g clip-path="url(#a)" transform="matrix(1.33333 0 0 -1.33333 0 682.667)"><path d="M0 0c0-10.399-8.431-18.83-18.83-18.83S-37.659-10.399-37.659 0s8.43 18.83 18.829 18.83C-8.431 18.83 0 10.399 0 0Z" style="stroke-width:15;stroke-linecap:round;stroke-linejoin:round;stroke-miterlimit:10;stroke-dasharray:none;stroke-opacity:1" transform="translate(204.615 453.065)" fill="none" stroke="#fffdfd" stroke-width="15" stroke-linecap="round" stroke-linejoin="round" stroke-miterlimit="10" stroke-dasharray="none" stroke-opacity="" data-original="#000000" opacity="1"></path><path d="M0 0c0-10.399-8.43-18.83-18.83-18.83-10.399 0-18.829 8.431-18.829 18.83s8.43 18.83 18.829 18.83C-8.43 18.83 0 10.399 0 0Z" style="stroke-width:15;stroke-linecap:round;stroke-linejoin:round;stroke-miterlimit:10;stroke-dasharray:none;stroke-opacity:1" transform="translate(393.204 195.525)" fill="none" stroke="#fffdfd" stroke-width="15" stroke-linecap="round" stroke-linejoin="round" stroke-miterlimit="10" stroke-dasharray="none" stroke-opacity="" data-original="#000000" opacity="1"></path><path d="M0 0c41.06-33.696 93.593-53.926 150.854-53.926 4.334 0 8.649.113 12.932.351l-6.182 15.008c-3.964 9.622-.738 20.678 7.69 26.691a22.287 22.287 0 0 1 9.382 18.187c-.497 4.313 2.133 14.147-6.038 22.862L156.984 41.6c-7.152 7.628-8.05 19.209-2.157 27.847l3.128 4.583c8.37 12.283 2.632 29.158-11.477 33.793l-33.834 11.106a13.292 13.292 0 0 0-7.36 5.966l-23.203 39.913c-5.047 8.701-17.557 8.866-22.842.299l-5.552-9a13.316 13.316 0 0 0-11.323-6.327c-8.746 0-15.091 8.259-12.902 16.679l12.015 45.994a13.31 13.31 0 0 0 6.791 8.484l24.483 12.603c5.518 2.828 8.198 9.001 6.904 14.728a25.788 25.788 0 0 1-20.828 19.828c-12.499 2.61-20.505 2.049-30.521 8.133l-35.527 21.562a41.086 41.086 0 0 0-18.125 23.636l-4.933 16.938c-35.445-41.554-56.83-95.443-56.83-154.328 0-63.361 24.768-120.932 65.145-163.575" style="stroke-width:15;stroke-linecap:round;stroke-linejoin:round;stroke-miterlimit:10;stroke-dasharray:none;stroke-opacity:1" transform="translate(105.151 61.426)" fill="none" stroke="#fffdfd" stroke-width="15" stroke-linecap="round" stroke-linejoin="round" stroke-miterlimit="10" stroke-dasharray="none" stroke-opacity="" data-original="#000000" opacity="1"></path><path d="M0 0c-29.992.109-53.28-25.902-51.493-55.842 1.824-30.556 22.118-58.068 36.626-74.027 7.86-8.646 21.465-8.672 29.327-.027 15.204 16.719 36.783 46.141 36.783 78.462C51.243-23.091 28.319-.103 0 0Z" style="stroke-width:15;stroke-linecap:round;stroke-linejoin:round;stroke-miterlimit:10;stroke-dasharray:none;stroke-opacity:1" transform="translate(185.976 504.5)" fill="none" stroke="#fffdfd" stroke-width="15" stroke-linecap="round" stroke-linejoin="round" stroke-miterlimit="10" stroke-dasharray="none" stroke-opacity="" data-original="#000000" opacity="1"></path><path d="m0 0-9.671-17.196a23.225 23.225 0 0 0-18.383-11.766 23.212 23.212 0 0 1-18.599-12.159l-8.856-16.504a23.223 23.223 0 0 0-22.119-12.18c-5.53.37-6.572.548-9.207.548a43.093 43.093 0 0 1-31.749-13.955c-16.168-17.653-8.396-36.39-21.706-54.075l-20.189-26.939c-4.696-6.275-3.354-15.183 2.994-19.787l17.495-12.685a14.068 14.068 0 0 1 11.776-2.219 899.089 899.089 0 0 1 13.692 3.522c4.068 24.575 24.954 43.968 50.856 43.874 28.319-.103 51.243-23.091 51.243-51.434 0-5.976-.741-11.852-2.04-17.568.176-.13.355-.266.54-.41l46.085-35.444c15.101 31.253 23.565 66.326 23.565 103.36C55.727-94.752 34.773-41.369 0 0Z" style="stroke-width:15;stroke-linecap:round;stroke-linejoin:round;stroke-miterlimit:10;stroke-dasharray:none;stroke-opacity:1" transform="translate(438.231 398.48)" fill="none" stroke="#fffdfd" stroke-width="15" stroke-linecap="round" stroke-linejoin="round" stroke-miterlimit="10" stroke-dasharray="none" stroke-opacity="" data-original="#000000" opacity="1"></path><path d="M0 0c-29.338 12.937-61.78 20.125-95.903 20.125-9.33 0-18.532-.546-27.581-1.59a51.2 51.2 0 0 0 8.796-28.771c0-32.321-21.581-61.743-36.784-78.462-7.862-8.644-21.466-8.619-29.327.028-14.508 15.959-34.803 43.47-36.626 74.026-.028.467-.032.929-.048 1.393A239.172 239.172 0 0 1-277.036-63.5v-.01l4.933-16.938a41.09 41.09 0 0 1 18.125-23.636l35.527-21.562c10.016-6.085 18.022-5.524 30.521-8.134a25.784 25.784 0 0 0 20.828-19.827c1.294-5.728-1.386-11.9-6.904-14.729l-24.483-12.602a13.314 13.314 0 0 1-6.791-8.485l-12.015-45.993c-2.188-8.42 4.156-16.679 12.902-16.679 4.562 0 8.867 2.353 11.323 6.326l5.552 9.001c5.286 8.567 17.795 8.402 22.842-.299l23.203-39.914a13.296 13.296 0 0 1 7.36-5.966l33.834-11.106c14.109-4.634 19.847-21.509 11.477-33.792l-3.128-4.583c-5.893-8.639-4.995-20.22 2.158-27.847l11.653-12.428c8.171-8.714 5.541-18.549 6.038-22.862a22.284 22.284 0 0 0-9.382-18.186c-8.428-6.014-11.654-17.069-7.69-26.692l6.182-15.008c88.849 4.759 164.764 58.255 201.456 134.253L72.4-285.754c-.185.144-.364.279-.54.41-5.725-25.198-22.35-47.267-34.743-60.894-7.861-8.645-21.467-8.619-29.326.027-14.508 15.959-34.803 43.471-36.627 74.027a53.628 53.628 0 0 0 .637 11.968 899.089 899.089 0 0 0-13.692-3.522 14.065 14.065 0 0 0-11.776 2.219l-17.495 12.685c-6.348 4.604-7.69 13.511-2.993 19.787l20.188 26.939c13.31 17.685 5.538 36.421 21.706 54.074A43.09 43.09 0 0 0-.512-134.079c2.635 0 3.677-.177 9.207-.547a23.223 23.223 0 0 1 22.119 12.18l8.856 16.504a23.209 23.209 0 0 0 18.6 12.158 23.225 23.225 0 0 1 18.382 11.767l9.671 17.196A239.055 239.055 0 0 1 27.856-14.57" style="stroke-width:15;stroke-linecap:round;stroke-linejoin:round;stroke-miterlimit:10;stroke-dasharray:none;stroke-opacity:1" transform="translate(351.908 463.301)" fill="none" stroke="#fffdfd" stroke-width="15" stroke-linecap="round" stroke-linejoin="round" stroke-miterlimit="10" stroke-dasharray="none" stroke-opacity="" data-original="#000000" opacity="1"></path><path d="M0 0c-29.992.109-53.28-25.902-51.493-55.841 1.824-30.556 22.118-58.068 36.626-74.028 7.86-8.646 21.465-8.672 29.327-.027 15.204 16.719 36.783 46.141 36.783 78.462C51.243-23.091 28.318-.103 0 0Z" style="stroke-width:15;stroke-linecap:round;stroke-linejoin:round;stroke-miterlimit:10;stroke-dasharray:none;stroke-opacity:1" transform="translate(374.566 246.959)" fill="none" stroke="#fffdfd" stroke-width="15" stroke-linecap="round" stroke-linejoin="round" stroke-miterlimit="10" stroke-dasharray="none" stroke-opacity="" data-original="#000000" opacity="1"></path></g></g></svg>