<svg viewBox="0 0 24 24" xml:space="preserve" xmlns="http://www.w3.org/2000/svg"><path d="M14.5 23.5h-3c-.3 0-.5-.2-.5-.5v-9.2c0-.1 0-.2.1-.3-.1-.1-.1-.2-.1-.3V6.8H9c-.2 0-.4-.1-.5-.3-.1-.2 0-.4.1-.5L13.9.7c.2-.2.5-.2.7 0l5.2 5.2c.2.1.3.2.3.4 0 .3-.2.5-.5.5h-2v6.3c0 .1-.1.3-.1.4l-4.3 4.3h1.3c.3 0 .5.2.5.5V23c0 .3-.3.5-.5.5zm-2.6-1h2v-3.8h-2.1v3.8zm0-8.2v3.2l4.7-4.7V6.3c0-.3.2-.5.5-.5h1.3l-4.1-4.1-4.1 4.1h1.3c.3 0 .5.2.5.5v6.8l.4.4c.1.1.2.4.1.5s-.3.3-.6.3z" fill="#ffffff" class="fill-000000"></path><path d="M9.5 23.5H3.9c-.3 0-.5-.2-.5-.5v-8.7h-2c-.2 0-.4-.1-.5-.3-.1-.2 0-.4.1-.5l5.3-5.3c.2-.2.6-.2.7 0l5.3 5.3c.1.1.2.4.1.5-.1.2-.3.3-.5.3h-2V23c.1.3-.1.5-.4.5zm-5.1-1H9v-8.7c0-.3.2-.5.5-.5h1.3L6.7 9.2l-4.1 4.1h1.3c.3 0 .5.2.5.5v8.7zM20.1 23.5h-5.7c-.3 0-.5-.2-.5-.5v-4.3h-2c-.2 0-.4-.1-.5-.3-.1-.2 0-.4.1-.5l5.3-5.3c.1-.1.2-.1.4-.1.1 0 .3.1.4.1l5.3 5.3c.1.1.2.4.1.5-.1.2-.3.3-.5.3h-2V23c.1.3-.1.5-.4.5zm-5.1-1h4.7v-4.3c0-.3.2-.5.5-.5h1.3l-4.1-4.1-4.1 4.1h1.3c.3 0 .5.2.5.5v4.3z" fill="#ffffff" class="fill-000000"></path></svg>