<svg width="600" height="512" xmlns="http://www.w3.org/2000/svg" xmlns:xlink="http://www.w3.org/1999/xlink" xml:space="preserve" overflow="hidden"><g transform="translate(-292 -104)"><g><g><g><g><path d="M298.181 329.43C286.004 329.43 276.097 339.337 276.097 351.514 276.097 363.691 286.004 373.598 298.181 373.598 310.357 373.598 320.265 363.691 320.265 351.514 320.265 339.337 310.357 329.43 298.181 329.43ZM298.181 360.259C293.359 360.259 289.436 356.337 289.436 351.514 289.436 346.692 293.359 342.769 298.181 342.769 303.003 342.769 306.926 346.692 306.926 351.514 306.925 356.337 303.003 360.259 298.181 360.259Z" fill="#FFFFFF" fill-rule="nonzero" fill-opacity="1" transform="matrix(1 0 0 1.00097 364.381 132.16)"/><path d="M413.108 416.239 408.856 416.239C409.768 412.397 409.161 415.21 409.341 347.257 409.341 343.574 406.356 340.588 402.673 340.587 402.673 340.587 402.672 340.587 402.671 340.587 398.988 340.587 396.002 343.572 396.002 347.255 396.002 347.256 396.002 347.256 396.002 347.257L396.002 412.238C396.002 414.406 394.169 416.24 392 416.24L204.36 416.24C202.191 416.24 200.358 414.407 200.358 412.238L200.358 290.795C200.358 288.626 202.19 286.793 204.36 286.793L392 286.793C394.169 286.793 396.002 288.625 396.002 290.795L396.002 316.132C396.001 319.814 398.987 322.8 402.67 322.801 402.67 322.801 402.671 322.801 402.671 322.801 406.354 322.801 409.34 319.816 409.341 316.133 409.341 316.133 409.341 316.132 409.341 316.132L409.341 290.795C409.341 281.233 401.561 273.454 392 273.454L250.571 273.454 235.697 268.395C234.573 268.009 233.819 266.951 233.819 265.763L233.819 249.417C258.028 235.029 273.584 210.266 276.423 183.23 296.835 184.176 310.826 164.687 302.357 147.786L302.357 93.4129C302.357 54.0916 280.972 40.4131 274.439 37.1518 236.759-7.82976 159.094-14.3738 111.373 30.8318 106.971 34.9645 109.929 42.3639 115.94 42.3639 120.853 42.3639 120.103 38.9247 135.286 29.0535 136.411 28.3235 138.591 27.0369 138.501 27.0903 177.828 3.48453 235.84 10.7159 265.085 46.7776 265.834 47.6996 266.745 48.3798 267.858 48.7959 268.723 49.1427 289.017 57.6838 289.017 93.4138L289.017 135.509C285.317 133.943 281.26 133.14 276.936 133.261L276.936 111.445C276.936 105.911 272.766 101.337 267.239 100.803 256.03 99.7214 249.749 92.418 246.453 86.483 242.329 79.0551 232.481 77.2751 226.025 82.7922 196.286 108.215 162.046 109.506 138.554 106.117 120.752 103.546 104.298 115.697 101.437 133.269 97.1527 133.076 92.8799 133.841 88.929 135.507 89.3469 114.737 85.8197 92.2535 102.273 63.5636 104.106 60.3686 103.002 56.2926 99.8067 54.4598 96.6117 52.6269 92.5357 53.7312 90.7028 56.9262 80.668 74.4245 75.816 94.639 75.6862 109.007 75.5199 113.308 75.6204 111.734 75.591 147.784 67.1104 164.708 81.157 184.172 101.525 183.228 104.447 211.051 120.937 236.69 146.619 250.85L146.619 265.76C146.619 266.949 145.863 268.005 144.744 268.39 118.307 277.633 149.462 266.394 80.1496 290.973 74.099 292.767 75.4408 292.3 73.0525 293.274 58.1861 299.518 48.9987 311.457 46.0289 326.142 25.224 430.642 26.0144 424.717 26.1558 430.398 26.8049 446.871 37.3429 455.237 53.5715 455.237L212.075 455.237C215.758 455.238 218.744 452.253 218.744 448.57 218.744 448.569 218.744 448.568 218.744 448.568 218.745 444.885 215.759 441.899 212.077 441.898 212.076 441.898 212.075 441.898 212.075 441.898L190.219 441.898C180.896 441.897 177.809 429.577 183.256 429.577L413.111 429.577C418.567 429.577 415.444 441.898 406.148 441.898L243.198 441.898C239.515 441.898 236.529 444.883 236.529 448.566 236.529 448.567 236.529 448.567 236.529 448.568 236.528 452.251 239.513 455.237 243.196 455.237 243.197 455.237 243.198 455.237 243.198 455.237L406.144 455.237C418.816 455.237 429.126 444.927 429.126 432.255 429.127 423.424 421.942 416.239 413.108 416.239ZM276.936 146.604C284.626 146.198 291.512 151.379 291.512 158.252 291.512 165.192 284.554 170.303 276.936 169.9L276.936 146.604ZM101.01 169.899C93.3196 170.307 86.4332 165.125 86.4332 158.252 86.4332 151.311 93.3916 146.2 101.01 146.603L101.01 169.899ZM114.455 177.555C114.286 174.469 114.369 175.584 114.349 141.209 114.549 140.089 112.914 130.922 121.043 123.881 125.336 120.168 131.03 118.503 136.647 119.32 162.862 123.107 201.155 121.599 234.692 92.9319L234.79 92.9577C241.232 104.559 251.398 111.883 263.596 113.782 263.596 174.068 264.377 179.946 261.38 191.88 259.536 199.255 256.354 206.701 252.483 212.95 213.343 274.811 118.103 250.492 114.455 177.555ZM87.1347 441.9 53.5688 441.9C42.1514 441.9 40.1046 436.497 39.5978 431.789 39.0696 426.881 40.158 424.679 44.7504 400.853L87.1347 400.853 87.1347 441.9ZM183.253 416.24 183.253 416.239C172.416 416.239 163.913 426.737 168.535 439.872 168.779 440.56 169.053 441.237 169.356 441.901L100.474 441.901 100.474 379.038C100.475 375.355 97.4897 372.369 93.8068 372.369 93.8062 372.369 93.8056 372.369 93.805 372.369 90.1221 372.368 87.1361 375.353 87.1356 379.036 87.1356 379.037 87.1356 379.038 87.1356 379.038L87.1356 387.515 47.4062 387.515C59.9875 324.369 59.2655 327.011 60.6375 323.372 63.3832 316.163 67.4732 311.944 73.3424 308.071 78.5608 305.061 79.152 305.227 84.0512 303.732 84.4042 303.632 82.048 304.451 122.496 290.122L122.499 290.122 146.656 281.837C146.818 293.412 154.234 303.612 165.23 307.294 172.192 309.627 179.513 310.911 187.02 311.143 187.443 412.629 186.412 411.713 187.486 416.24L183.253 416.24ZM187.019 290.793 187.019 297.805C180.958 297.581 175.065 296.521 169.465 294.644 163.794 292.747 159.972 287.432 159.98 281.452 159.964 265.267 160.006 275.149 159.955 256.791 188.135 266.592 210.312 258.817 211.82 258.702L211.804 258.648 211.894 258.623 211.91 258.677C214.234 257.921 215.014 257.977 220.48 255.875L220.48 273.449 204.361 273.449C194.799 273.451 187.019 281.231 187.019 290.793Z" fill="#FFFFFF" fill-rule="nonzero" fill-opacity="1" transform="matrix(1 0 0 1.00097 364.381 132.16)"/></g></g></g></g></g></svg>