<svg xmlns="http://www.w3.org/2000/svg" version="1.1" xmlns:xlink="http://www.w3.org/1999/xlink" width="512" height="512" x="0" y="0" viewBox="0 0 512 512" style="enable-background:new 0 0 512 512" xml:space="preserve"><g><path d="M406.065 263.067a105.709 105.709 0 0 0-95.54 60.121H47.944a8 8 0 0 0-5.5 2.191L2.5 363.192a8 8 0 0 0 0 11.62l39.944 37.814a8 8 0 0 0 5.5 2.19h47.518a8 8 0 0 0 5.816-2.506l23.434-24.81 23.436 24.809a8 8 0 0 0 11.631 0l23.435-24.81 23.434 24.81a8 8 0 0 0 5.816 2.506h98.061a105.944 105.944 0 1 0 95.54-151.749Zm0 195.871a89.766 89.766 0 0 1-82.985-55.213 8 8 0 0 0-7.379-4.909h-99.788l-26.884-28.459a8 8 0 0 0-11.631 0l-23.435 24.809-23.435-24.809a8 8 0 0 0-11.631 0l-26.883 28.459H51.13L19.637 369l31.493-29.812H315.7a8 8 0 0 0 7.379-4.908 89.944 89.944 0 1 1 82.985 124.658ZM430.3 338.522A30.48 30.48 0 1 0 460.777 369a30.514 30.514 0 0 0-30.477-30.478Zm0 44.959A14.48 14.48 0 1 1 444.777 369a14.5 14.5 0 0 1-14.477 14.481ZM326.2 172.657c0-74.767-60.826-135.594-135.593-135.594s-135.6 60.827-135.6 135.594S115.834 308.25 190.6 308.25s135.594-60.827 135.594-135.593Zm-207.45 95.537a72 72 0 0 1 65.132-69.214 48.655 48.655 0 0 0 13.45 0 72 72 0 0 1 65.131 69.214 119.348 119.348 0 0 1-143.713 0Zm38.107-118.5a33.75 33.75 0 1 1 39.908 33.176c-2.036-.141-4.088-.219-6.158-.219s-4.123.078-6.158.219a33.8 33.8 0 0 1-27.598-33.17Zm-85.85 22.963a119.594 119.594 0 1 1 206.147 82.448 88.217 88.217 0 0 0-55.329-66.715 49.75 49.75 0 1 0-62.448 0 88.213 88.213 0 0 0-55.33 66.715 119.178 119.178 0 0 1-33.04-82.448Z" fill="#ffffff" opacity="1" data-original="#000000"></path></g></svg>