<svg width="632" height="513" xmlns="http://www.w3.org/2000/svg" xmlns:xlink="http://www.w3.org/1999/xlink" xml:space="preserve" overflow="hidden"><g transform="translate(-430 -17)"><g><g><g><g><path d="M255.89 175.925C251.484 175.925 247.894 172.342 247.894 167.928L231.901 167.928C231.901 178.34 238.61 187.136 247.894 190.446L247.894 199.914 263.887 199.914 263.887 190.446C273.171 187.136 279.88 178.34 279.88 167.928 279.88 154.702 269.117 143.938 255.89 143.938 251.484 143.938 247.894 140.356 247.894 135.942 247.894 131.528 251.484 127.945 255.89 127.945 260.296 127.945 263.887 131.528 263.887 135.942L279.88 135.942C279.88 125.53 273.171 116.734 263.887 113.423L263.887 103.955 247.894 103.955 247.894 113.423C238.61 116.734 231.901 125.53 231.901 135.942 231.901 149.168 242.664 159.931 255.89 159.931 260.296 159.931 263.887 163.514 263.887 167.928 263.887 172.342 260.296 175.925 255.89 175.925Z" fill="#FFFFFF" fill-rule="nonzero" fill-opacity="1" transform="matrix(1 0 0 1.00043 480.433 18)"/><path d="M255.89 231.901C299.983 231.901 335.856 196.028 335.856 151.935 335.856 107.842 299.983 71.9692 255.89 71.9692 211.797 71.9692 175.925 107.842 175.925 151.935 175.925 196.028 211.797 231.901 255.89 231.901ZM255.89 87.9623C291.163 87.9623 319.863 116.662 319.863 151.935 319.863 187.208 291.163 215.907 255.89 215.907 220.617 215.907 191.918 187.208 191.918 151.935 191.918 116.662 220.617 87.9623 255.89 87.9623Z" fill="#FFFFFF" fill-rule="nonzero" fill-opacity="1" transform="matrix(1 0 0 1.00043 480.433 18)"/><path d="M448.736 394.327C449.759 396.27 451.543 397.702 453.654 398.285 454.357 398.485 455.085 398.581 455.805 398.581 457.244 398.581 458.659 398.189 459.923 397.438L499.906 373.448 491.677 359.734 458.931 379.381 394.743 258.129 451.391 229.806 444.234 215.5 380.261 247.486C378.334 248.446 376.879 250.149 376.223 252.196 375.559 254.251 375.759 256.474 376.767 258.377L381.764 267.813C379.885 269.165 377.502 270.892 374.288 273.219 365.267 279.776 347.179 292.922 341.118 296.033L304.342 286.845C292.059 283.766 279.008 286.541 269.005 294.034L225.223 286.741C224.352 286.597 223.464 286.597 222.593 286.741L177.516 294.25 143.195 273.659C143.922 271.891 144.138 269.948 143.53 268.125 142.827 265.982 141.243 264.247 139.188 263.327L67.2192 231.341 60.726 245.959 124.667 274.378 60.4381 388.561 26.9564 375.167 21.015 390.017 60.9979 406.01C61.9734 406.394 62.973 406.586 63.9726 406.586 66.7874 406.586 69.4902 405.09 70.9456 402.508L71.4974 401.524 130.264 421.116C131.072 422.475 132.007 423.762 133.191 424.834L142.667 433.446C144.842 435.421 147.433 436.661 150.12 437.221 150.967 439.876 152.431 442.322 154.518 444.218L164.002 452.83C166.177 454.805 168.768 456.045 171.455 456.612 172.302 459.267 173.766 461.714 175.853 463.617L185.345 472.238C187.52 474.213 190.103 475.444 192.797 476.004 193.645 478.659 195.108 481.106 197.195 483.001L206.687 491.629C209.742 494.396 213.588 495.772 217.435 495.772 221.497 495.772 225.559 494.244 228.662 491.19L240.561 479.467 268.957 491.158C272.667 493.437 276.809 494.532 280.904 494.532 288.324 494.532 295.609 490.95 300.031 484.328 302.846 480.106 303.982 475.236 303.734 470.462 304.126 470.478 304.51 470.542 304.901 470.542 312.322 470.542 319.607 466.96 324.029 460.339 326.844 456.117 327.979 451.247 327.732 446.473 328.123 446.489 328.507 446.553 328.899 446.553 336.32 446.553 343.605 442.97 348.027 436.349 349.186 434.606 349.986 432.735 350.61 430.823 353.88 432.471 357.391 433.31 360.885 433.31 368.306 433.31 375.591 429.728 380.013 423.107 380.125 422.939 380.181 422.755 380.293 422.587L447.344 391.632ZM153.422 421.611 143.938 412.991 156.701 400.428C159.116 398.045 162.986 397.965 165.489 400.253 166.809 401.444 167.552 403.083 167.584 404.859 167.616 406.626 166.944 408.297 165.681 409.537ZM174.757 440.995 165.281 432.383 178.044 419.82C180.459 417.437 184.329 417.357 186.832 419.644 188.151 420.836 188.895 422.475 188.927 424.25 188.959 426.017 188.279 427.689 187.024 428.936ZM196.732 459.779C196.732 459.779 196.732 459.787 196.732 459.779L196.1 460.403 186.608 451.79 199.371 439.22C201.786 436.829 205.656 436.765 208.167 439.052 209.478 440.243 210.222 441.883 210.262 443.65 210.294 445.425 209.614 447.088 208.359 448.336ZM229.694 467.72 217.435 479.794 207.951 471.182 220.713 458.612C223.128 456.22 226.991 456.157 229.51 458.444 230.821 459.635 231.565 461.274 231.605 463.042 231.637 464.817 230.957 466.48 229.694 467.72ZM366.675 414.238C364.548 417.413 360.222 418.293 357.015 416.15L308.084 383.796 299.456 397.262 335.2 420.9C336.104 423.003 336.032 425.474 334.689 427.489 332.561 430.679 328.235 431.551 325.053 429.416 324.773 429.232 283.431 408.665 283.431 408.665L275.834 422.731 309.499 442.41C312.074 444.689 312.618 448.584 310.683 451.479 308.548 454.661 304.222 455.541 301.047 453.406 300.767 453.222 259.425 432.655 259.425 432.655L251.828 446.721 285.494 466.4C288.069 468.679 288.612 472.574 286.677 475.468 284.55 478.659 280.232 479.523 277.041 477.395 276.601 477.108 247.366 465.001 247.366 465.001 247.43 464.241 247.574 463.489 247.558 462.722 247.43 456.596 244.759 450.719 240.225 446.601 236.147 442.89 231.053 441.043 225.911 440.875 225.215 435.661 222.809 430.767 218.882 427.209 214.804 423.499 209.71 421.651 204.576 421.483 203.889 416.27 201.474 411.368 197.547 407.801 193.477 404.099 188.375 402.252 183.233 402.084 182.538 396.87 180.131 391.976 176.212 388.418 167.432 380.445 153.918 380.701 145.442 389.033L132.671 401.604C131.832 402.436 131.112 403.363 130.48 404.347L79.438 387.33 135.478 287.709 171.774 309.483C173.022 310.235 174.445 310.627 175.893 310.627 176.332 310.627 176.772 310.587 177.212 310.515L223.904 302.734 254.555 307.844 231.493 330.906C226.599 335.792 223.904 342.309 223.904 349.234 223.904 356.159 226.599 362.677 231.501 367.57 236.179 372.248 242.32 374.583 248.47 374.583 254.459 374.583 260.456 372.368 265.086 367.914L286.125 351.082 365.164 404.898C368.01 407.122 368.682 411.224 366.675 414.238ZM382.7 403.843C381.333 399.333 378.646 395.143 374.576 391.976L299.184 340.63 304.757 336.176 294.77 323.685C294.77 323.685 254.331 356.055 254.123 356.263 251.004 359.382 245.935 359.398 242.816 356.263 240.929 354.384 239.897 351.889 239.897 349.234 239.897 346.579 240.929 344.085 242.808 342.213L275.834 309.188C282.239 302.79 291.683 300.207 300.463 302.358L339.367 312.082C344.66 313.434 349.082 311.323 383.7 286.165 385.587 284.79 387.514 283.391 389.321 282.095L439.812 377.478Z" fill="#FFFFFF" fill-rule="nonzero" fill-opacity="1" transform="matrix(1 0 0 1.00043 480.433 18)"/><path d="M479.794 79.9657C480.57 79.9657 481.346 79.8538 482.113 79.6219 484.936 78.7742 487.063 76.4312 487.639 73.5365L495.636 33.5536C496.163 30.9307 495.34 28.2199 493.453 26.3327 491.557 24.4455 488.855 23.6459 486.232 24.1497L446.249 32.1462C443.362 32.722 441.019 34.8491 440.163 37.6639 439.308 40.4946 440.075 43.5493 442.163 45.6364L474.149 77.6227C475.66 79.1421 477.707 79.9657 479.794 79.9657ZM477.595 42.1739 474.885 55.7441 464.033 44.8928Z" fill="#FFFFFF" fill-rule="nonzero" fill-opacity="1" transform="matrix(1 0 0 1.00043 480.433 18)"/><path d="M247.894 15.9931 263.887 15.9931 263.887 47.9794 247.894 47.9794Z" fill="#FFFFFF" fill-rule="nonzero" fill-opacity="1" transform="matrix(1 0 0 1.00043 480.433 18)"/><path d="M778.593 76.3488 801.207 53.7248 812.515 65.0368 789.9 87.6608Z" fill="#FFFFFF" fill-rule="nonzero" fill-opacity="1"/><path d="M658.677 65.0528 669.984 53.7408 692.598 76.3648 681.291 87.6768Z" fill="#FFFFFF" fill-rule="nonzero" fill-opacity="1"/><path d="M431.815 71.9692 447.808 71.9692 447.808 87.9623 431.815 87.9623Z" fill="#FFFFFF" fill-rule="nonzero" fill-opacity="1" transform="matrix(1 0 0 1.00043 480.433 18)"/><path d="M407.825 95.9589 423.818 95.9589 423.818 111.952 407.825 111.952Z" fill="#FFFFFF" fill-rule="nonzero" fill-opacity="1" transform="matrix(1 0 0 1.00043 480.433 18)"/><path d="M383.836 119.949 399.829 119.949 399.829 135.942 383.836 135.942Z" fill="#FFFFFF" fill-rule="nonzero" fill-opacity="1" transform="matrix(1 0 0 1.00043 480.433 18)"/><path d="M351.849 119.949 367.842 119.949 367.842 135.942 351.849 135.942Z" fill="#FFFFFF" fill-rule="nonzero" fill-opacity="1" transform="matrix(1 0 0 1.00043 480.433 18)"/><path d="M143.938 143.938 159.931 143.938 159.931 159.931 143.938 159.931Z" fill="#FFFFFF" fill-rule="nonzero" fill-opacity="1" transform="matrix(1 0 0 1.00043 480.433 18)"/><path d="M111.952 143.938 127.945 143.938 127.945 159.931 111.952 159.931Z" fill="#FFFFFF" fill-rule="nonzero" fill-opacity="1" transform="matrix(1 0 0 1.00043 480.433 18)"/><path d="M79.9657 159.931 95.9589 159.931 95.9589 175.925 79.9657 175.925Z" fill="#FFFFFF" fill-rule="nonzero" fill-opacity="1" transform="matrix(1 0 0 1.00043 480.433 18)"/><path d="M47.9794 175.925 63.9726 175.925 63.9726 191.918 47.9794 191.918Z" fill="#FFFFFF" fill-rule="nonzero" fill-opacity="1" transform="matrix(1 0 0 1.00043 480.433 18)"/><path d="M15.9931 191.918 31.9863 191.918 31.9863 207.911 15.9931 207.911Z" fill="#FFFFFF" fill-rule="nonzero" fill-opacity="1" transform="matrix(1 0 0 1.00043 480.433 18)"/></g></g></g></g></g></svg>