<svg xmlns="http://www.w3.org/2000/svg" version="1.1" xmlns:xlink="http://www.w3.org/1999/xlink" width="512" height="512" x="0" y="0" viewBox="0 0 512 512" style="enable-background:new 0 0 512 512" xml:space="preserve"><g><path d="M393.681 247.34c4.143 0 7.5-3.358 7.5-7.5s-3.357-7.5-7.5-7.5h-5.953c-4.143 0-7.5 3.358-7.5 7.5s3.357 7.5 7.5 7.5z" fill="#ffffff" opacity="1" data-original="#000000"></path><path d="m460.741 323.456-40.936-23.458a55.588 55.588 0 0 0 1.543-12.977v-20.275h11.878c8.934 0 16.202-7.586 16.202-16.911 0-9.179-6.956-16.956-15.366-17.447v-13.661c0-11.867-4.653-22.662-12.22-30.678-1.074-31.466-21.51-36.264-33.828-36.264h-15.369c-11.54 0-21.353 7.511-24.824 17.898-24.967 2.626-45.287 22.191-48.363 47.569a7.5 7.5 0 0 0 14.891 1.805c2.107-17.383 15.387-31.003 32.124-34.044v33.842c0 4.142 3.357 7.5 7.5 7.5s7.5-3.358 7.5-7.5v-40.898c0-6.16 5.012-11.172 11.172-11.172h15.369c6.672 0 13.448 1.453 16.773 9.96a44.516 44.516 0 0 0-15.463-2.757h-6.286c-6.701 0-12.153 5.452-12.153 12.153v19.088c0 4.142 3.357 7.5 7.5 7.5s7.5-3.358 7.5-7.5v-16.241h3.439c16.397 0 29.738 13.34 29.738 29.738v13.614h-4.347c-4.143 0-7.5 3.358-7.5 7.5s3.357 7.5 7.5 7.5l11.754-.005c.031 0 .061.005.093.005s.062-.004.094-.005l6.506-.003c.387.117 1.267 1.185 1.267 2.502 0 1.167-.712 1.911-1.202 1.911H300.019c-.49 0-1.202-.745-1.202-1.911v-.908c0-.949.483-1.587 1.202-1.587h53.954c4.143 0 7.5-3.358 7.5-7.5s-3.357-7.5-7.5-7.5h-53.954c-9.085 0-16.202 7.286-16.202 16.587v.908c0 9.325 7.269 16.911 16.202 16.911h9.964v20.275c0 5.167.723 10.166 2.046 14.917l-24.661 12.33c-12.502 6.251-20.269 18.817-20.269 32.795v61.839l-35.626 9.891-22.07-68.979a7.5 7.5 0 0 0-7.144-5.214H52.19a7.499 7.499 0 0 0-7.069 10.005l50.026 141.218a7.501 7.501 0 0 0 7.069 4.996H441.89c20.907 0 37.917-17.01 37.917-37.917V356.355c0-13.554-7.306-26.16-19.066-32.899zm-54.393-56.711v20.275c0 22.433-18.25 40.683-40.683 40.683s-40.683-18.25-40.683-40.683v-20.275zM107.516 485.818 62.803 359.6h133.981l40.385 126.218zm357.291-22.917c0 12.637-10.28 22.917-22.917 22.917H302.281c-9.416 0-17.077-7.661-17.077-17.078s7.661-17.078 17.077-17.078H415.07a7.5 7.5 0 0 0 7.5-7.5v-53.586c0-4.142-3.357-7.5-7.5-7.5s-7.5 3.358-7.5 7.5v46.086h-85.503v-56.187c0-4.142-3.357-7.5-7.5-7.5s-7.5 3.358-7.5 7.5v56.187h-4.786c-17.688 0-32.077 14.39-32.077 32.078a31.879 31.879 0 0 0 4.944 17.078h-22.23l-16.871-52.727 40.558-11.26a7.5 7.5 0 0 0 5.493-7.227v-67.541c0-8.26 4.59-15.685 11.978-19.379l23.899-11.95c9.76 16.149 27.484 26.969 47.689 26.969 20.869 0 39.084-11.547 48.618-28.582l39.001 22.349a22.971 22.971 0 0 1 11.522 19.884v106.547z" fill="#ffffff" opacity="1" data-original="#000000"></path><path d="M84.073 288.682h121.783c4.774 0 9.159-1.679 12.611-4.468a20.005 20.005 0 0 0 12.611 4.468h32.353c4.143 0 7.5-3.358 7.5-7.5s-3.357-7.5-7.5-7.5h-32.353a5.117 5.117 0 0 1-5.111-5.111v-87.658c0-4.142-3.357-7.5-7.5-7.5s-7.5 3.358-7.5 7.5v87.658a5.117 5.117 0 0 1-5.111 5.111h-29.931c-7.966 0-14.447-6.481-14.447-14.448 0-7.966 6.481-14.448 14.447-14.448 4.143 0 7.5-3.358 7.5-7.5s-3.357-7.5-7.5-7.5c-16.237 0-29.447 13.21-29.447 29.448a29.261 29.261 0 0 0 3.803 14.448H84.073c-19.137 0-34.961-15.25-35.274-33.993-.156-9.357 3.367-18.18 9.92-24.844 6.476-6.585 15.102-10.24 24.321-10.329 1.94.257 13.095 2.196 18.327 12.893-6.421 7.257-8.913 17.26-6.366 26.945a7.505 7.505 0 0 0 7.249 5.595 7.5 7.5 0 0 0 7.258-9.41c-1.521-5.787.616-11.81 5.447-15.343 4.456-3.262 10.485-3.685 15.36-1.077a7.5 7.5 0 0 0 7.076-13.227c-7.287-3.897-15.834-4.457-23.46-1.861-6.023-10.936-15.802-15.789-22.541-17.904 2.801-16.28 17.01-28.708 34.077-28.708 2.609 0 5.239.306 7.824.904 1.005.311 9.525 3.152 15.223 11.239a29.465 29.465 0 0 0-6.94 12.573 7.5 7.5 0 1 0 14.5 3.842c1.532-5.784 6.364-9.966 12.31-10.655 5.485-.638 10.939 1.973 13.892 6.646a7.5 7.5 0 0 0 12.682-8.011c-6.012-9.519-17.124-14.833-28.3-13.536-1.872.217-3.68.623-5.427 1.165-4.646-6.875-10.58-11.299-15.411-14.011 2.821-10.472 10.966-18.681 21.717-21.488 11.269-2.942 23.427.899 30.967 9.789a7.5 7.5 0 1 0 11.439-9.702 45.153 45.153 0 0 0-11.756-9.821 23.86 23.86 0 0 1 11.542-22.66c11.312-6.757 26.017-3.05 32.774 8.265a23.919 23.919 0 0 1 2.231 19.581 7.5 7.5 0 0 0 7.142 9.798 7.503 7.503 0 0 0 7.138-5.207 38.919 38.919 0 0 0-3.633-31.863c-10.998-18.414-34.927-24.451-53.344-13.452a38.833 38.833 0 0 0-18.818 30.034c-6.376-1.149-13.021-.959-19.474.725-8.164 2.132-15.318 6.356-20.935 12.045l-7.799-.003a8.172 8.172 0 0 1-5.816-2.413c-1.554-1.555-2.408-3.621-2.407-5.819s.857-4.264 2.413-5.817a8.173 8.173 0 0 1 5.814-2.407h.004l8.155.004h.01c9.569 0 17.79-5.49 21.456-14.33 3.668-8.843 1.743-18.543-5.023-25.316l-5.764-5.769a8.173 8.173 0 0 1-2.407-5.819 8.17 8.17 0 0 1 2.412-5.817 8.176 8.176 0 0 1 5.815-2.407h.004a8.172 8.172 0 0 1 5.816 2.413l5.765 5.769c6.768 6.774 16.467 8.707 25.311 5.047 8.847-3.66 14.345-11.88 14.349-21.454l.004-8.155c.002-4.536 3.692-8.224 8.229-8.224h.004a8.172 8.172 0 0 1 5.816 2.413 8.17 8.17 0 0 1 2.407 5.819l-.004 8.156c-.004 9.573 5.487 17.799 14.33 21.466s18.544 1.743 25.315-5.024l5.77-5.764c3.21-3.206 8.43-3.204 11.636.006 3.207 3.209 3.204 8.429-.005 11.635l-5.77 5.764c-6.772 6.767-8.706 16.465-5.046 25.312 3.659 8.846 11.88 14.344 21.453 14.349l8.155.003c4.537.002 8.227 3.695 8.225 8.232-.002 4.536-3.692 8.224-8.229 8.224h-.004l-8.155-.003h-.012c-9.674 0-17.136 5.203-22.204 15.437a29.095 29.095 0 0 0-6.395-.719h-.02c-12.195.008-22.951 7.348-27.403 18.699a7.501 7.501 0 0 0 6.98 10.241 7.503 7.503 0 0 0 6.984-4.764c2.185-5.57 7.463-9.172 13.448-9.176h.01c5.519 0 10.633 3.215 13.028 8.193a7.5 7.5 0 1 0 13.516-6.506c-1.681-3.494-4.032-6.547-6.836-9.067 3.101-6.424 6.104-7.338 8.89-7.338h.006l8.155.003h.01c12.803 0 23.223-10.414 23.229-23.217.006-12.808-10.41-23.233-23.219-23.239l-8.155-.003c-5.101-.002-7.105-3.891-7.599-5.083s-1.821-5.361 1.787-8.966l5.77-5.765c9.061-9.053 9.067-23.789.015-32.849-9.053-9.061-23.788-9.068-32.849-.015l-5.77 5.764c-3.607 3.604-7.776 2.274-8.968 1.78s-5.078-2.503-5.076-7.604l.004-8.155a23.073 23.073 0 0 0-6.796-16.428 23.077 23.077 0 0 0-16.422-6.811h-.01c-12.803 0-23.223 10.414-23.229 23.217l-.004 8.156c-.002 5.101-3.891 7.106-5.082 7.599-1.192.493-5.361 1.82-8.966-1.788l-5.765-5.769a23.077 23.077 0 0 0-16.421-6.811h-.011c-6.2 0-12.031 2.414-16.417 6.796a23.069 23.069 0 0 0-6.811 16.422 23.071 23.071 0 0 0 6.796 16.428l5.764 5.769c3.605 3.609 2.273 7.776 1.779 8.968-.494 1.191-2.501 5.076-7.6 5.076h-.004l-8.155-.004h-.011a23.08 23.08 0 0 0-16.417 6.796 23.077 23.077 0 0 0-6.811 16.422 23.073 23.073 0 0 0 6.796 16.428 23.04 23.04 0 0 0 14.459 6.714 45.235 45.235 0 0 0-1.469 4.29 49.43 49.43 0 0 0-6.105-.391c-24.963 0-45.676 18.54-49.093 42.574-10.731 1.505-20.611 6.463-28.351 14.333-9.396 9.554-14.447 22.201-14.224 35.612.455 26.878 23.007 48.743 50.278 48.743z" fill="#ffffff" opacity="1" data-original="#000000"></path><path d="M261.757 202.737a7.5 7.5 0 1 0-7.227-13.144c-10.688 5.875-16.585 17.485-15.024 29.579a7.502 7.502 0 0 0 14.878-1.919c-.767-5.935 2.128-11.633 7.373-14.516z" fill="#ffffff" opacity="1" data-original="#000000"></path></g></svg>