<svg width="600" height="513" xmlns="http://www.w3.org/2000/svg" xmlns:xlink="http://www.w3.org/1999/xlink" xml:space="preserve" overflow="hidden"><defs><clipPath id="clip0"><rect x="293" y="101" width="598" height="512"/></clipPath><clipPath id="clip1"><rect x="344" y="101" width="513" height="512"/></clipPath><clipPath id="clip2"><rect x="344" y="101" width="513" height="512"/></clipPath></defs><g transform="translate(-292 -100)"><g><g clip-path="url(#clip0)"><g clip-path="url(#clip1)"><g clip-path="url(#clip2)"><path d="M15.1402 93.8683C19.2792 93.8683 22.6329 90.5136 22.6329 86.3756L22.6329 26.3043C22.6329 20.0634 27.7109 14.9854 33.9518 14.9854L405.628 14.9854C411.869 14.9854 416.947 20.0634 416.947 26.3043L416.947 209.965C416.947 214.103 420.3 217.458 424.439 217.458 428.578 217.458 431.932 214.103 431.932 209.965L431.932 26.3043C431.932 11.7995 420.131-1.4197e-14 405.628-1.4197e-14L33.9518-1.4197e-14C19.448-1.4197e-14 7.64753 11.8005 7.64753 26.3043L7.64753 86.3756C7.64753 90.5136 11.0022 93.8683 15.1402 93.8683Z" fill="#FFFFFF" fill-rule="nonzero" fill-opacity="1" transform="matrix(1 0 0 1.00098 344.621 101)"/><path d="M408.311 342.179C408.311 320.739 390.864 303.297 369.419 303.297 347.979 303.297 330.537 320.739 330.537 342.179 330.537 363.624 347.979 381.071 369.419 381.071 390.864 381.071 408.311 363.624 408.311 342.179ZM345.522 342.179C345.522 329.002 356.242 318.282 369.419 318.282 382.601 318.282 393.326 329.002 393.326 342.179 393.326 355.361 382.602 366.085 369.419 366.085 356.243 366.085 345.522 355.361 345.522 342.179Z" fill="#FFFFFF" fill-rule="nonzero" fill-opacity="1" transform="matrix(1 0 0 1.00098 344.621 101)"/><path d="M477.548 424.585 431.928 424.585 431.928 412.588C441.301 415.934 452.042 412.231 457.189 403.314L466.247 387.614C469.057 382.755 469.804 377.092 468.35 371.667 466.898 366.246 463.422 361.714 458.563 358.905L450.351 354.161C450.94 350.183 451.238 346.171 451.238 342.176 451.238 338.181 450.94 334.168 450.351 330.19L458.565 325.445C468.592 319.649 472.039 306.772 466.249 296.742L457.188 281.036C452.042 272.122 441.308 268.418 431.932 271.761L431.932 244.911C431.932 240.773 428.578 237.418 424.439 237.418 420.3 237.418 416.947 240.773 416.947 244.911L416.947 275.583C411.541 271.711 405.713 268.524 399.499 266.074L399.499 256.609C399.499 245.025 390.074 235.6 378.49 235.6L360.348 235.6C348.763 235.6 339.338 245.025 339.338 256.609L339.338 266.074C331.832 269.033 324.879 273.051 318.568 278.076L310.358 273.333C300.317 267.555 287.444 271.012 281.66 281.034L272.587 296.742C266.798 306.773 270.246 319.65 280.275 325.448L288.495 330.193C287.906 334.172 287.608 338.186 287.608 342.177 287.608 346.168 287.906 350.18 288.495 354.16L280.272 358.907C270.24 364.707 266.793 377.585 272.59 387.613L281.659 403.316C287.446 413.341 300.321 416.798 310.369 411.013L318.568 406.276C324.878 411.3 331.833 415.319 339.338 418.278L339.338 424.585 105.882 424.585C91.3717 424.585 79.5663 436.386 79.5663 450.894L79.5772 467.463C79.5772 483.073 67.1544 496.102 51.8493 496.509 51.6086 496.517 51.3658 496.515 51.1131 496.515 43.5045 496.507 36.3525 493.546 30.9777 488.179 25.597 482.798 22.6329 475.647 22.6329 468.043L22.6329 121.321C22.6329 117.183 19.2792 113.829 15.1402 113.829 11.0013 113.829 7.64753 117.183 7.64753 121.321L7.64753 468.043C7.64753 479.65 12.1701 490.565 20.3851 498.78 28.5891 506.971 39.4954 511.488 51.125 511.5L221.209 511.5C225.348 511.5 228.702 508.145 228.702 504.008 228.702 499.87 225.348 496.515 221.209 496.515L83.6253 496.515C90.4187 488.719 94.5626 478.516 94.5626 467.458L94.5516 450.889C94.5516 444.648 99.6347 439.57 105.882 439.57L477.547 439.57C483.788 439.57 488.866 444.649 488.866 450.889L488.866 468.043C488.866 475.644 485.904 482.797 480.534 488.176 475.149 493.554 467.997 496.515 460.394 496.515L256.174 496.515C252.035 496.515 248.681 499.87 248.681 504.008 248.681 508.145 252.035 511.5 256.174 511.5L460.394 511.5C471.995 511.5 482.908 506.983 491.132 498.772 499.335 490.556 503.852 479.643 503.852 468.043L503.852 450.889C503.853 436.386 492.052 424.585 477.548 424.585ZM416.943 424.585 399.5 424.585 399.5 418.277C405.712 415.829 411.539 412.643 416.943 408.773ZM349.109 405.858C339.891 402.917 331.594 398.122 324.445 391.605 322.035 389.408 318.476 389.021 315.649 390.655L302.882 398.032C299.996 399.692 296.298 398.702 294.635 395.823L285.563 380.117C283.901 377.24 284.892 373.546 287.768 371.883L300.555 364.5C303.377 362.871 304.822 359.606 304.131 356.422 303.111 351.721 302.593 346.929 302.593 342.177 302.593 337.424 303.111 332.632 304.131 327.932 304.822 324.748 303.377 321.482 300.555 319.853L287.772 312.473C284.894 310.809 283.905 307.113 285.564 304.235L294.637 288.528C296.297 285.651 299.997 284.661 302.871 286.315L315.649 293.698C318.473 295.331 322.033 294.946 324.445 292.748 331.593 286.231 339.891 281.436 349.109 278.495 352.215 277.504 354.324 274.618 354.324 271.357L354.324 256.611C354.324 253.29 357.026 250.587 360.348 250.587L378.49 250.587C381.811 250.587 384.513 253.29 384.513 256.611L384.513 271.357C384.513 274.618 386.621 277.504 389.728 278.495 398.946 281.436 407.243 286.231 414.392 292.748 416.803 294.947 420.363 295.331 423.189 293.698L435.969 286.32C438.854 284.659 442.549 285.65 444.21 288.528L453.272 304.234C454.933 307.113 453.944 310.809 451.067 312.473L438.29 319.855C435.469 321.485 434.024 324.751 434.716 327.934 435.736 332.629 436.254 337.421 436.254 342.178 436.254 346.934 435.736 351.726 434.716 356.422 434.025 359.606 435.469 362.87 438.29 364.5L451.065 371.882C452.46 372.688 453.459 373.99 453.876 375.547 454.292 377.103 454.078 378.725 453.271 380.123L444.21 395.826C442.55 398.705 438.853 399.697 435.972 398.037L423.189 390.657C420.363 389.023 416.803 389.409 414.392 391.607 407.244 398.124 398.946 402.919 389.728 405.86 386.622 406.851 384.513 409.738 384.513 412.998L384.513 424.585 354.323 424.585 354.323 412.996C354.324 409.736 352.216 406.849 349.109 405.858Z" fill="#FFFFFF" fill-rule="nonzero" fill-opacity="1" transform="matrix(1 0 0 1.00098 344.621 101)"/><path d="M237.539 112.708C243.388 109.46 247.023 103.225 247.023 96.4358L247.023 52.7085C247.023 48.5705 243.669 45.2158 239.53 45.2158 235.391 45.2158 232.037 48.5705 232.037 52.7085L232.037 96.4358C232.037 97.7845 231.358 98.9993 230.266 99.6057 228.321 100.685 225.793 98.4508 225.513 98.1921 222.46 95.3978 217.72 95.6066 214.926 98.6596 212.132 101.712 212.342 106.451 215.394 109.245 218.702 112.273 223.721 114.897 229.21 114.897 231.92 114.898 234.749 114.256 237.539 112.708Z" fill="#FFFFFF" fill-rule="nonzero" fill-opacity="1" transform="matrix(1 0 0 1.00098 344.621 101)"/><path d="M288.573 60.7007C292.712 60.7007 296.066 57.346 296.066 53.208 296.066 49.0701 292.712 45.7153 288.573 45.7153L265.73 45.7153C261.591 45.7153 258.238 49.0701 258.238 53.208L258.238 107.42C258.238 111.558 261.591 114.913 265.73 114.913L288.573 114.913C292.712 114.913 296.066 111.558 296.066 107.42 296.066 103.282 292.712 99.9274 288.573 99.9274L273.223 99.9274 273.223 87.8062 286.889 87.8062C291.028 87.8062 294.381 84.4515 294.381 80.3135 294.381 76.1756 291.028 72.8208 286.889 72.8208L273.223 72.8208 273.223 60.7007Z" fill="#FFFFFF" fill-rule="nonzero" fill-opacity="1" transform="matrix(1 0 0 1.00098 344.621 101)"/><path d="M334.319 60.2012C338.3 60.2012 342.139 61.373 345.419 63.5889 348.848 65.9056 353.506 65.0035 355.822 61.5748 358.138 58.1462 357.237 53.4887 353.807 51.172 348.041 47.2758 341.301 45.2158 334.318 45.2158 315.103 45.2158 299.469 60.8485 299.469 80.0648 299.469 99.281 315.102 114.914 334.318 114.914 342.016 114.914 348.93 112.379 354.317 107.584 355.373 106.644 356.375 105.61 357.294 104.512 359.952 101.34 359.536 96.6146 356.364 93.9562 353.193 91.2988 348.467 91.7144 345.809 94.8863 345.355 95.4288 344.863 95.9373 344.35 96.3938 341.715 98.7395 338.339 99.9284 334.318 99.9284 323.365 99.9284 314.455 91.0181 314.455 80.0648 314.455 69.1115 323.367 60.2012 334.319 60.2012Z" fill="#FFFFFF" fill-rule="nonzero" fill-opacity="1" transform="matrix(1 0 0 1.00098 344.621 101)"/><path d="M408.539 52.7085C408.539 48.5705 405.185 45.2158 401.046 45.2158L370.832 45.2158C366.693 45.2158 363.339 48.5705 363.339 52.7085 363.339 56.8465 366.693 60.2012 370.832 60.2012L378.386 60.2012 378.386 107.42C378.386 111.558 381.74 114.913 385.879 114.913 390.018 114.913 393.372 111.558 393.372 107.42L393.372 60.2012 401.047 60.2012C405.185 60.2012 408.539 56.8465 408.539 52.7085Z" fill="#FFFFFF" fill-rule="nonzero" fill-opacity="1" transform="matrix(1 0 0 1.00098 344.621 101)"/><path d="M92.6505 107.42C92.6505 111.558 96.0042 114.913 100.143 114.913 104.282 114.913 107.636 111.558 107.636 107.42L107.636 93.6655 124.099 112.37C125.579 114.054 127.648 114.913 129.726 114.913 131.485 114.913 133.25 114.297 134.673 113.045 137.779 110.31 138.081 105.576 135.348 102.47L122.108 87.4266C130.894 84.4655 137.217 76.3974 137.217 66.9276 137.217 54.9553 127.117 45.2158 114.701 45.2158L100.162 45.2158C98.1711 45.2158 96.2609 46.008 94.8553 47.4187 93.4497 48.8293 92.6635 50.7414 92.6695 52.7325 92.6685 52.7335 92.6505 107.42 92.6505 107.42ZM114.7 60.2012C118.782 60.2012 122.231 63.2812 122.231 66.9276 122.231 70.574 118.782 73.654 114.7 73.654 113.052 73.654 110.344 73.664 107.714 73.677 107.701 71.1225 107.685 62.8836 107.677 60.2012Z" fill="#FFFFFF" fill-rule="nonzero" fill-opacity="1" transform="matrix(1 0 0 1.00098 344.621 101)"/><path d="M39.0329 107.42C39.0329 111.558 42.3866 114.913 46.5255 114.913 50.6645 114.913 54.0182 111.558 54.0182 107.42L54.0182 91.107C56.8994 91.093 59.9454 91.08 61.7597 91.08 74.5711 91.08 84.994 80.7921 84.994 68.1474 84.994 55.5028 74.5721 45.2158 61.7597 45.2158L46.5255 45.2158C44.5345 45.2158 42.6254 46.008 41.2187 47.4187 39.8131 48.8283 39.0269 50.7404 39.0329 52.7315ZM61.7597 60.2012C66.2313 60.2012 70.0086 63.8406 70.0086 68.1484 70.0086 72.4562 66.2313 76.0956 61.7597 76.0956 59.9574 76.0956 56.9484 76.1076 54.0822 76.1226 54.0672 73.1505 54.0472 63.3181 54.0392 60.2022L61.7597 60.2022Z" fill="#FFFFFF" fill-rule="nonzero" fill-opacity="1" transform="matrix(1 0 0 1.00098 344.621 101)"/><path d="M211.505 80.0638C211.505 60.8485 195.873 45.2148 176.656 45.2148 157.44 45.2148 141.807 60.8475 141.807 80.0638 141.807 99.28 157.44 114.913 176.656 114.913 195.873 114.913 211.505 99.28 211.505 80.0638ZM156.793 80.0638C156.793 69.1115 165.703 60.2002 176.656 60.2002 187.61 60.2002 196.52 69.1105 196.52 80.0638 196.52 91.0171 187.61 99.9274 176.656 99.9274 165.703 99.9274 156.793 91.0171 156.793 80.0638Z" fill="#FFFFFF" fill-rule="nonzero" fill-opacity="1" transform="matrix(1 0 0 1.00098 344.621 101)"/><path d="M55.8235 137.407C55.8235 141.545 59.1772 144.899 63.3161 144.899L376.264 144.899C380.403 144.899 383.757 141.545 383.757 137.407 383.757 133.269 380.403 129.914 376.264 129.914L63.3161 129.914C59.1772 129.914 55.8235 133.268 55.8235 137.407Z" fill="#FFFFFF" fill-rule="nonzero" fill-opacity="1" transform="matrix(1 0 0 1.00098 344.621 101)"/><path d="M195.705 163.8 70.4102 163.8C54.6596 163.8 41.8461 176.614 41.8461 192.365L41.8461 259.852C41.8461 275.603 54.6596 288.417 70.4102 288.417L195.704 288.417C211.455 288.417 224.269 275.603 224.269 259.852L224.269 192.365C224.269 176.613 211.455 163.8 195.705 163.8ZM209.284 259.852C209.284 267.34 203.191 273.432 195.704 273.432L70.4102 273.432C62.9235 273.432 56.8315 267.34 56.8315 259.852L56.8315 192.365C56.8315 184.877 62.9235 178.785 70.4102 178.785L195.704 178.785C203.191 178.785 209.284 184.877 209.284 192.365Z" fill="#FFFFFF" fill-rule="nonzero" fill-opacity="1" transform="matrix(1 0 0 1.00098 344.621 101)"/><path d="M397.685 200.195C397.685 196.057 394.332 192.703 390.193 192.703L250.662 192.703C246.523 192.703 243.169 196.057 243.169 200.195 243.169 204.333 246.523 207.688 250.662 207.688L390.193 207.688C394.332 207.688 397.685 204.333 397.685 200.195Z" fill="#FFFFFF" fill-rule="nonzero" fill-opacity="1" transform="matrix(1 0 0 1.00098 344.621 101)"/><path d="M343.867 229.098C343.867 224.96 340.513 221.605 336.374 221.605L250.662 221.605C246.523 221.605 243.169 224.96 243.169 229.098 243.169 233.236 246.523 236.591 250.662 236.591L336.374 236.591C340.513 236.591 343.867 233.236 343.867 229.098Z" fill="#FFFFFF" fill-rule="nonzero" fill-opacity="1" transform="matrix(1 0 0 1.00098 344.621 101)"/><path d="M41.8471 314.809C41.8471 318.947 45.2008 322.302 49.3398 322.302L250.663 322.302C254.802 322.302 258.156 318.947 258.156 314.809 258.156 310.671 254.802 307.317 250.663 307.317L49.3398 307.317C45.2008 307.317 41.8471 310.671 41.8471 314.809Z" fill="#FFFFFF" fill-rule="nonzero" fill-opacity="1" transform="matrix(1 0 0 1.00098 344.621 101)"/><path d="M258.155 372.616C258.155 368.478 254.801 365.123 250.662 365.123L49.3398 365.123C45.2008 365.123 41.8471 368.478 41.8471 372.616 41.8471 376.754 45.2008 380.109 49.3398 380.109L250.663 380.109C254.801 380.109 258.155 376.754 258.155 372.616Z" fill="#FFFFFF" fill-rule="nonzero" fill-opacity="1" transform="matrix(1 0 0 1.00098 344.621 101)"/><path d="M49.3398 394.854C45.2008 394.854 41.8471 398.209 41.8471 402.347 41.8471 406.485 45.2008 409.84 49.3398 409.84L146.015 409.84C150.154 409.84 153.508 406.485 153.508 402.347 153.508 398.209 150.154 394.854 146.015 394.854Z" fill="#FFFFFF" fill-rule="nonzero" fill-opacity="1" transform="matrix(1 0 0 1.00098 344.621 101)"/><path d="M271.111 343.713C271.111 339.575 267.757 336.22 263.618 336.22L49.3398 336.22C45.2008 336.22 41.8471 339.575 41.8471 343.713 41.8471 347.851 45.2008 351.206 49.3398 351.206L263.618 351.206C267.757 351.206 271.111 347.851 271.111 343.713Z" fill="#FFFFFF" fill-rule="nonzero" fill-opacity="1" transform="matrix(1 0 0 1.00098 344.621 101)"/><path d="M121.727 219.612 74.9927 219.612C70.8538 219.612 67.5 222.967 67.5 227.105L67.5 257.005C67.5 261.143 70.8538 264.498 74.9927 264.498L121.726 264.498C125.865 264.498 129.219 261.143 129.219 257.005L129.219 227.105C129.22 222.967 125.865 219.612 121.727 219.612ZM114.234 249.511 82.4854 249.511 82.4854 234.597 114.233 234.597 114.233 249.511Z" fill="#FFFFFF" fill-rule="nonzero" fill-opacity="1" transform="matrix(1 0 0 1.00098 344.621 101)"/><path d="M191.122 192.038 144.389 192.038C140.25 192.038 136.896 195.393 136.896 199.531L136.896 257.005C136.896 261.143 140.25 264.498 144.389 264.498L191.122 264.498C195.261 264.498 198.615 261.143 198.615 257.005L198.615 199.531C198.615 195.393 195.26 192.038 191.122 192.038ZM183.63 249.511 151.882 249.511 151.882 207.023 183.63 207.023Z" fill="#FFFFFF" fill-rule="nonzero" fill-opacity="1" transform="matrix(1 0 0 1.00098 344.621 101)"/></g></g></g></g></g></svg>