<svg xmlns="http://www.w3.org/2000/svg" version="1.1" xmlns:xlink="http://www.w3.org/1999/xlink" width="512" height="512" x="0" y="0" viewBox="0 0 66 66" style="enable-background:new 0 0 512 512" xml:space="preserve"><g><path d="M12.34 22.17H28.3a2.78 2.78 0 0 0 2.78-2.78v-7.06c0-1.53-1.24-2.77-2.78-2.77H12.34c-1.53 0-2.78 1.24-2.78 2.77v7.06c0 1.53 1.25 2.78 2.78 2.78zm-.99-9.83c0-.54.44-.98.98-.98h15.96c.54 0 .98.44.98.98v7.06c0 .54-.44.99-.98.99H12.34c-.54 0-.98-.44-.98-.99v-7.06zM9.55 25.56H41.7v1.79H9.55zM9.55 31.1h27.13v1.79H9.55zM9.55 36.64h15.67v1.79H9.55zM9.55 42.19h15.67v1.79H9.55zM9.55 47.73h15.67v1.79H9.55zM9.55 53.27h15.67v1.79H9.55z" fill="#ffffff" opacity="1" data-original="#000000"></path><path d="M62.4 57.38a4.618 4.618 0 0 0-1.92-3.12l-12.85-8.94c.72-1.23 1.32-2.52 1.81-3.87.24.07.49.11.73.11.75 0 1.5-.33 2.01-.96.89-1.11.72-2.74-.39-3.63l-4.09-3.3V15.34L35.74 3.38H11.63c-4.45 0-8.07 3.62-8.07 8.07v42.94c0 4.45 3.62 8.07 8.07 8.07h28c4.31 0 7.83-3.39 8.05-7.65l7.04 6.57c.85.79 1.98 1.23 3.14 1.23.11 0 .21 0 .32-.01 1.27-.09 2.45-.71 3.25-1.7.79-.98 1.15-2.27.97-3.52zm-23.75-5.41-6.09-4.92a21.48 21.48 0 0 1 9.26-11.45l6.08 4.9c-1.65 4.81-4.9 8.84-9.25 11.47zm-.21 2.43a.8.8 0 0 1-.17.58c-.13.17-.32.27-.53.29a.758.758 0 0 1-.58-.17l-7.34-5.92c-.16-.13-.27-.32-.29-.53s.04-.42.17-.58c.16-.19.39-.29.62-.29.11 0 .21.03.31.07l7.64 6.16c.09.11.16.24.17.39zm12.34-14.93c-.27.34-.77.39-1.11.12l-7.34-5.92c-.16-.13-.27-.32-.29-.53s.04-.42.17-.58c.13-.17.32-.27.53-.29.03 0 .06-.01.09-.01.18 0 .35.06.5.18l7.34 5.92c.33.27.39.77.11 1.11zm-6.14-24.65h-5.69a2.69 2.69 0 0 1-2.69-2.69V6.44l4.19 4.19zm1.27 39.57a6.29 6.29 0 0 1-6.28 6.28h-28a6.29 6.29 0 0 1-6.28-6.28V11.45a6.29 6.29 0 0 1 6.28-6.28h22.84v6.96c0 2.47 2.01 4.48 4.48 4.48h6.96v15.61l-1.46-1.18c-.54-.43-1.21-.63-1.9-.56s-1.3.41-1.73.95a2.603 2.603 0 0 0-.26 2.87 23.197 23.197 0 0 0-9.53 11.78c-.97-.28-2.06.03-2.73.86-.43.54-.63 1.21-.56 1.9s.41 1.3.95 1.74l7.34 5.92c.46.37 1.03.57 1.62.57.09 0 .19-.01.28-.01.69-.07 1.3-.41 1.73-.95s.63-1.21.56-1.9c-.04-.34-.14-.66-.29-.95 1.2-.75 2.31-1.61 3.34-2.55l2.64 2.46zm14.12 5.4c-.49.61-1.2.98-1.98 1.04-.79.06-1.53-.21-2.11-.75L44.55 49.45c.77-.82 1.47-1.7 2.11-2.62l12.79 8.89c.65.45 1.06 1.13 1.17 1.9.12.79-.09 1.56-.59 2.17z" fill="#ffffff" opacity="1" data-original="#000000"></path></g></svg>