<svg viewBox="0 0 64 64" xmlns="http://www.w3.org/2000/svg"><g data-name="3-Add to Cart- Shopping"><path d="M9 13v46a4 4 0 0 0 4 4h38a4 4 0 0 0 4-4V13Z" fill="none" stroke="#ffffff" stroke-linejoin="round" stroke-width="2px" class="stroke-000000"></path><path d="M44 23V5a4 4 0 0 0-4-4H24a4 4 0 0 0-4 4v18M9 19h46" fill="none" stroke="#ffffff" stroke-linejoin="round" stroke-width="2px" class="stroke-000000"></path><circle cx="20" cy="25" r="2" fill="none" stroke="#ffffff" stroke-linejoin="round" stroke-width="2px" class="stroke-000000"></circle><circle cx="44" cy="25" r="2" fill="none" stroke="#ffffff" stroke-linejoin="round" stroke-width="2px" class="stroke-000000"></circle><path d="m44 44-5 8h3v6h4v-6h3l-5-8z" fill="none" stroke="#ffffff" stroke-linejoin="round" stroke-width="2px" class="stroke-000000"></path><circle cx="26" cy="43" r="11" fill="none" stroke="#ffffff" stroke-linejoin="round" stroke-width="2px" class="stroke-000000"></circle><path d="M26 37v12M32 43H20M43 31l-4 4 4 4" fill="none" stroke="#ffffff" stroke-linejoin="round" stroke-width="2px" class="stroke-000000"></path><path d="M39 35h8a1.959 1.959 0 0 0 2-2v-5M39 58h-2M35 58h-2M31 58h-9" fill="none" stroke="#ffffff" stroke-linejoin="round" stroke-width="2px" class="stroke-000000"></path></g></svg>