<svg width="602" height="512" xmlns="http://www.w3.org/2000/svg" xmlns:xlink="http://www.w3.org/1999/xlink" xml:space="preserve" overflow="hidden"><g transform="translate(-290 -204)"><g><g><g><g><path d="M402.279 119.374C417.228 110.706 427.312 94.5382 427.312 76.0501 427.312 48.45 404.858 25.9963 377.258 25.9963 349.658 25.9963 327.203 48.45 327.203 76.0501 327.203 94.5452 337.294 110.717 352.252 119.383 334.974 123.984 319.152 133.303 306.656 146.49 287.428 137.553 266.319 132.836 244.484 132.836 228.657 132.836 213.213 135.315 198.588 140.079 187.27 130.199 173.979 123.174 159.695 119.383 174.653 110.717 184.744 94.5452 184.744 76.0501 184.744 48.45 162.289 25.9963 134.69 25.9963 107.091 25.9963 84.6362 48.451 84.6362 76.0511 84.6362 94.5392 94.7202 110.707 109.669 119.375 68.1269 130.443 37.4311 168.385 37.4311 213.364 37.4311 216.126 39.6699 218.363 42.4306 218.363L110.48 218.363C101.564 237.572 96.8579 258.655 96.8579 280.462 96.8579 319.894 112.213 356.966 140.096 384.848 168.876 413.627 206.68 428.018 244.484 428.018 271.158 428.018 297.828 420.842 321.333 406.514L382.001 473.946C388.711 481.404 398.127 485.662 408.516 485.936 408.868 485.945 409.22 485.95 409.57 485.95 420.25 485.95 430.618 481.679 438.159 474.138 445.949 466.349 450.248 455.543 449.957 444.493 449.683 434.105 445.425 424.689 437.969 417.981L370.568 357.338C384.6 334.417 392.108 308.019 392.108 280.463 392.108 258.655 387.403 237.572 378.488 218.364L469.516 218.364C472.277 218.364 474.516 216.127 474.516 213.365 474.516 168.384 443.821 130.443 402.279 119.374ZM337.202 76.0511C337.202 53.9644 355.171 35.9963 377.258 35.9963 399.344 35.9963 417.313 53.9644 417.313 76.0511 417.313 98.1288 399.358 116.092 377.284 116.106 377.275 116.106 377.267 116.106 377.258 116.106 377.25 116.106 377.241 116.106 377.233 116.106 355.157 116.092 337.202 98.1288 337.202 76.0511ZM94.6352 76.0511C94.6352 53.9644 112.603 35.9963 134.69 35.9963 156.777 35.9963 174.745 53.9644 174.745 76.0511 174.745 98.1308 156.788 116.095 134.71 116.106 134.703 116.106 134.697 116.106 134.69 116.106 134.681 116.106 134.673 116.106 134.664 116.106 112.589 116.092 94.6352 98.1288 94.6352 76.0511ZM47.5711 208.364C50.1688 162.572 88.2408 126.115 134.67 126.105L134.69 126.105 134.71 126.105C154.031 126.109 172.575 132.444 187.749 144.09 170.148 151.413 153.982 162.19 140.096 176.076 130.359 185.814 122.155 196.676 115.594 208.364ZM431.28 425.413C436.678 430.268 439.76 437.139 439.961 444.756 440.181 453.077 436.947 461.209 431.088 467.068 425.231 472.925 417.09 476.176 408.779 475.94 401.16 475.74 394.29 472.656 389.434 467.258L329.78 400.955C336.479 396.208 342.872 390.845 348.87 384.848 354.828 378.89 360.211 372.507 364.997 365.776ZM341.799 377.779C314.966 404.612 279.73 418.027 244.483 418.024 209.243 418.021 173.993 404.605 147.166 377.779 121.171 351.784 106.856 317.223 106.856 280.462 106.856 243.7 121.171 209.139 147.166 183.145 173.16 157.151 207.721 142.835 244.483 142.835 281.244 142.835 315.805 157.151 341.799 183.145 367.794 209.139 382.109 243.701 382.109 280.462 382.109 317.223 367.794 351.784 341.799 377.779ZM373.374 208.364C366.813 196.676 358.609 185.814 348.871 176.076 338.969 166.174 327.904 157.862 315.99 151.245 332.261 135.204 354.236 126.111 377.232 126.104 377.241 126.104 377.249 126.105 377.257 126.105L377.276 126.105C423.705 126.115 461.777 162.572 464.375 208.364ZM244.484 164.47C213.502 164.47 184.373 176.535 162.465 198.444 117.241 243.669 117.241 317.255 162.465 362.48 184.374 384.388 213.502 396.454 244.484 396.454 275.466 396.454 304.594 384.389 326.502 362.48 348.41 340.572 360.476 311.445 360.476 280.463 360.476 249.481 348.41 220.353 326.502 198.445 304.593 176.536 275.465 164.47 244.484 164.47ZM244.484 386.455C216.173 386.455 189.554 375.43 169.535 355.41 169.32 355.195 169.112 354.975 168.9 354.758 184.495 327.747 213.132 311.109 244.485 311.109 275.837 311.109 304.474 327.746 320.069 354.758 319.856 354.975 319.648 355.195 319.433 355.41 299.412 375.43 272.795 386.455 244.484 386.455ZM327.04 346.946C313.823 325.716 293.197 310.654 269.511 304.375 284.456 295.707 294.537 279.542 294.537 261.056 294.537 233.456 272.083 211.001 244.484 211.001 216.884 211.001 194.43 233.456 194.43 261.056 194.43 279.542 204.511 295.707 219.456 304.375 195.772 310.654 175.147 325.714 161.93 346.942 128.393 305.357 130.924 244.126 169.535 205.515 189.554 185.496 216.173 174.47 244.484 174.47 272.796 174.47 299.413 185.495 319.432 205.515 339.452 225.534 350.477 252.152 350.477 280.463 350.476 304.949 342.222 328.166 327.04 346.946ZM244.484 301.111C222.397 301.111 204.429 283.143 204.429 261.056 204.429 238.969 222.397 221 244.484 221 266.57 221 284.538 238.969 284.538 261.056 284.538 283.143 266.569 301.111 244.484 301.111Z" fill="#FFFFFF" fill-rule="nonzero" fill-opacity="1" transform="matrix(1 0 0 1.0001 328.531 204)"/></g></g></g></g></g></svg>