<svg xmlns="http://www.w3.org/2000/svg" version="1.1" xmlns:xlink="http://www.w3.org/1999/xlink" width="512" height="512" x="0" y="0" viewBox="0 0 512 512" style="enable-background:new 0 0 512 512" xml:space="preserve"><g><path d="M111.998 238.186c2.164 8.075 7.356 14.833 14.623 19.028 4.845 2.797 10.217 4.227 15.653 4.227a31.4 31.4 0 0 0 8.136-1.077l7.899-2.116a8 8 0 0 0 5.657-9.798l-17.558-65.531c34.145-1.293 66.702 7.807 99.743 18.132 2.108.659 4.244.981 6.352.981 5.279-.001 10.374-2.023 14.364-5.854 5.583-5.36 7.721-13.023 5.717-20.496l-11.633-43.416c13.703-6.917 21.186-22.739 17.06-38.139-4.127-15.402-18.524-25.368-33.844-24.502l-12.352-46.098c-1.944-7.254-7.428-12.77-14.671-14.755-7.241-1.983-14.772-.034-20.143 5.214-3.876 3.789-7.755 7.669-11.863 11.777-21.563 21.566-45.979 45.986-73.854 60.167L68.928 97.278c-12.988 3.48-23.866 11.848-30.629 23.562s-8.572 25.318-5.092 38.306c7.21 26.905 34.961 42.926 61.87 35.722l4.958-1.329zm34.271 6.722c-3.947 1.058-8.084.507-11.649-1.551-3.564-2.058-6.109-5.365-7.167-9.312l-11.964-44.648 15.012-4.023 15.939 59.488zm-4.098-77.802-.834-3.114-17.807-66.456c23.36-12.945 43.817-31.689 62.256-49.849l34.599 129.126c-21.997-5.854-44.182-10.033-67.327-10.033a187.09 187.09 0 0 0-10.887.326zm120.385-68.838c1.82 6.793-.733 13.74-5.93 17.858l-8.136-30.363c6.554.966 12.244 5.71 14.066 12.505zm-49.642-74.065c1.802.493 2.961 1.659 3.445 3.464l40.77 152.156c.499 1.859.046 3.479-1.343 4.812s-3.025 1.717-4.864 1.144a1153.674 1153.674 0 0 0-12.606-3.867L198.862 34.666c3.194-3.192 6.273-6.258 9.322-9.24 1.337-1.304 2.93-1.719 4.73-1.223zM90.936 179.412c-18.383 4.926-37.348-6.023-42.273-24.407-2.374-8.859-1.133-18.151 3.493-26.165 4.626-8.013 12.054-13.732 20.914-16.106l35.426-9.492 17.865 66.678zm200.858-39.576a8 8 0 0 1 8-13.856l15.353 8.864a8 8 0 1 1-8.001 13.856zm3.786-50.416a8 8 0 0 1 5.656-9.799l17.124-4.589a8 8 0 0 1 4.142 15.455l-17.124 4.589a8 8 0 0 1-9.798-5.656zm-26.798-43.066 8.864-15.353a7.998 7.998 0 0 1 10.928-2.928 8 8 0 0 1 2.928 10.928l-8.864 15.353a7.998 7.998 0 0 1-10.929 2.928 8 8 0 0 1-2.927-10.928zm-3.198 263.796h-55.72a8 8 0 0 0-8 8v177.849a8 8 0 0 0 8 8h55.72a8 8 0 0 0 8-8V318.15a8 8 0 0 0-8-8zm-8 177.849h-39.72V326.15h39.72zm111.464-154.625h-55.72a8 8 0 0 0-8 8V496a8 8 0 0 0 8 8h55.72a8 8 0 0 0 8-8V341.374a8 8 0 0 0-8-8zm-8 154.626h-39.72V349.374h39.72zM472.51 237.06h-55.72a8 8 0 0 0-8 8v250.939a8 8 0 0 0 8 8h55.72a8 8 0 0 0 8-8V245.06a8 8 0 0 0-8-8zm-8 250.939h-39.72V253.06h39.72zM162.121 379.138h-55.72a8 8 0 0 0-8 8v108.861a8 8 0 0 0 8 8h55.72a8 8 0 0 0 8-8V387.138a8 8 0 0 0-8-8zm-8 108.861h-39.72v-92.861h39.72zm184.553-234.002 84.52-85.242-11.526 1.011c-4.405.374-8.283-2.87-8.668-7.271a8.001 8.001 0 0 1 7.271-8.669l33.68-2.953a7.998 7.998 0 0 1 8.649 8.859l-3.756 33.6a8 8 0 1 1-15.9-1.778l1.248-11.166-87.622 88.371a8 8 0 0 1-8.149 1.977l-99.128-32.162-100.116 77.956a7.965 7.965 0 0 1-4.91 1.688 8.002 8.002 0 0 1-4.92-14.313l103.464-80.562a7.999 7.999 0 0 1 7.384-1.297z" fill="#ffffff" opacity="1" data-original="#000000"></path></g></svg>