<svg xmlns="http://www.w3.org/2000/svg" version="1.1" xmlns:xlink="http://www.w3.org/1999/xlink" width="512" height="512" x="0" y="0" viewBox="0 0 512 512" style="enable-background:new 0 0 512 512" xml:space="preserve"><g><path d="M385.39 177.89 346.21 280.2a6.007 6.007 0 0 1-5.6 3.86 6.01 6.01 0 0 1-5.6-8.15l39.18-102.31a6.006 6.006 0 0 1 7.75-3.46c3.09 1.19 4.64 4.66 3.45 7.75zm60 249.66c0 38.29-31.15 69.45-69.45 69.45-29.05 0-53.98-17.94-64.33-43.31h-210.7c-18.92 0-34.31-15.39-34.31-34.31V49.31C66.61 30.39 82 15 100.92 15h246.71c18.92 0 34.31 15.39 34.31 34.31v46.55c4.82-1 9.97-.69 14.9 1.2l22.82 8.74c6.62 2.54 11.87 7.52 14.77 14.02 2.9 6.51 3.11 13.74.57 20.36l-7.38 19.26c-.01.03-.03.05-.04.07h.01l-45.65 114.61v84.26c35.5 3.06 63.45 32.9 63.45 69.17zM414.2 160.72l-50.05-19.17-62.62 163.56 47.86 18.33zM301.33 317.9l7.1 44.58 32.96-29.24zm72.33-201.21-5.23 13.65 50.13 19.2 5.23-13.66c1.39-3.63 1.27-7.6-.32-11.18-1.6-3.58-4.48-6.32-8.1-7.71l-22.82-8.74c-7.53-2.87-16 .91-18.89 8.44zm-65.71 325c-.95-4.56-1.45-9.29-1.45-14.13 0-36.27 27.95-66.12 63.45-69.17v-54.13l-11.61 29.14h-.01c-.34.86-.87 1.64-1.58 2.27l-48.54 43.06a6.007 6.007 0 0 1-6 1.16 5.992 5.992 0 0 1-3.9-4.71l-10.45-65.66a5.99 5.99 0 0 1 .32-3.09l66.91-174.77 7.38-19.26c1.63-4.26 4.25-7.86 7.49-10.64V49.31c0-12.3-10.01-22.31-22.31-22.31H100.92c-12.3 0-22.31 10.01-22.31 22.31v370.07c0 12.3 10.01 22.31 22.31 22.31zm125.44-14.14c0-31.68-25.77-57.45-57.45-57.45s-57.45 25.77-57.45 57.45S344.26 485 375.94 485s57.45-25.77 57.45-57.45zm-32.87-22.59-32.46 32.46-16.69-16.69c-2.34-2.34-6.14-2.34-8.48 0s-2.34 6.14 0 8.49l20.93 20.93c1.12 1.12 2.65 1.76 4.24 1.76s3.12-.63 4.24-1.76l36.7-36.71c2.34-2.34 2.34-6.14 0-8.49a5.99 5.99 0 0 0-8.48.01zm-87.8-13.2c0-3.31-2.69-6-6-6h-93.5c-3.31 0-6 2.69-6 6s2.69 6 6 6h93.5c3.31 0 6-2.69 6-6zM127.89 94.63h201.92c3.31 0 6-2.69 6-6s-2.69-6-6-6H127.89c-3.31 0-6 2.69-6 6s2.69 6 6 6zm0 58.5h182.5c3.31 0 6-2.69 6-6s-2.69-6-6-6h-182.5c-3.31 0-6 2.69-6 6s2.69 6 6 6zm0 58.51h160.06c3.31 0 6-2.69 6-6s-2.69-6-6-6H127.89c-3.31 0-6 2.69-6 6s2.69 6 6 6zm0 58.5h135.6c3.31 0 6-2.69 6-6s-2.69-6-6-6h-135.6c-3.31 0-6 2.69-6 6s2.69 6 6 6zm0 58.51h140.7c3.31 0 6-2.69 6-6s-2.69-6-6-6h-140.7c-3.31 0-6 2.69-6 6s2.69 6 6 6zm71.53 29.79v65.53c0 3.31-2.69 6-6 6h-65.53c-3.31 0-6-2.69-6-6v-65.53c0-3.31 2.69-6 6-6h65.53c3.31 0 6 2.69 6 6zm-12 6h-53.53v53.53h53.53zm-35.87 42.33c1.12 1.12 2.65 1.76 4.24 1.76s3.12-.63 4.24-1.76l22.65-22.65c2.34-2.34 2.34-6.14 0-8.49a6 6 0 0 0-8.48 0l-18.41 18.41-8.68-8.68c-2.34-2.34-6.14-2.34-8.48 0s-2.34 6.14 0 8.49z" fill="#fffefe" opacity="1" data-original="#000000"></path></g></svg>