<svg xmlns="http://www.w3.org/2000/svg" version="1.1" xmlns:xlink="http://www.w3.org/1999/xlink" width="512" height="512" x="0" y="0" viewBox="0 0 512 512" style="enable-background:new 0 0 512 512" xml:space="preserve" class=""><g><path d="M290.426 425.081a6.922 6.922 0 0 1-6.608 4.872 6.903 6.903 0 0 1-2.05-.313c-8.667-2.689-17.324-5.468-25.959-8.239-10.631-3.414-21.221-6.813-31.734-10.011a6.916 6.916 0 0 1-4.604-8.633c1.113-3.662 5-5.718 8.631-4.606 10.581 3.218 21.239 6.64 31.937 10.074 8.59 2.757 17.207 5.523 25.829 8.198a6.922 6.922 0 0 1 4.558 8.658zm87.594 11.89c-16.757-1.405-35.261-4.773-56.572-10.295-3.694-.957-7.477 1.261-8.432 4.962a6.923 6.923 0 0 0 4.964 8.435c22.072 5.721 41.338 9.216 58.887 10.687a6.922 6.922 0 0 0 7.473-6.317 6.92 6.92 0 0 0-6.32-7.472zm-186.202-48.865c-22.437-5.419-41.811-8.218-59.221-8.561-.045-.002-.09-.002-.14-.002a6.92 6.92 0 0 0-6.914 6.784 6.922 6.922 0 0 0 6.784 7.052c16.396.324 34.793 2.998 56.239 8.178.55.133 1.095.196 1.631.196a6.922 6.922 0 0 0 1.621-13.647zm-20.681-245.617c0-45.818 37.275-83.092 83.09-83.092 45.82 0 83.095 37.275 83.095 83.092s-37.275 83.092-83.095 83.092c-45.815 0-83.09-37.275-83.09-83.092zm13.838 0c0 38.187 31.068 69.255 69.252 69.255 38.189 0 69.257-31.068 69.257-69.255s-31.068-69.255-69.257-69.255c-38.184 0-69.252 31.068-69.252 69.255zm323.933 366.66a6.921 6.921 0 0 1-5.599 2.851H8.691a6.917 6.917 0 0 1-6.581-9.056l84.28-259.385a6.924 6.924 0 0 1 6.581-4.782h55.794l-1.497-2.218c-17.572-26.034-35.532-57.57-35.532-94.068C111.736 63.921 175.66 0 254.227 0s142.491 63.921 142.491 142.491c0 36.505-17.959 68.038-35.527 94.068l-1.497 2.218h59.335a6.922 6.922 0 0 1 6.581 4.782l84.279 259.385a6.92 6.92 0 0 1-.981 6.205zm-94.906-256.534h-8.617c-3.006 7.51-3.179 15.938-.374 23.559a6.908 6.908 0 0 1-1.293 6.955c-8.347 9.516-10.514 22.68-5.644 34.356a32.826 32.826 0 0 0 16.009 16.926 6.923 6.923 0 0 1 3.883 5.66 32.81 32.81 0 0 0 2.428 9.959c5.443 13.038 18.227 20.849 31.82 20.188zM158.736 228.82l95.491 141.504 95.495-141.504c17.221-25.52 33.158-53.642 33.158-86.329 0-70.939-57.712-128.653-128.653-128.653S125.574 71.552 125.574 142.491c0 32.682 15.937 60.806 33.162 86.329zM18.214 498.162h121.091c-4.753-14.185-18.69-23.631-34.105-22.227a6.865 6.865 0 0 1-6.383-3.05c-7.036-10.529-19.198-16.023-31.725-14.342a32.79 32.79 0 0 0-20.486 11.081 6.875 6.875 0 0 1-6.477 2.286c-4.463-.81-9.089-.619-13.527.439zm475.572 0-20.979-64.565c-18.095 9.467-37.377 15.12-58.814 17.144a6.917 6.917 0 0 1-7.536-6.236 6.916 6.916 0 0 1 6.239-7.538c20.428-1.93 38.691-7.437 55.77-16.73l-11.871-36.535c-2.025.263-4.043.418-6.043.418-18.468.002-35.504-10.968-42.928-28.761a46.938 46.938 0 0 1-2.973-10.318 46.657 46.657 0 0 1-19.351-22.23c-6.396-15.349-4.243-32.505 5.504-45.687-2.187-8.032-2.135-16.511.03-24.509h-40.478l-90.394 133.948a6.914 6.914 0 0 1-11.468 0l-90.39-133.948H97.998L48.961 403.534c13.993-9.865 29.204-16.655 46.091-20.438a6.92 6.92 0 0 1 3.027 13.505c-21.671 4.852-40.349 15.16-57.096 31.485l-9.62 29.606c2.47-.155 4.948-.167 7.409.073a46.612 46.612 0 0 1 26.482-12.939c16.477-2.207 32.486 4.3 42.703 17.133.104-.002.203-.002.306-.002 21.735 0 40.558 15.011 45.407 36.205z" fill="#ffffff" opacity="1" data-original="#000000"></path></g></svg>