<svg width="600" height="512" xmlns="http://www.w3.org/2000/svg" xmlns:xlink="http://www.w3.org/1999/xlink" xml:space="preserve" overflow="hidden"><g transform="translate(-292 -104)"><g><g><g><g><path d="M498.329 146.476 258.077 73.6257C256.527 72.8506 254.977 72.8506 253.427 73.6257L13.1751 146.476C10.0751 147.251 7.75007 150.351 7.75007 154.226 7.75007 158.101 10.0751 160.426 13.1751 161.976L66.6506 178.252 66.6506 280.553C66.6506 283.653 68.2006 285.978 70.5256 287.528 71.3006 288.303 142.601 329.378 251.877 329.378 285.203 329.378 322.403 325.503 362.703 315.428L362.703 363.478C347.978 366.578 337.128 379.753 337.128 394.479L337.128 432.454C337.128 437.104 340.228 440.204 344.878 440.204L395.254 440.204C399.904 440.204 403.004 437.104 403.004 432.454L403.004 394.479C403.004 378.978 392.153 366.578 377.428 363.478L377.428 310.003C397.579 303.803 418.504 296.828 440.204 286.753 443.304 285.203 444.854 282.878 444.854 279.777L444.854 177.477 498.329 161.201C501.429 160.426 503.754 157.326 503.754 153.451 503.754 149.576 501.429 147.251 498.329 146.476ZM82.1507 275.127 82.1507 182.127 253.427 234.052 255.752 234.052C255.752 234.052 257.302 234.052 258.077 234.052L362.703 202.277 362.703 297.603C213.902 337.128 103.076 285.978 82.1507 275.127ZM387.503 393.703 387.503 422.379 352.628 422.379 352.628 393.703C352.628 383.628 360.378 375.878 370.453 375.878 380.528 375.878 387.503 384.403 387.503 393.703ZM429.354 274.352C411.529 282.103 394.479 288.303 377.428 293.728L377.428 197.627 429.354 182.127ZM370.453 183.677 258.852 142.601C254.977 141.051 250.327 143.376 248.777 147.251 247.227 151.126 249.552 155.776 253.427 157.326L346.428 191.427 255.752 218.552 41.8504 154.226 255.752 89.1258 469.654 154.226C424.704 167.401 400.679 175.152 370.453 183.677Z" fill="#FFFFFF" fill-rule="nonzero" fill-opacity="1" transform="matrix(1 0 0 1.00097 337.214 104)"/></g></g></g></g></g></svg>