<svg width="16" height="20" viewBox="0 0 16 20" fill="none" xmlns="http://www.w3.org/2000/svg">
<path d="M4.38042 11.375H12.1849C12.3211 11.375 12.4326 11.2625 12.4326 11.125V4.16748C12.4326 4.02998 12.3211 3.91748 12.1849 3.91748H4.38042C4.24415 3.91748 4.13266 4.02998 4.13266 4.16748V11.125C4.13266 11.2625 4.24415 11.375 4.38042 11.375ZM4.62818 4.41748H11.9371V10.875H4.62818V4.41748Z" fill="white"/>
<path d="M10.2028 6.32001H6.36251C6.22624 6.32001 6.11475 6.43251 6.11475 6.57001C6.11475 6.70751 6.22624 6.82001 6.36251 6.82001H10.2028C10.3391 6.82001 10.4506 6.70751 10.4506 6.57001C10.4506 6.43251 10.3391 6.32001 10.2028 6.32001Z" fill="white"/>
<path d="M10.2028 8.47247H6.36251C6.22624 8.47247 6.11475 8.58497 6.11475 8.72247C6.11475 8.85997 6.22624 8.97247 6.36251 8.97247H10.2028C10.3391 8.97247 10.4506 8.85997 10.4506 8.72247C10.4506 8.58497 10.3391 8.47247 10.2028 8.47247Z" fill="white"/>
<path d="M0.247761 18.5C0.111492 18.5 0 18.6125 0 18.75C0 18.8875 0.111492 19 0.247761 19H0.683819V19.75C0.683819 19.8875 0.795312 20 0.93158 20H14.3627C15.1307 20 15.7576 19.37 15.7576 18.5925V1.4075C15.7576 0.6325 15.1307 0 14.3627 0H0.93158C0.795312 0 0.683819 0.1125 0.683819 0.25V1H0.247761C0.111492 1 0 1.1125 0 1.25C0 1.3875 0.111492 1.5 0.247761 1.5H0.683819V2.4575H0.247761C0.111492 2.4575 0 2.57 0 2.7075C0 2.845 0.111492 2.9575 0.247761 2.9575H0.683819V3.915H0.247761C0.111492 3.915 0 4.0275 0 4.165C0 4.3025 0.111492 4.415 0.247761 4.415H0.683819V5.3725H0.247761C0.111492 5.3725 0 5.485 0 5.6225C0 5.76 0.111492 5.8725 0.247761 5.8725H0.683819V6.83H0.247761C0.111492 6.83 0 6.9425 0 7.08C0 7.2175 0.111492 7.33 0.247761 7.33H0.683819V8.2875H0.247761C0.111492 8.2875 0 8.4 0 8.5375C0 8.675 0.111492 8.7875 0.247761 8.7875H0.683819V9.745H0.247761C0.111492 9.745 0 9.8575 0 9.995C0 10.1325 0.111492 10.245 0.247761 10.245H0.683819V11.2025H0.247761C0.111492 11.2025 0 11.315 0 11.4525C0 11.59 0.111492 11.7025 0.247761 11.7025H0.683819V12.66H0.247761C0.111492 12.66 0 12.7725 0 12.91C0 13.0475 0.111492 13.16 0.247761 13.16H0.683819V14.1175H0.247761C0.111492 14.1175 0 14.23 0 14.3675C0 14.505 0.111492 14.6175 0.247761 14.6175H0.683819V15.575H0.247761C0.111492 15.575 0 15.6875 0 15.825C0 15.9625 0.111492 16.075 0.247761 16.075H0.683819V17.0325H0.247761C0.111492 17.0325 0 17.145 0 17.2825C0 17.42 0.111492 17.5325 0.247761 17.5325H0.683819V18.49H0.247761V18.5ZM1.17934 17.5425H1.6154C1.75167 17.5425 1.86316 17.43 1.86316 17.2925C1.86316 17.155 1.75167 17.0425 1.6154 17.0425H1.17934V16.085H1.6154C1.75167 16.085 1.86316 15.9725 1.86316 15.835C1.86316 15.6975 1.75167 15.585 1.6154 15.585H1.17934V14.6275H1.6154C1.75167 14.6275 1.86316 14.515 1.86316 14.3775C1.86316 14.24 1.75167 14.1275 1.6154 14.1275H1.17934V13.17H1.6154C1.75167 13.17 1.86316 13.0575 1.86316 12.92C1.86316 12.7825 1.75167 12.67 1.6154 12.67H1.17934V11.7125H1.6154C1.75167 11.7125 1.86316 11.6 1.86316 11.4625C1.86316 11.325 1.75167 11.2125 1.6154 11.2125H1.17934V10.255H1.6154C1.75167 10.255 1.86316 10.1425 1.86316 10.005C1.86316 9.8675 1.75167 9.755 1.6154 9.755H1.17934V8.7975H1.6154C1.75167 8.7975 1.86316 8.685 1.86316 8.5475C1.86316 8.41 1.75167 8.2975 1.6154 8.2975H1.17934V7.34H1.6154C1.75167 7.34 1.86316 7.2275 1.86316 7.09C1.86316 6.9525 1.75167 6.84 1.6154 6.84H1.17934V5.8825H1.6154C1.75167 5.8825 1.86316 5.77 1.86316 5.6325C1.86316 5.495 1.75167 5.3825 1.6154 5.3825H1.17934V4.425H1.6154C1.75167 4.425 1.86316 4.3125 1.86316 4.175C1.86316 4.0375 1.75167 3.925 1.6154 3.925H1.17934V2.9675H1.6154C1.75167 2.9675 1.86316 2.855 1.86316 2.7175C1.86316 2.58 1.75167 2.4675 1.6154 2.4675H1.17934V1.51H1.6154C1.75167 1.51 1.86316 1.3975 1.86316 1.26C1.86316 1.1225 1.75167 1.01 1.6154 1.01H1.17934V0.51H14.3627C14.8582 0.51 15.2621 0.9175 15.2621 1.4175V18.6025C15.2621 19.1025 14.8582 19.51 14.3627 19.51H1.17934V19.01H1.6154C1.75167 19.01 1.86316 18.8975 1.86316 18.76C1.86316 18.6225 1.75167 18.51 1.6154 18.51H1.17934V17.5525V17.5425Z" fill="white"/>
</svg>
