<svg viewBox="0 0 91 91" xml:space="preserve" xmlns="http://www.w3.org/2000/svg"><path d="M8.79 71.432c8.17 11.569 21.635 19.146 36.846 19.146 24.863 0 45.092-20.229 45.092-45.094 0-24.863-20.229-45.09-45.092-45.09C20.771.394.542 20.622.542 45.484a44.833 44.833 0 0 0 7.967 25.553c.08.141.174.272.281.395zm51.898 11.175c-.016 0-.029-.004-.043-.004-4.4 0-5.492-.877-6.553-1.73-.83-.663-1.33-1.611-1.219-2.311.094-.588.605-1.312 1.146-2.078.158-.221.314-.442.465-.666a19.876 19.876 0 0 0 3.379-10.563 2.52 2.52 0 0 0-.389-1.402c-2.998-4.731-8.74-2.543-13.35-.784-2.248.856-4.691 1.788-6.559 1.905.162-.15.33-.301.498-.454 1.672-1.509 3.752-3.386 3.643-6.425-.113-2.998-2.49-6.359-5.852-6.584-5.221-.354-7.48-1.877-7.828-3.074a1.165 1.165 0 0 1 .07-.863c2.91.902 8.25 2.33 11.4-1.421 2.391-2.829 2.059-7.024-.91-11.513l-.203-.306c-1.408-2.12-2.863-4.313-2.352-6.003.305-1.005 1.387-1.933 2.293-2.626a28.578 28.578 0 0 1 7.674-4.179l.213-.077c3.496-1.255 8.779-3.152 9.166-8.173.209-2.744-1.297-4.869-2.506-6.577-.165-.237-.327-.469-.485-.699a39.837 39.837 0 0 1 16.205 6.677l-8.727 12.241c-2.191 3.07-2.32 6.001-.344 7.843.984.917 2.178 1.168 2.828 1.306 1.664.344 3.383.53 5.193.553l.311.006c.035.14.074.354.098.671a16.55 16.55 0 0 1-.775 6.3 2.515 2.515 0 0 0 .457 2.395c1.428 1.71 4.053 1.962 6.375.618.281-.161.559-.339.836-.518.35-.225.934-.602 1.123-.609.227.031 1.02.605 1.438.935 1.076.853 2.551 2.019 4.555 2.031a.364.364 0 0 0 .033.001c1.34-.001 2.625-.557 3.695-1.523.004.188.016.371.016.559-.001 16.77-10.362 31.158-25.015 37.121zm23.895-46.501c-.488.906-.791 1.829-1.057 2.646-.182.563-.354 1.096-.559 1.541-.365.785-.852 1.131-.977 1.131-.275-.002-.994-.571-1.469-.947-1.117-.884-2.621-2.094-4.748-2.015-1.188.045-2.168.504-2.959.972a21.37 21.37 0 0 0 .146-4.506c-.176-2.334-1.047-3.935-2.586-4.758-1.029-.552-2.078-.565-2.855-.575a21.981 21.981 0 0 1-4.145-.447l-.127-.027c.109-.304.326-.751.707-1.285l8.572-12.024a40.085 40.085 0 0 1 12.057 20.294zM45.636 5.419c.285 0 .568.016.854.021.49 1.622 1.434 2.962 2.283 4.162.896 1.264 1.668 2.355 1.598 3.289-.137 1.774-3.307 2.913-5.854 3.827l-.217.079a33.593 33.593 0 0 0-9.025 4.915c-1.506 1.153-3.328 2.783-4.049 5.162-1.199 3.957 1.115 7.44 2.973 10.24l.199.3c1.197 1.809 2.246 4.333 1.258 5.502-1.035 1.232-3.873.551-6.506-.277-1.598-.507-3.367.014-4.619 1.355-1.564 1.68-2.01 4.197-1.133 6.416.98 2.482 3.881 5.557 12.121 6.115.396.026 1.137.923 1.168 1.755.023.646-.771 1.413-1.988 2.511-1.344 1.213-2.867 2.588-3.545 4.646a2.51 2.51 0 0 0 .688 2.638c3.893 3.569 9.537 1.419 14.074-.311 3.158-1.204 5.725-2.095 6.863-1.599A14.855 14.855 0 0 1 50.327 73c-.133.194-.27.389-.408.582-.771 1.09-1.73 2.447-2.008 4.191-.402 2.512.766 5.203 3.039 7.02.143.115.287.229.436.341a40.263 40.263 0 0 1-5.75.419c-13.305 0-25.109-6.524-32.4-16.535.227-4.272 2.242-7.204 3.9-9.572l.229-.326c.523-.755 1.217-1.928 1.191-3.41-.037-1.693-.971-2.878-1.652-3.743-.129-.164-.258-.327-.375-.489-1.641-2.313-.514-5.91 1.379-8.119l.176-.205c.873-1.006 2.193-2.526 2.037-4.634-.131-1.953-1.529-3.662-3.57-4.358-1.445-.487-2.896-.384-4.117-.219a31.79 31.79 0 0 0-5.52 1.252C11.468 18.073 27.099 5.419 45.636 5.419zM5.829 40.975a26.792 26.792 0 0 1 7.266-2.052c.656-.088 1.387-.157 1.84-.004.029.01.057.021.08.034-.17.267-.506.653-.727.906l-.195.228c-3.209 3.745-4.811 9.859-1.66 14.301.166.231.344.46.523.688.18.226.434.549.543.743a2.997 2.997 0 0 1-.26.43l-.221.315c-1.098 1.567-2.512 3.59-3.529 6.196a39.818 39.818 0 0 1-3.66-21.785z" fill="#ffffff" class="fill-000000"></path></svg>