<svg id="Layer_1" version="1.1" viewBox="0 0 512 512" xml:space="preserve" xmlns="http://www.w3.org/2000/svg" enable-background="new 0 0 512 512"><path d="M256 511C116.7 511 3.37 397.67 3.37 258.37c0-47.11 12.12-90.87 36.01-130.06A7.73 7.73 0 0 1 50 125.73c3.64 2.22 4.8 6.98 2.58 10.62-22.4 36.73-33.75 77.78-33.75 122.02 0 130.78 106.4 237.18 237.18 237.18s237.18-106.4 237.18-237.18S386.78 21.19 256 21.19c-30.98 0-59.42 5.38-86.93 16.44-3.97 1.6-8.46-.33-10.05-4.29s.33-8.46 4.29-10.05C192.68 11.48 223 5.74 256 5.74c139.3 0 252.63 113.33 252.63 252.63S395.3 511 256 511z" fill="#ffffff" class="fill-000000"></path><path d="M256 511c-81.69 0-148.15-113.33-148.15-252.63 0-4.27 3.46-7.73 7.73-7.73s7.73 3.46 7.73 7.73c0 128.56 60.77 237.18 132.7 237.18 73.81 0 138.54-112.39 138.54-240.52 0-126.74-62.1-233.81-135.62-233.81-25.81 0-49.75 12.04-71.16 35.79a7.72 7.72 0 0 1-10.91.57 7.73 7.73 0 0 1-.57-10.91c24.46-27.14 52.26-40.9 82.64-40.9C342.23 5.76 410 117.58 410 255.03 410 391.39 338.04 511 256 511z" fill="#ffffff" class="fill-000000"></path><path d="M258.92 511c-4.27 0-7.73-3.46-7.73-7.73V13.49c0-4.27 3.46-7.73 7.73-7.73 4.27 0 7.73 3.46 7.73 7.73v489.78c0 4.27-3.46 7.73-7.73 7.73z" fill="#ffffff" class="fill-000000"></path><path d="M500.9 266.1H11.1c-4.27 0-7.73-3.46-7.73-7.73 0-4.27 3.46-7.73 7.73-7.73h489.8c4.27 0 7.73 3.46 7.73 7.73 0 4.27-3.46 7.73-7.73 7.73zM445.75 420.9H66.25c-4.27 0-7.73-3.46-7.73-7.73 0-4.27 3.46-7.73 7.73-7.73h379.5c4.27 0 7.73 3.46 7.73 7.73 0 4.27-3.46 7.73-7.73 7.73zM445.75 111.3H187.9c-4.27 0-7.73-3.46-7.73-7.73s3.46-7.73 7.73-7.73h257.84c4.27 0 7.73 3.46 7.73 7.73s-3.45 7.73-7.72 7.73z" fill="#ffffff" class="fill-000000"></path><path d="M112.02 266.11a7.74 7.74 0 0 1-6.59-3.69c-3.24-5.3-79.51-130.37-79.51-175.32 0-47.47 38.63-86.1 86.1-86.1 47.47 0 86.1 38.63 86.1 86.1 0 44.94-76.26 170.02-79.51 175.32a7.74 7.74 0 0 1-6.59 3.69zm0-249.66c-38.95 0-70.65 31.69-70.65 70.64 0 30.68 46.14 114.92 70.65 156.29 24.5-41.38 70.64-125.62 70.64-156.29 0-38.95-31.69-70.64-70.64-70.64z" fill="#ffffff" class="fill-000000"></path><path d="M111.75 131.74c-23.85 0-43.25-19.4-43.25-43.25s19.4-43.25 43.25-43.25S155 64.64 155 88.49s-19.4 43.25-43.25 43.25zm0-71.05c-15.33 0-27.8 12.47-27.8 27.8s12.47 27.8 27.8 27.8 27.8-12.47 27.8-27.8-12.47-27.8-27.8-27.8z" fill="#ffffff" class="fill-000000"></path></svg>